<?xml version="1.0" encoding="utf-8"?>
<!-- Generator: Adobe Illustrator 22.0.1, SVG Export Plug-In . SVG Version: 6.00 Build 0)  -->
<svg version="1.1" xmlns="http://www.w3.org/2000/svg" xmlns:xlink="http://www.w3.org/1999/xlink" x="0px" y="0px"
	 viewBox="0 0 564.1 810" style="enable-background:new 0 0 564.1 810;" xml:space="preserve">
<style type="text/css">
	.st0{fill:#1D1C21;}
	.st1{opacity:0.55;fill:#303033;}
	.st2{opacity:0.82;fill:#1C1C1E;}
	.st3{opacity:0.64;fill:#131316;}
	.st4{opacity:0.79;fill:url(#SVGID_1_);}
	.st5{opacity:0.4;}
	.st6{fill:#212028;}
	.st7{opacity:0.51;}
	.st8{opacity:0.57;}
	.st9{fill:#FFFFFF;}
	.st10{fill:#FFFFFF;stroke:#FFFFFF;stroke-width:8;stroke-miterlimit:10;}
	.st11{display:none;enable-background:new    ;}
	.st12{display:inline;}
	.st13{fill-rule:evenodd;clip-rule:evenodd;fill:#A0A0A0;}
	.st14{display:none;opacity:0.7686;}
	.st15{fill-rule:evenodd;clip-rule:evenodd;fill:#FEFEFE;}
	.st16{fill-rule:evenodd;clip-rule:evenodd;fill:#C02544;}
	.st17{display:none;}
	.st18{fill-rule:evenodd;clip-rule:evenodd;}
	.st19{fill-rule:evenodd;clip-rule:evenodd;fill:#A5A4A4;}
	.st20{fill:none;}
	.st21{fill:#A0A0A0;}
	.st22{display:inline;fill:#A0A0A0;}
	.st23{fill:url(#SVGID_2_);}
	.st24{fill:url(#SVGID_3_);}
	.st25{fill:url(#SVGID_4_);}
	.st26{fill:url(#SVGID_5_);}
	.st27{fill:url(#SVGID_6_);}
	.st28{fill:url(#SVGID_7_);}
	.st29{fill:url(#SVGID_8_);}
	.st30{fill:url(#SVGID_9_);}
	.st31{fill:url(#SVGID_10_);}
	.st32{fill-rule:evenodd;clip-rule:evenodd;fill:#C7C7C7;}
	.st33{display:none;opacity:0.1608;}
</style>
<g id="Слой_2__x2B__Слой_4__x2B__Слой_3__x2B__Слой_5__x2B__Слой_6__x2B__Create_by__x2B__Группа_1__x2B__Слой_8__x2B__Learn_English_x21___x2B__шапка__x2B__кнопки__x2B__иконка__x2B__WordEng__x2B__Learn_new__x2B__Reiteration__x2B__Слой_7__x2B__help__x2B__Слой_2___1_">
	<g>
		
			<image style="overflow:visible;" width="564" height="810" id="Слой_2__x2B__Слой_4__x2B__Слой_3__x2B__Слой_5__x2B__Слой_6__x2B__Create_by__x2B__Группа_1__x2B__Слой_8__x2B__Learn_English_x21___x2B__шапка__x2B__кнопки__x2B__иконка__x2B__WordEng__x2B__Learn_new__x2B__Reiteration__x2B__Слой_7__x2B__help__x2B__Слой_2___2_" xlink:href="8AB1A427.png"  transform="matrix(1 0 0 1 0.1358 0.2083)">
		</image>
	</g>
</g>
<g id="Слой_27">
	<g id="Слой_28">
		<rect x="0.1" y="0.2" class="st0" width="564" height="810"/>
	</g>
	<g id="Слой_31">
		<polygon class="st1" points="0.1,551.2 15.1,571.2 95.1,454.1 132.8,532.2 263.2,355.2 388.7,547.2 445.9,517.2 514,351.2 
			564.1,486.6 564.1,810.2 0.1,810.2 		"/>
	</g>
	<g id="Слой_30">
		<polygon class="st2" points="0.1,621.2 68.1,558.5 141.1,660.2 194.1,532.2 352.5,471.8 393.1,592.2 504.1,621.2 564.1,701.2 
			564.1,810.2 0.1,810.2 		"/>
	</g>
	<g id="Слой_29">
		<polygon class="st3" points="0.1,702.9 146.1,746.9 304.8,664.2 389.1,758.2 459.5,692.9 496.1,762.9 564.1,756.9 564.1,810.2 
			0.1,810.2 		"/>
	</g>
	<g id="Слой_32">
		<linearGradient id="SVGID_1_" gradientUnits="userSpaceOnUse" x1="282.1358" y1="808.7083" x2="282.1358" y2="1.7083">
			<stop  offset="0" style="stop-color:#000000;stop-opacity:0"/>
			<stop  offset="1.206560e-02" style="stop-color:#030203;stop-opacity:3.426763e-02"/>
			<stop  offset="0.1025" style="stop-color:#111114;stop-opacity:0.291"/>
			<stop  offset="0.2014" style="stop-color:#1A191E;stop-opacity:0.5719"/>
			<stop  offset="0.3239" style="stop-color:#1D1C21;stop-opacity:0.92"/>
			<stop  offset="0.594" style="stop-color:#1D1C1F;stop-opacity:0.7418"/>
			<stop  offset="1" style="stop-color:#000000;stop-opacity:0.62"/>
		</linearGradient>
		<rect x="0.1" y="1.7" class="st4" width="564" height="807"/>
	</g>
	<g id="иконка_xA0_Изображение_1_">
		<g class="st5">
			<g>
				<circle class="st6" cx="105.3" cy="294.8" r="9.4"/>
				<circle class="st6" cx="104.5" cy="225.4" r="9.4"/>
				<circle class="st6" cx="132.8" cy="185.8" r="8.3"/>
				<circle class="st6" cx="166.8" cy="156.3" r="9.8"/>
				<circle class="st6" cx="213.5" cy="136" r="13.6"/>
				<circle class="st6" cx="135.5" cy="223.1" r="11"/>
				<circle class="st6" cx="200.8" cy="200.8" r="23.4"/>
				<circle class="st6" cx="146.8" cy="297.8" r="19.2"/>
				<path class="st6" d="M445.9,341.6c0-7.3-1-67.3-40.7-107.5c-15.3-15.4-35.1-26.9-37-27.9c-7.6-4.4-30.4-17.3-45.2-18.9
					c0,0-13.1-1.4-21.9-6c-0.1,0-0.7-0.3-1.5-0.7c-1.5-0.7-2.9-1.2-3.8-1.5c-0.5-0.3-1.3-0.9-2.3-1.5c-1.9-1.2-2.3-1.3-3.8-2.3
					c-1.6-1-2.7-1.8-3.8-3c-0.9-1-1.3-2-1.5-2.3c-1.8-3.5-7.9-11.5-10.6-14.3c-4.5-4.8-12-8.8-20.4-9.1
					c-13.6-0.4-22.3,9.3-23.4,10.6c-0.6,0.6-7.6,9-7.5,20.4c0,4,0.9,7.4,1.2,8.7c1.3,4.8,3.3,8.5,4.8,10.9c0.5,2.7,1,7.8-0.7,13.6
					c-2.7,8.9-9.9,16.4-18.1,18.9c-5.5,1.6-13.8,1.5-19.6,0.7c-1.5-0.2-3.2-0.5-6-0.7c-4.7-0.4-9.3-0.8-12.8,0
					c-8.7,2-13.2,12.4-14.3,15.1c-0.6,1.5-5.8,14,0,23.4c0.4,0.7,0.2,0.3,3,3.8c6,7.5,9,11.3,10.6,14.3c4.5,8.7,3.3,17.5,3,19.6
					c-0.5,3.5-1.4,9.1-6,13.6c-3.6,3.5-7.8,4.6-10.6,5.3c-7,1.8-14.5,0.7-17.3,0c-0.5-0.1-2.2-0.5-4.5-0.7c0,0-2.2-0.2-4.5,0
					c-2.3,0.2-9.1,0.7-14.3,3.8c-7.9,4.7-12.9,15.4-11.3,24.9c1.1,6.7,5.2,11.5,7.5,14.3c0.2,0.3,1,1.1,2.2,2.4
					c2.3,2.5,2.9,3.4,4.6,5.2c1.9,2.1,2.2,2.2,3.8,3.8c1.4,1.5,3.3,3.7,5.3,6.8c1,3.2,2.7,7.9,5,13.4c4.8,11.3,26.3,62.7,81,89.2
					c6.1,3,33,15.5,70.2,15.5c14.2,0,64-0.8,107.1-38.1C444.9,418.8,445.9,353.3,445.9,341.6z"/>
			</g>
			<g class="st7">
				
					<image style="overflow:visible;enable-background:new    ;" width="758" height="791" xlink:href="8AB1A424.png"  transform="matrix(0.4955 0 0 0.4955 138.4201 166.5487)">
				</image>
			</g>
			<g class="st8">
				
					<image style="overflow:visible;enable-background:new    ;" width="363" height="249" xlink:href="8AB1A42C.png"  transform="matrix(0.4955 0 0 0.4955 283.6052 408.8541)">
				</image>
			</g>
			<g>
				<path class="st9" d="M306.7,472c1.1-1.4,2.1-2.9,3-4.2c0.5-0.8,1.8-2.9,3.9-6.4l2.4-4c1.8-3,3-4.9,3.6-5.6
					c1-1.4,1.9-2.1,2.9-2.1c0.7,0,1,0.2,1,0.8c0,0.3-0.1,0.8-0.4,1.4c-0.2,0.4-0.7,1.7-1.6,4c-0.9,2.3-1.6,4.9-2,7.8
					c-0.3,2-0.5,3.8-0.5,5.2c0,0.4,0,0.9,0,1.4c0,0.5,0.1,1.1,0.2,1.7c0.7-0.9,1.6-2.3,2.5-4.1c0.9-1.8,2.2-4.7,4.1-8.6
					c1.7-3.8,3.8-7.6,6.1-11.7c1.9-3.3,4.2-6.7,6.9-10.1c1.2-1.6,2.2-2.4,3-2.4c0.3,0,0.6,0.1,0.9,0.5c0.2,0.2,0.3,0.5,0.3,0.8
					c0,0.4-0.6,1.3-1.8,2.8c-2.3,3-4.6,6.2-6.7,9.9c-2.4,4.2-5.5,10.1-9.1,17.8c-1.6,3.5-2.9,5.9-3.7,7.3c-0.9,1.5-1.9,2.2-3.1,2.2
					c-1,0-1.7-0.4-2.2-1.3c-0.5-0.9-0.7-2.2-0.7-3.9c0-2.8,0.4-6.2,1.4-10.3c-0.9,1.1-1.9,2.7-3.2,4.8c-0.9,1.5-1.8,3-2.6,4.4
					c-1.2,2-2,3.4-2.4,4.1c-0.6,1.1-1.2,1.9-1.9,2.6c-0.5,0.4-1,0.7-1.7,0.7c-0.8,0-1.3-0.3-1.7-1c-0.2-0.4-0.4-1-0.4-1.7
					c0-4.6,2.4-12.7,7.2-24.5c2.3-5.7,3.7-9.3,4.1-10.6s0.7-2.1,1-2.4c0.4-0.5,1-0.7,1.6-0.7c0.8,0,1.3,0.4,1.3,1.2
					c0,1-0.3,2.5-1.1,4.5c-0.8,2.3-2.1,5.5-4,9.6c-1.2,2.9-2.1,5-2.6,6.4C308.3,465.1,307,469.8,306.7,472z"/>
				<path class="st9" d="M340,454.6c1.6,0,2.4,0.9,2.4,2.9c0,2.5-1.2,5.8-3.5,9.7c-2.6,4.2-5.1,6.3-7.4,6.3c-1.1,0-1.9-0.5-2.4-1.5
					c-0.2-0.5-0.4-1.1-0.4-1.9c0-2.4,0.8-5.1,2.5-8c1.6-2.7,3.4-4.7,5.5-6.2C337.9,455,339,454.6,340,454.6z M337,465.4
					c-0.5-0.4-0.7-0.7-0.7-0.9c0-0.1,0.3-0.6,0.9-1.3c1.7-1.9,2.6-3.5,2.6-4.7c0-0.1,0-0.3-0.1-0.4c-0.1-0.3-0.4-0.4-0.7-0.4
					c-0.6,0-1.5,0.6-2.7,1.8c-1.5,1.5-2.7,3.1-3.5,4.8c-0.9,1.9-1.4,3.4-1.4,4.6c0,0.3,0.1,0.6,0.2,0.8c0.2,0.3,0.5,0.5,0.9,0.5
					c0.9,0,1.9-0.7,3-2.1c0.4-0.6,0.8-1.2,1.1-1.8C336.9,465.8,337,465.4,337,465.4z"/>
				<path class="st9" d="M343.9,463.7c1.9-2,4.1-4,6.5-5.9c0.9-0.7,1.8-1.3,2.8-1.9c0.5-0.3,0.8-0.4,0.9-0.4c0.3,0,0.6,0.2,0.8,0.6
					c0.1,0.2,0.2,0.4,0.2,0.6c0,0.3-0.3,0.8-1.1,1.4c-1.9,1.5-2.9,2.7-2.9,3.5c0,0.4,0.2,0.6,0.7,0.6c0.8,0,2.2-0.7,4.3-2
					c0.3-0.2,0.6-0.3,0.8-0.3c0.1,0,0.3,0.1,0.4,0.2c0.1,0.1,0.2,0.3,0.2,0.5c0,0.6-0.8,1.4-2.4,2.6c-1.7,1.3-3.3,1.9-4.8,1.9
					c-0.6,0-1.2-0.1-1.7-0.5c-0.4-0.2-0.6-0.7-0.6-1.4c0-0.5,0.2-1,0.6-1.6c-1.5,1.1-3.3,2.9-5.4,5.5c-1.2,1.6-2.4,3.6-3.5,5.9
					c-0.4,0.9-1,1.3-1.6,1.3c-0.7,0-1-0.3-1-1c0-0.6,0.5-2.4,1.7-5.3c1.6-4.2,3.4-7.5,5.2-9.8c1.1-1.4,2-2.1,2.8-2.1
					c0.2,0,0.5,0.1,0.7,0.2c0.2,0.2,0.4,0.4,0.4,0.7s-0.2,0.7-0.6,1.2c-0.1,0.1-0.6,0.7-1.5,1.9
					C344.9,461.4,344.3,462.6,343.9,463.7z"/>
				<path class="st9" d="M364.2,456.3c1.9-4,3.7-7.5,5.5-10.5c1.6-2.9,2.8-4.7,3.4-5.5c0.6-0.8,1.3-1.2,1.8-1.2
					c0.3,0,0.6,0.1,0.8,0.4c0.2,0.2,0.3,0.5,0.3,0.8c0,0.4-0.3,1.2-1,2.2c-2.8,4.5-5.3,9-7.6,13.6c-2.7,5.4-4,9.4-4,12.1
					c0,1.1,0.2,1.9,0.6,2.6c0.1,0.1,0.4,0.4,1,0.9c0.1,0.1,0.1,0.3,0.1,0.6c0,0.4-0.1,0.7-0.4,1c-0.3,0.3-0.6,0.5-1,0.5
					c-0.4,0-0.9-0.2-1.5-0.8c-0.7-0.7-1.2-1.6-1.4-2.6c0-0.4-0.1-1.2-0.2-2.4c-2,3.6-3.9,5.5-5.7,5.5c-1,0-1.9-0.6-2.5-1.8
					c-0.4-0.8-0.6-1.7-0.6-2.7c0-3,1.1-6,3.3-9c2.2-3,4.5-4.5,7-4.5C362.8,455.6,363.5,455.9,364.2,456.3z M363.2,458.7
					c-0.5-0.3-1-0.5-1.3-0.5c-1.6,0-3.1,1-4.6,3c-1.9,2.6-2.8,5.1-2.8,7.4c0,0.3,0,0.5,0.1,0.8c0.2,0.5,0.6,0.7,1,0.7
					c0.7,0,1.5-0.6,2.4-1.9c1.3-1.7,2.5-3.8,3.6-6.1c0.4-0.8,0.7-1.6,1.1-2.4l0.2-0.5L363.2,458.7z"/>
				<path class="st9" d="M378,451.9l1.1-0.2c4.2-0.8,7.2-1.2,8.9-1.2c1.2,0,1.8,0.5,1.8,1.5c0,0.6-0.2,1-0.7,1.2
					c-0.3,0.1-0.9,0.2-1.7,0.3c-5,0.3-8.7,0.9-11.3,1.7c-1,1.5-2.5,4.4-4.5,8.5c-1.1,2.4-2,4.7-2.6,6.7c0.4-0.1,0.9-0.3,1.3-0.4
					c2.8-0.9,4.9-1.6,6.2-1.9c1.8-0.3,3.5-0.5,5-0.5c1,0,1.8,0.1,2.3,0.4c0.4,0.2,0.6,0.6,0.6,1.2c0,0.6-0.2,1-0.8,1.2
					c-0.2,0.1-0.8,0.1-1.8,0.1c-5.1,0.2-9.6,1.5-13.6,3.7c-0.5,0.3-0.9,0.4-1.3,0.4c-0.5,0-1-0.3-1.4-0.8c-0.3-0.4-0.5-0.9-0.5-1.4
					c0-0.5,0.6-2.2,1.8-5.3c1.8-4.6,4.3-9.7,7.4-15.2c0.9-1.7,2.7-4.5,5.4-8.4c0.6-0.9,1.2-1.8,1.7-2.7c-0.7-0.2-1.1-0.7-1.1-1.5
					c0-0.6,0.3-1,0.9-1.3c1-0.4,2.9-0.9,5.7-1.3c4.2-0.6,7.8-1,10.8-1c1.7,0,2.5,0.4,2.5,1.3c0,0.6-0.3,1.1-0.8,1.5
					c-0.3,0.2-0.7,0.3-1.4,0.3c0,0-0.2,0-0.6,0c-0.3,0-0.6,0-0.9,0c-1.4,0-3.4,0.1-6,0.4c-2.3,0.2-4.2,0.6-5.8,1.1
					c0.2,0.3,0.3,0.5,0.3,0.7c0,0.3-0.4,1.1-1.3,2.2l-1.4,2.1C380.1,448.2,378.8,450.4,378,451.9z"/>
				<path class="st9" d="M388.7,463.3c0.2-0.2,0.5-0.4,0.7-0.7c4-3.9,6.7-5.8,8-5.8c0.7,0,1.1,0.4,1.1,1.2c0,0.6-0.3,1.2-1,2
					c-3.7,4.3-5.5,8-5.5,11.3c0,1,0.3,2.1,0.8,3c0.2,0.4,0.4,0.8,0.4,1c0,0.2-0.1,0.4-0.3,0.6c-0.2,0.2-0.5,0.4-0.9,0.4
					c-0.8,0-1.4-0.5-2-1.5c-0.5-0.9-0.8-2.1-0.8-3.4c0-2.6,1-5.5,2.9-8.6c-2.6,1.7-5,4.6-7.3,8.9c-0.6,1-1.2,1.5-1.8,1.5
					c-0.3,0-0.6-0.1-0.8-0.3c-0.2-0.2-0.4-0.6-0.4-1c0-1,1.2-3.8,3.5-8.1c1.3-2.4,2.3-4.1,3-5.2c0.7-1,1.3-1.6,1.9-1.6
					c0.2,0,0.5,0.1,0.7,0.3c0.2,0.2,0.4,0.6,0.4,0.9c0,0.4-0.3,1-0.8,1.8C389.8,461.2,389.1,462.3,388.7,463.3z"/>
				<path class="st9" d="M403.1,470.6c2-1.5,3.6-2.9,4.6-4.1c1.5-1.8,2.5-3.2,3.1-4.4c0.3-0.5,0.6-0.7,0.9-0.7
					c0.4,0,0.7,0.2,0.7,0.6c0,0.5-0.3,1.4-1.1,2.6c-2.3,3.7-5.6,6.9-10.2,9.6c-2.1,4.4-3.7,7.4-4.7,9c-2.6,4.1-5.2,6.2-7.5,6.2
					c-1.2,0-2.1-0.5-2.6-1.4c-0.3-0.5-0.4-1.2-0.4-1.9c0-3,1.9-5.9,5.8-8.7c0.6-0.4,3.1-1.9,7.4-4.3c0.8-1.8,1.5-3.2,1.9-4.2
					c-2,2.1-3.7,3.2-5,3.2c-0.8,0-1.5-0.4-1.9-1.3c-0.3-0.5-0.4-1.1-0.4-1.7c0-1.4,0.5-3.2,1.7-5.3c1.6-3.1,3.6-5.6,5.8-7.4
					c1.9-1.5,3.6-2.3,5-2.3c0.7,0,1.4,0.3,1.9,0.8c0.3,0.3,0.5,0.9,0.5,1.6c0,0.9-0.3,2-0.9,3.3c0.4,0.4,0.6,0.7,0.6,0.9
					c0,0.1-0.1,0.3-0.3,0.6c-0.5,0.7-1.3,2-2.5,4C404.8,467.1,403.9,468.9,403.1,470.6z M397.5,476.5c-2.5,1.1-4.8,2.7-6.7,4.9
					c-0.9,1-1.5,2.1-1.9,3.2c-0.1,0.3-0.1,0.6-0.1,0.8c0,0.2,0,0.4,0.1,0.6c0.2,0.3,0.5,0.5,0.9,0.5c1.2,0,2.6-1.3,4.2-3.8
					C395.3,480.7,396.5,478.6,397.5,476.5z M402.9,464c-0.2-0.3-0.4-0.5-0.4-0.6c0-0.1,0.1-0.4,0.4-0.6c0.9-0.9,1.7-1.9,2.3-2.9
					c0.5-0.8,0.7-1.4,0.7-1.8c0-0.5-0.2-0.8-0.7-0.8c-0.8,0-2,0.8-3.5,2.4c-1.8,1.9-3.2,3.9-4.3,6.2c-0.5,1.1-0.7,2-0.7,2.6
					c0,0.3,0.1,0.6,0.2,0.8c0.1,0.1,0.4,0.2,0.6,0.2c0.7,0,1.6-0.7,2.8-2.1c0.7-0.9,1.4-1.7,1.9-2.6
					C402.8,464.3,402.9,464,402.9,464z"/>
			</g>
			<g>
				<path class="st10" d="M181.5,414.2c5.5-7.2,10.5-14.2,14.8-20.9c2.5-3.9,9-14.6,19.6-32.1l12.2-19.9c9-14.7,15-24.1,17.9-28.2
					c4.9-7,9.7-10.5,14.5-10.5c3.4,0,5.2,1.3,5.2,4c0,1.8-0.7,4.1-2,6.9c-0.9,1.9-3.6,8.6-8,19.9c-4.4,11.5-7.8,24.5-10.2,38.7
					c-1.7,10.1-2.6,18.8-2.6,25.9c0,2.1,0.1,4.4,0.3,6.9s0.6,5.3,1.1,8.4c3.8-4.8,8-11.6,12.6-20.6c4.4-9,11.2-23.2,20.4-42.9
					c8.7-18.7,18.9-38.2,30.5-58.3c9.6-16.6,21-33.4,34.2-50.4c6.2-8,11.2-12,14.9-12c1.6,0,3.1,0.8,4.5,2.4
					c0.9,1.1,1.4,2.4,1.4,3.9c0,1.9-3,6.6-8.9,14.2c-11.6,14.8-22.8,31.2-33.4,49.2c-12.1,20.8-27.3,50.4-45.6,88.8
					c-8.1,17.2-14.3,29.4-18.6,36.7c-4.5,7.4-9.7,11.2-15.5,11.2c-5,0-8.7-2.2-11.2-6.5c-2.5-4.4-3.7-10.8-3.7-19.4
					c0-13.8,2.3-31,6.9-51.4c-4.5,5.6-9.8,13.6-15.8,23.9c-4.5,7.6-8.8,15-13,22.1c-6.1,10.2-10.2,17.1-12.2,20.6
					c-3.1,5.5-6.2,9.8-9.5,12.9c-2.4,2.3-5.2,3.4-8.5,3.4c-3.9,0-6.7-1.7-8.5-5c-1.2-2.3-1.9-5.1-1.9-8.5
					c0-22.7,11.9-63.5,35.8-122.2c11.6-28.7,18.4-46.4,20.4-52.9c1.7-6.3,3.4-10.3,5.2-12c2.3-2.5,5-3.7,8-3.7c4.2,0,6.3,2,6.3,6
					c0,4.9-1.8,12.3-5.5,22.2c-4.1,11.2-10.7,27.2-19.8,47.9c-6.2,14.2-10.6,24.9-13.2,32C189.2,379.8,182.7,403,181.5,414.2z"/>
				<path class="st10" d="M356.8,313.6l5.7-1c21.1-4,35.8-6,44.2-6c6,0,9,2.4,9,7.3c0,3.1-1.2,5.1-3.6,6.1c-1.6,0.7-4.4,1.2-8.3,1.4
					c-24.7,1.5-43.6,4.5-56.4,8.7c-5.1,7.5-12.5,21.7-22.2,42.3c-5.6,12-10,23.2-13.2,33.4c2.2-0.7,4.4-1.5,6.4-2.3
					c14.1-4.8,24.5-7.9,31.2-9.3c8.9-1.7,17.2-2.6,25.1-2.6c5.2,0,9,0.6,11.4,1.9c2.2,1,3.3,3.1,3.3,6c0,3-1.3,4.9-4,5.9
					c-1.2,0.4-4.2,0.6-8.9,0.7c-25.3,1.3-47.9,7.5-67.6,18.6c-2.6,1.4-4.8,2.1-6.6,2.1c-2.7,0-5.1-1.4-7.2-4.2
					c-1.8-2.3-2.7-4.6-2.7-7c0-2.4,3-11.2,9-26.4c9.1-23,21.5-48.2,37.1-75.7c4.7-8.3,13.6-22.3,26.7-42c3-4.6,5.8-9.1,8.6-13.5
					c-3.8-0.9-5.7-3.5-5.7-7.6c0-3.1,1.5-5.3,4.6-6.7c5-2.3,14.5-4.6,28.6-6.7c21.1-3.3,39-4.9,53.7-4.9c8.3,0,12.5,2.2,12.5,6.6
					c0,3.1-1.4,5.6-4.3,7.7c-1.4,1-3.7,1.6-6.9,1.6c-0.2,0-1.3,0-3.3-0.1c-1.4,0-3,0-4.7,0c-6.9,0-16.8,0.7-29.8,2.1
					c-11.3,1.2-21,3.1-29.1,5.5c0.9,1.4,1.4,2.6,1.4,3.4c0,1.6-2.2,5.4-6.7,11.2l-6.9,10.6C367.5,295.4,360.7,306.3,356.8,313.6z"/>
			</g>
		</g>
	</g>
</g>
<g id="Create_by_1_" class="st11">
	<g id="Create_by" class="st12">
		<g>
			<path class="st13" d="M253.6,773.2c1.1,0,2,0.3,2.8,1c0.8,0.7,1.3,1.5,1.4,2.6h0.7c-0.1-1.2-0.7-2.2-1.6-3
				c-0.9-0.8-2-1.2-3.3-1.2c-1.7,0-3,0.6-4,1.7c-1,1.2-1.5,2.7-1.5,4.7c0,2,0.5,3.6,1.5,4.8c1,1.2,2.3,1.8,4,1.8
				c1.3,0,2.4-0.4,3.4-1.1c0.9-0.7,1.4-1.7,1.6-2.9h-0.7c-0.1,1-0.6,1.8-1.4,2.4c-0.8,0.6-1.7,0.9-2.9,0.9c-1.5,0-2.6-0.5-3.5-1.6
				c-0.9-1.1-1.3-2.5-1.3-4.3c0-1.8,0.4-3.2,1.3-4.2C250.9,773.7,252.1,773.2,253.6,773.2z M260.7,777.8L260.7,777.8l0-1.9H260v9.5
				h0.7v-5.9c0-0.9,0.2-1.6,0.6-2.2c0.4-0.6,1-0.9,1.7-0.9c0.4,0,0.7,0.1,1,0.2v-0.7c-0.3-0.1-0.5-0.2-0.9-0.2
				C261.9,775.8,261.1,776.4,260.7,777.8z M268.3,775.8c-1.2,0-2.2,0.4-3,1.3c-0.8,0.9-1.1,2.1-1.1,3.5c0,1.5,0.4,2.7,1.1,3.6
				c0.7,0.9,1.8,1.3,3,1.3c1,0,1.9-0.3,2.6-0.8c0.7-0.5,1.1-1.2,1.2-2h-0.7c-0.1,0.6-0.5,1.2-1,1.5c-0.6,0.4-1.3,0.6-2.1,0.6
				c-1.1,0-1.9-0.4-2.5-1.1c-0.6-0.7-1-1.7-1-3v0h7.4v-0.4c0-1.4-0.4-2.5-1.1-3.3C270.5,776.2,269.5,775.8,268.3,775.8z
				 M264.9,780.2c0.1-1.1,0.4-2,1-2.7c0.6-0.7,1.4-1,2.4-1c1,0,1.8,0.3,2.4,1c0.6,0.7,0.9,1.6,0.9,2.7H264.9z M277.5,775.8
				c-1,0-1.8,0.3-2.4,0.8c-0.6,0.5-1,1.2-1.1,2.1h0.7c0.1-0.7,0.4-1.3,0.9-1.7c0.5-0.4,1.2-0.6,1.9-0.6c0.8,0,1.5,0.2,2,0.7
				c0.5,0.5,0.7,1.1,0.7,1.9v0.8l-3.2,0.2c-2.2,0.2-3.3,1.1-3.3,2.7c0,0.8,0.3,1.4,0.9,1.9c0.6,0.5,1.3,0.7,2.2,0.7
				c0.8,0,1.5-0.2,2.1-0.6c0.6-0.4,1.1-0.9,1.3-1.6h0v2h0.7V779c0-1-0.3-1.8-0.9-2.3C279.4,776.1,278.6,775.8,277.5,775.8z
				 M280.2,781.9c0,0.8-0.3,1.6-1,2.1c-0.7,0.6-1.5,0.9-2.4,0.9c-0.7,0-1.3-0.2-1.8-0.6c-0.5-0.4-0.7-0.9-0.7-1.5
				c0-1.3,0.9-2,2.8-2.1l3.1-0.2V781.9z M284.4,784.4c-0.2-0.2-0.3-0.7-0.3-1.2v-6.7h1.9v-0.6h-1.9v-2.4h-0.7v2.4H282v0.6h1.4v6.7
				c0,0.8,0.2,1.3,0.5,1.7c0.3,0.3,0.8,0.5,1.5,0.5c0.5,0,0.7,0,0.8,0v-0.6c0,0-0.3,0-0.7,0C285,784.8,284.6,784.7,284.4,784.4z
				 M290.9,775.8c-1.2,0-2.2,0.4-3,1.3c-0.8,0.9-1.1,2.1-1.1,3.5c0,1.5,0.4,2.7,1.1,3.6c0.7,0.9,1.8,1.3,3,1.3c1,0,1.9-0.3,2.6-0.8
				c0.7-0.5,1.1-1.2,1.2-2h-0.7c-0.1,0.6-0.5,1.2-1,1.5c-0.6,0.4-1.3,0.6-2.1,0.6c-1.1,0-1.9-0.4-2.5-1.1c-0.6-0.7-1-1.7-1-3v0h7.4
				v-0.4c0-1.4-0.4-2.5-1.1-3.3C293.1,776.2,292.1,775.8,290.9,775.8z M287.5,780.2c0.1-1.1,0.4-2,1-2.7c0.6-0.7,1.4-1,2.4-1
				c1,0,1.8,0.3,2.4,1c0.6,0.7,0.9,1.6,0.9,2.7H287.5z M304.4,775.8c-0.8,0-1.6,0.2-2.2,0.7c-0.6,0.5-1.1,1.1-1.3,1.9h0v-6.3h-0.7
				v13.2h0.7v-2.5h0c0.2,0.8,0.7,1.5,1.3,1.9c0.6,0.5,1.4,0.7,2.2,0.7c1.2,0,2.1-0.4,2.8-1.3c0.7-0.9,1.1-2.1,1.1-3.5
				s-0.4-2.6-1.1-3.5C306.5,776.2,305.5,775.8,304.4,775.8z M306.7,783.7c-0.6,0.8-1.4,1.2-2.4,1.2c-1,0-1.8-0.4-2.5-1.2
				c-0.6-0.8-1-1.8-1-3c0-1.2,0.3-2.3,1-3c0.6-0.8,1.5-1.2,2.5-1.2c1,0,1.8,0.4,2.4,1.2c0.6,0.8,0.9,1.8,0.9,3.1
				C307.6,781.9,307.3,782.9,306.7,783.7z M316,775.9l-3.2,8.8h0l-3.2-8.8h-0.7l3.6,9.6l-0.2,0.6c-0.2,0.6-0.5,1.1-0.7,1.3
				c-0.3,0.3-0.6,0.4-1,0.4c-0.2,0-0.3,0-0.5-0.1v0.6c0.2,0.1,0.3,0.1,0.5,0.1c0.7,0,1.2-0.2,1.5-0.6c0.4-0.4,0.7-1.1,1.2-2.3
				l3.6-9.8H316z"/>
		</g>
	</g>
</g>
<g id="Слой_8_xA0_Изображение_1_" class="st14">
	<g class="st12">
		
			<image style="overflow:visible;" width="223" height="69" id="Слой_8_xA0_Изображение_2_" xlink:href="8AB1A42D.png"  transform="matrix(1 0 0 1 31.1358 671.2083)">
		</image>
	</g>
</g>
<g id="next_1_" class="st11">
	<g id="next" class="st12">
		<g>
			<path class="st15" d="M105.5,715h4.1v-7.8h8V704h-8v-5.3h8.8v-3.4h-12.9V715z M122.6,694.2c-0.6,0-1.1,0.2-1.5,0.6
				c-0.4,0.4-0.6,0.9-0.6,1.5c0,0.6,0.2,1.1,0.6,1.5c0.4,0.4,0.9,0.6,1.5,0.6c0.6,0,1.1-0.2,1.5-0.6c0.4-0.4,0.6-0.9,0.6-1.5
				c0-0.6-0.2-1.1-0.6-1.5C123.7,694.4,123.2,694.2,122.6,694.2z M120.6,715h4v-15h-4V715z M136.1,699.8c-2.3,0-4,1-4.8,2.9h-0.1
				V700h-3.9v15h4v-8.6c0-1,0.3-1.8,0.9-2.4c0.6-0.6,1.4-0.9,2.3-0.9c0.9,0,1.7,0.3,2.2,0.8c0.5,0.5,0.8,1.3,0.8,2.3v8.8h4v-9.7
				c0-1.8-0.5-3.1-1.4-4.1C139.1,700.3,137.8,699.8,136.1,699.8z M144.2,715h4v-15h-4V715z M146.2,694.2c-0.6,0-1.1,0.2-1.5,0.6
				c-0.4,0.4-0.6,0.9-0.6,1.5c0,0.6,0.2,1.1,0.6,1.5c0.4,0.4,0.9,0.6,1.5,0.6c0.6,0,1.1-0.2,1.5-0.6c0.4-0.4,0.6-0.9,0.6-1.5
				c0-0.6-0.2-1.1-0.6-1.5C147.3,694.4,146.8,694.2,146.2,694.2z M159.4,706.3l-2.8-0.6c-1.3-0.3-2-0.8-2-1.6c0-0.5,0.2-0.9,0.7-1.2
				c0.4-0.3,1-0.4,1.7-0.4c0.8,0,1.4,0.2,1.8,0.5c0.5,0.4,0.7,0.8,0.8,1.4h3.7c0-1.4-0.6-2.6-1.8-3.5c-1.1-0.9-2.6-1.3-4.5-1.3
				c-1.9,0-3.4,0.4-4.6,1.3c-1.1,0.9-1.7,2-1.7,3.4c0,2.2,1.4,3.7,4.3,4.3l2.8,0.6c0.7,0.2,1.2,0.4,1.5,0.6c0.3,0.2,0.4,0.5,0.4,0.9
				c0,0.5-0.2,0.9-0.7,1.2c-0.5,0.3-1.1,0.4-1.9,0.4c-1.7,0-2.7-0.7-2.9-2h-3.9c0.1,1.5,0.7,2.6,1.9,3.5c1.2,0.9,2.8,1.3,4.7,1.3
				c2,0,3.6-0.4,4.8-1.3c1.2-0.9,1.8-2.1,1.8-3.5c0-1.1-0.3-2-1-2.6C162,707.2,160.9,706.7,159.4,706.3z M178.7,701.3
				c-1-1-2.3-1.5-4-1.5c-2.4,0-4,1-4.9,2.9h-0.1v-8.3h-3.9V715h4v-8.5c0-1,0.3-1.8,0.9-2.5c0.6-0.6,1.4-0.9,2.4-0.9
				c0.9,0,1.7,0.3,2.2,0.8c0.5,0.6,0.8,1.3,0.8,2.3v8.8h4v-9.6C180.1,703.7,179.6,702.3,178.7,701.3z"/>
		</g>
	</g>
</g>
<g id="Not_true_x21__1_" class="st11">
	<g id="Not_true_x21_" class="st12">
		<g>
			<path class="st16" d="M178.9,534.2h-0.2l-23.1-32.9h-3.7v39.5h3.7v-33h0.2l23.2,33h3.6v-39.5h-3.7V534.2z M206.3,500.7
				c-5.5,0-9.8,1.8-13.1,5.5c-3.2,3.7-4.8,8.6-4.8,14.9c0,6.3,1.6,11.2,4.8,14.8c3.2,3.7,7.6,5.5,13.1,5.5c5.5,0,9.9-1.8,13.1-5.5
				c3.2-3.6,4.8-8.6,4.8-14.8c0-6.3-1.6-11.2-4.8-14.9C216.2,502.5,211.8,500.7,206.3,500.7z M216.6,533.3c-2.6,3-6,4.6-10.3,4.6
				c-4.3,0-7.7-1.5-10.3-4.6c-2.5-3-3.8-7.1-3.8-12.3c0-5.2,1.3-9.3,3.8-12.3c2.5-3,6-4.6,10.3-4.6c4.3,0,7.8,1.5,10.3,4.6
				c2.5,3,3.8,7.2,3.8,12.3C220.4,526.2,219.2,530.3,216.6,533.3z M224.8,504.7H238v36.1h3.7v-36.1h13.2v-3.4h-30.2V504.7z
				 M269.4,504.7h13.2v36.1h3.7v-36.1h13.2v-3.4h-30.2V504.7z M328.8,520c1.5-2,2.2-4.4,2.2-7.2c0-3.5-1.1-6.3-3.4-8.4
				c-2.3-2.1-5.4-3.1-9.2-3.1h-14.1v39.5h3.7v-16.2h10.7l9.1,16.2h4.3l-9.5-16.8C325.2,523.3,327.3,522,328.8,520z M318.1,521.3H308
				v-16.7h10c2.9,0,5.1,0.7,6.8,2.2c1.6,1.5,2.5,3.5,2.5,6.1c0,2.6-0.8,4.7-2.4,6.2C323.2,520.5,321,521.3,318.1,521.3z
				 M363.9,526.7c0,3.4-1,6-3.1,8.1c-2.1,2.1-4.9,3.1-8.5,3.1c-3.6,0-6.4-1-8.5-3.1c-2-2-3.1-4.7-3.1-8.1v-25.5h-3.7V527
				c0,4.3,1.4,7.8,4.1,10.4c2.8,2.7,6.5,4,11.2,4c4.7,0,8.4-1.3,11.2-4c2.7-2.6,4.1-6.1,4.1-10.4v-25.7h-3.7V526.7z M375,540.7h23.8
				v-3.4h-20.1v-15.1h19.1v-3.3h-19.1v-14.2h20.1v-3.4H375V540.7z M410.4,528.3l0.2-27h-3.8l0.2,27H410.4z M410.6,536.6
				c-0.5-0.5-1.1-0.7-1.9-0.7c-0.7,0-1.3,0.2-1.8,0.7c-0.5,0.5-0.8,1.1-0.8,1.9c0,0.7,0.3,1.3,0.8,1.8c0.5,0.5,1.1,0.8,1.8,0.8
				c0.7,0,1.3-0.3,1.9-0.8c0.5-0.5,0.8-1.1,0.8-1.8C411.4,537.7,411.1,537.1,410.6,536.6z"/>
		</g>
	</g>
</g>
<g id="Слой_8_копия_xA0_Изображение_1_" class="st14">
	<g class="st12">
		
			<image style="overflow:visible;" width="223" height="69" id="Слой_8_копия_xA0_Изображение_2_" xlink:href="8AB1A42A.png"  transform="matrix(1 0 0 1 312.1358 671.2083)">
		</image>
	</g>
</g>
<g id="Слой_9_копия_3_xA0_Изображение_1_" class="st17">
	<g class="st12">
		
			<image style="overflow:visible;" width="504" height="59" id="Слой_9_копия_3_xA0_Изображение_2_" xlink:href="8AB1A42B.png"  transform="matrix(1 0 0 1 31.1358 411.2083)">
		</image>
	</g>
</g>
<g id="Слой_9_копия_4_xA0_Изображение_1_" class="st17">
	<g class="st12">
		
			<image style="overflow:visible;" width="7" height="59" id="Слой_9_копия_4_xA0_Изображение_2_" xlink:href="8AB1A438.png"  transform="matrix(1 0 0 1 31.1358 411.2083)">
		</image>
	</g>
</g>
<g id="Слой_9_копия_5_xA0_Изображение_1_" class="st17">
	<g class="st12">
		
			<image style="overflow:visible;" width="3" height="52" id="Слой_9_копия_5_xA0_Изображение_2_" xlink:href="8AB1A439.png"  transform="matrix(1 0 0 1 172.1358 415.2083)">
		</image>
	</g>
</g>
<g id="Рыба_1_" class="st11">
	<g id="Рыба" class="st12">
		<g>
			<path class="st18" d="M62.1,418.4h-14v39.5h3.7v-14.9H62c3.8,0,6.8-1.1,9.2-3.4c2.4-2.3,3.5-5.2,3.5-8.9s-1.2-6.6-3.5-8.9
				C68.9,419.5,65.8,418.4,62.1,418.4z M68.3,437.2c-1.7,1.6-4.1,2.4-7.1,2.4h-9.4v-17.9h9.4c3,0,5.4,0.8,7.1,2.4
				c1.7,1.6,2.6,3.8,2.6,6.6C70.9,433.4,70,435.6,68.3,437.2z M90.5,438.4h-6.4v-10h-3.6v29.4h10c3.2,0,5.8-0.9,7.8-2.6
				c2-1.8,2.9-4.1,2.9-7.1c0-3-1-5.3-2.9-7.1C96.3,439.3,93.7,438.4,90.5,438.4z M95.6,453c-1.3,1.2-3,1.8-5.2,1.8h-6.4v-13.3h6.4
				c2.2,0,3.9,0.6,5.1,1.8c1.3,1.2,1.9,2.8,1.9,4.9C97.5,450.1,96.9,451.7,95.6,453z M105.5,457.8h3.6v-29.4h-3.6V457.8z M129,428.8
				c-5.2,0-8.7,2.1-10.7,6.2h-0.2c0.6-5.4,1.8-9.1,3.4-11.2c1.8-2.2,4.8-3.4,9-3.5c1.3,0,2.3,0,3.1-0.1c3.2-0.2,5.2-0.7,6.3-1.5
				v-3.2c-1.4,0.7-3.5,1.1-6.5,1.3c-0.8,0.1-1.8,0.1-3.1,0.1c-5.7,0.1-9.7,2.1-12,5.7c-2.3,3.6-3.4,9.7-3.4,18.3
				c0,5.7,1.1,10,3.4,12.9c2.3,3,5.6,4.5,10,4.5c4.1,0,7.4-1.3,9.8-4c2.4-2.7,3.6-6.4,3.6-11c0-4.4-1.2-8-3.5-10.6
				C136.1,430.1,132.9,428.8,129,428.8z M135.6,452c-1.8,2.1-4.1,3.1-7.2,3.1c-3,0-5.4-1-7.2-3.1c-1.7-2.1-2.6-5-2.6-8.7
				c0-3.5,0.9-6.3,2.6-8.3c1.7-2,4.1-3,7.2-3c3,0,5.4,1,7.2,3c1.7,2,2.6,4.8,2.6,8.3C138.2,447,137.4,449.9,135.6,452z M166.8,430.7
				c-2-1.7-4.7-2.6-8.1-2.6c-3.1,0-5.7,0.8-7.8,2.5c-2.1,1.6-3.2,3.8-3.4,6.3h3.5c0.3-1.8,1.2-3.1,2.5-4.1c1.3-1,3.1-1.5,5.1-1.5
				c2.4,0,4.2,0.6,5.5,1.8c1.3,1.2,1.9,2.9,1.9,5v2.5l-9.1,0.6c-7.2,0.5-10.8,3.3-10.8,8.4c0,2.5,0.9,4.6,2.7,6.2
				c1.8,1.6,4.2,2.4,7.1,2.4c2.3,0,4.3-0.5,6.2-1.6c1.8-1.1,3.1-2.5,3.9-4.3h0.1v5.6h3.4v-20.1C169.8,434.8,168.8,432.4,166.8,430.7
				z M166.2,446.7c0,2.3-0.9,4.3-2.7,5.9c-1.8,1.6-4,2.4-6.6,2.4c-2,0-3.7-0.5-5-1.5c-1.3-1-1.9-2.3-1.9-3.9c0-3.4,2.5-5.2,7.6-5.6
				l8.6-0.6V446.7z"/>
		</g>
	</g>
</g>
<g id="Answer:_1_" class="st11">
	<g id="Answer:" class="st12">
		<g>
			<path class="st15" d="M38.9,377.4l-7.5,19.7h1.2l2.4-6.6h8.9l2.5,6.6h1.2L40,377.4H38.9z M35.4,389.6l4-10.8h0.1l4.1,10.8H35.4z
				 M55.6,382.2c-1.2,0-2.3,0.3-3.2,0.9c-0.9,0.6-1.5,1.4-1.9,2.5h0v-3.2h-1v14.7h1.1v-8.8c0-1.5,0.5-2.8,1.4-3.7
				c0.9-1,2.1-1.4,3.5-1.4c1.4,0,2.5,0.4,3.3,1.2c0.8,0.8,1.3,1.9,1.3,3.3v9.4H61v-9.5c0-1.6-0.5-3-1.5-4
				C58.5,382.7,57.2,382.2,55.6,382.2z M70.3,389.4l-2.3-0.6c-1.1-0.3-1.8-0.6-2.3-1c-0.5-0.4-0.8-1-0.8-1.7c0-0.9,0.4-1.6,1.2-2.2
				c0.8-0.6,1.7-0.8,2.8-0.8c1.2,0,2.2,0.3,2.9,1c0.7,0.6,1.1,1.5,1.3,2.5h1c-0.1-1.3-0.6-2.4-1.6-3.2c-0.9-0.8-2.2-1.2-3.6-1.2
				c-1.4,0-2.6,0.4-3.6,1.1c-1,0.7-1.5,1.7-1.5,2.9c0,1.8,1.2,3,3.7,3.6l2.4,0.6c1.2,0.3,2.1,0.7,2.6,1.1c0.5,0.5,0.8,1.1,0.8,1.8
				c0,0.9-0.4,1.7-1.3,2.3c-0.8,0.6-1.9,0.8-3.1,0.8c-1.2,0-2.3-0.3-3.1-1c-0.8-0.6-1.3-1.5-1.4-2.4h-1.1c0.1,1.2,0.6,2.3,1.7,3.1
				c1,0.8,2.3,1.3,3.9,1.3c1.6,0,2.9-0.4,3.9-1.1c1-0.8,1.5-1.7,1.5-3c0-1-0.3-1.8-1-2.4C72.8,390.2,71.7,389.8,70.3,389.4z
				 M89.7,396L89.7,396l-4.2-13.5h-1.2L80.3,396h0l-3.8-13.5h-1.1l4.3,14.7h1.2l4.1-13.3h0l4.1,13.3h1.2l4.3-14.7h-1.1L89.7,396z
				 M102.1,382.2c-1.9,0-3.5,0.7-4.7,2.1c-1.2,1.4-1.8,3.2-1.8,5.5c0,2.4,0.6,4.2,1.8,5.5c1.2,1.3,2.8,2,4.8,2c1.6,0,2.9-0.4,4-1.2
				c1.1-0.8,1.7-1.8,2-3.1h-1.1c-0.2,1-0.8,1.8-1.6,2.4c-0.9,0.6-2,1-3.3,1c-1.7,0-3-0.6-4-1.7c-1-1.1-1.5-2.7-1.5-4.7V390h11.7
				v-0.6c0-2.1-0.6-3.9-1.7-5.2C105.5,382.9,104,382.2,102.1,382.2z M96.7,389c0.1-1.8,0.6-3.2,1.6-4.3c1-1.1,2.2-1.6,3.8-1.6
				c1.5,0,2.8,0.5,3.8,1.6c1,1.1,1.4,2.5,1.4,4.2H96.7z M111.9,385.3L111.9,385.3l0-2.9h-1v14.7h1.1V388c0-1.4,0.3-2.5,1-3.4
				c0.7-0.9,1.6-1.3,2.7-1.3c0.6,0,1.1,0.1,1.5,0.3v-1.1c-0.4-0.2-0.9-0.2-1.3-0.2C113.9,382.2,112.5,383.3,111.9,385.3z
				 M121.1,395.4c-0.3,0-0.5,0.1-0.7,0.3c-0.2,0.2-0.3,0.4-0.3,0.7c0,0.3,0.1,0.5,0.3,0.7c0.2,0.2,0.4,0.3,0.7,0.3
				c0.3,0,0.5-0.1,0.7-0.3c0.2-0.2,0.3-0.4,0.3-0.7c0-0.3-0.1-0.5-0.3-0.7C121.5,395.5,121.3,395.4,121.1,395.4z M121.1,386.8
				c0.3,0,0.5-0.1,0.7-0.3c0.2-0.2,0.3-0.4,0.3-0.7c0-0.3-0.1-0.5-0.3-0.7c-0.2-0.2-0.4-0.3-0.7-0.3c-0.3,0-0.5,0.1-0.7,0.3
				c-0.2,0.2-0.3,0.4-0.3,0.7c0,0.3,0.1,0.5,0.3,0.7C120.6,386.7,120.8,386.8,121.1,386.8z"/>
		</g>
	</g>
</g>
<g id="next_копия_1_" class="st11">
	<g id="next_копия" class="st12">
		<g>
			<path class="st15" d="M407.6,708.1h-0.1l-9.2-12.8h-3.4V715h4v-12.9h0.1l9.2,12.9h3.4v-19.7h-4V708.1z M421.2,699.7
				c-2.2,0-4,0.7-5.3,2.1c-1.3,1.4-2,3.3-2,5.7c0,2.4,0.7,4.3,2,5.7c1.3,1.4,3.1,2.1,5.4,2.1c1.8,0,3.4-0.4,4.6-1.3
				c1.2-0.9,2-2.1,2.2-3.5h-3.7c-0.2,0.6-0.6,1-1.1,1.4c-0.5,0.3-1.2,0.5-2,0.5c-1,0-1.9-0.3-2.5-1c-0.6-0.7-1-1.6-1-2.6v-0.2h10.4
				v-1.2c0-2.3-0.6-4.1-1.9-5.5C425.1,700.4,423.4,699.7,421.2,699.7z M417.9,705.9c0.1-1,0.4-1.7,1-2.4c0.6-0.6,1.4-0.9,2.3-0.9
				c0.9,0,1.7,0.3,2.3,0.9c0.6,0.6,0.9,1.4,0.9,2.4H417.9z M439.3,700l-2.7,5.1h-0.1l-2.8-5.1h-4.5l4.7,7.5l-4.8,7.5h4.2l2.9-5.3
				h0.1l2.9,5.3h4.4l-4.7-7.6l4.7-7.4H439.3z M453.2,703v-3h-2.8v-3.3h-4v3.3h-2v3h2v8c0,1.5,0.4,2.5,1.1,3.2c0.7,0.6,2,1,3.7,1
				c0.7,0,1.4-0.1,1.9-0.2v-3c-0.3,0-0.6,0.1-1,0.1c-1.2,0-1.8-0.6-1.8-1.7V703H453.2z"/>
		</g>
	</g>
</g>
<g id="Hello_1_" class="st11">
	<g id="Hello" class="st12">
		<g>
			<path class="st15" d="M215.6,247.6c1.6-2.5,2.4-5.3,2.4-8.5c0-4.9-1.5-8.7-4.6-11.5c-3.2-2.8-7.6-4.2-13.2-4.2h-20.4v49.3h10.3
				v-18h8.4l9.2,18h11.7L209,253C211.9,251.9,214.1,250.1,215.6,247.6z M205.3,245c-1.5,1.4-3.5,2.1-6.1,2.1h-9.1v-15.7h9
				c2.6,0,4.6,0.7,6.1,2.1c1.5,1.4,2.3,3.3,2.3,5.7C207.4,241.7,206.7,243.6,205.3,245z M252,237.8c-2.9-2.3-6.8-3.4-11.6-3.4
				c-4.7,0-8.5,1.1-11.5,3.4c-3,2.2-4.5,5.1-4.6,8.7h9.1c0.3-1.4,1-2.5,2.2-3.3c1.2-0.9,2.7-1.3,4.5-1.3c2.1,0,3.7,0.5,4.9,1.4
				c1.2,1,1.7,2.4,1.7,4.2v2.5l-9.4,0.6c-4.8,0.3-8.5,1.4-11,3.3c-2.6,1.9-3.8,4.6-3.8,8c0,3.3,1.2,6,3.6,8.2
				c2.4,2.1,5.4,3.1,9.1,3.1c2.5,0,4.7-0.5,6.8-1.6c2.1-1.1,3.7-2.7,4.7-4.6h0.2v5.8h9.6v-25.8C256.4,243,254.9,240,252,237.8z
				 M246.6,258.8c0,2-0.8,3.7-2.4,5c-1.6,1.3-3.5,1.9-5.9,1.9c-1.8,0-3.3-0.4-4.3-1.2c-1.1-0.8-1.6-1.9-1.6-3.3
				c0-2.8,2.1-4.4,6.4-4.7l7.9-0.5V258.8z M285.2,234.5c-5.5,0-9.4,2.3-11.6,6.9h-0.2v-20.5h-10v51.7h9.8v-6.4h0.2
				c2.2,4.6,6.2,6.9,11.8,6.9c4.7,0,8.5-1.7,11.2-5.2c2.7-3.4,4.1-8.1,4.1-14.1c0-6-1.4-10.7-4.1-14.1
				C293.7,236.2,289.9,234.5,285.2,234.5z M288,261.9c-1.5,2-3.6,3-6.2,3c-2.6,0-4.6-1-6.2-3.1c-1.5-2-2.3-4.7-2.4-8.1
				c0-3.4,0.8-6.1,2.4-8.1c1.6-2.1,3.6-3.1,6.2-3.1c2.6,0,4.6,1,6.2,3c1.5,2,2.3,4.7,2.3,8.1C290.3,257.2,289.5,259.9,288,261.9z
				 M328,234.5c-5.5,0-9.4,2.3-11.6,6.9h-0.2v-20.5h-10v51.7h9.8v-6.4h0.2c2.2,4.6,6.2,6.9,11.8,6.9c4.7,0,8.5-1.7,11.2-5.2
				c2.7-3.4,4.1-8.1,4.1-14.1c0-6-1.4-10.7-4.1-14.1C336.5,236.2,332.7,234.5,328,234.5z M330.8,261.9c-1.5,2-3.6,3-6.2,3
				c-2.6,0-4.6-1-6.2-3.1c-1.5-2-2.3-4.7-2.4-8.1c0-3.4,0.8-6.1,2.4-8.1c1.6-2.1,3.6-3.1,6.2-3.1c2.6,0,4.6,1,6.2,3
				c1.5,2,2.3,4.7,2.3,8.1C333.1,257.2,332.3,259.9,330.8,261.9z M353.8,220.5c-1.5,0-2.7,0.5-3.8,1.5c-1,1-1.6,2.2-1.6,3.7
				c0,1.5,0.5,2.7,1.6,3.7c1,1,2.3,1.5,3.8,1.5c1.5,0,2.8-0.5,3.8-1.5c1-1,1.6-2.2,1.6-3.7c0-1.5-0.5-2.7-1.6-3.7
				C356.6,221,355.3,220.5,353.8,220.5z M348.8,272.6h10V235h-10V272.6z M385.4,242.5V235h-7v-8.4h-10v8.4h-5.1v7.6h5.1v19.9
				c0,3.7,0.9,6.3,2.8,7.9c1.9,1.6,5,2.4,9.3,2.4c1.8,0,3.5-0.1,4.8-0.4V265c-0.7,0.1-1.5,0.2-2.5,0.2c-3,0-4.5-1.4-4.5-4.3v-18.3
				H385.4z"/>
		</g>
	</g>
</g>
<g id="_x31__x2F_56_words_1_" class="st11">
	<g id="_x31__x2F_56_words" class="st12">
		<g>
			<path class="st19" d="M461.4,89.2c-1.2,0.8-1.9,1.2-2.2,1.4v0.9c1.1-0.7,2.1-1.3,3-1.9c0.8-0.5,1.2-0.8,1.3-0.8h0v14.6h0.8V87.9
				h-0.8C463.2,88.1,462.5,88.5,461.4,89.2z M467,107h0.8l4.8-19.1h-0.8L467,107z M479.1,93.3c-0.8,0-1.6,0.2-2.4,0.5
				c-0.7,0.4-1.3,0.8-1.7,1.5h0l0.7-6.6h7.5v-0.8H475l-0.9,8.5h0.9c0.4-0.7,1-1.3,1.7-1.7c0.7-0.4,1.5-0.6,2.4-0.6
				c1.2,0,2.3,0.4,3.1,1.3c0.8,0.8,1.2,1.9,1.2,3.1c0,1.3-0.4,2.3-1.3,3.1c-0.9,0.8-1.9,1.2-3.2,1.2c-1.1,0-2-0.3-2.8-0.9
				c-0.8-0.6-1.3-1.4-1.4-2.3h-0.8c0.1,1.2,0.7,2.1,1.6,2.9c1,0.8,2.1,1.1,3.4,1.1c1.5,0,2.8-0.5,3.8-1.5c1-1,1.5-2.2,1.5-3.7
				c0-1.5-0.5-2.7-1.5-3.7C481.8,93.8,480.6,93.3,479.1,93.3z M491.8,93.3c-1.2,0-2.2,0.3-3.1,1c-0.9,0.7-1.5,1.5-1.8,2.5h0
				c0-2.6,0.4-4.7,1.2-6.1c0.9-1.5,2.1-2.2,3.6-2.2c1,0,1.9,0.3,2.6,0.9c0.7,0.6,1.2,1.3,1.4,2.2h0.9c-0.2-1.1-0.7-2.1-1.6-2.8
				c-0.9-0.7-1.9-1.1-3.2-1.1c-1.8,0-3.2,0.8-4.2,2.3c-1,1.5-1.5,3.5-1.5,6.1c0,2.3,0.5,4.1,1.4,5.4c1,1.5,2.4,2.2,4.2,2.2
				c1.5,0,2.7-0.5,3.7-1.5c1-1,1.5-2.3,1.5-3.8c0-1.5-0.5-2.7-1.5-3.6C494.5,93.8,493.3,93.3,491.8,93.3z M494.8,101.6
				c-0.8,0.9-1.9,1.3-3.1,1.3c-1.3,0-2.3-0.4-3.2-1.3c-0.9-0.9-1.3-2-1.3-3.3c0-1.1,0.4-2.1,1.3-3c0.9-0.8,1.9-1.2,3.1-1.2
				c1.2,0,2.3,0.4,3.1,1.3c0.8,0.8,1.3,1.9,1.3,3.1C496.1,99.7,495.7,100.7,494.8,101.6z M513.6,102.5L513.6,102.5l-3.3-10.6h-0.9
				l-3.2,10.6h0l-3-10.6h-0.9l3.4,11.6h1l3.2-10.5h0l3.2,10.5h1l3.4-11.6h-0.9L513.6,102.5z M523.3,91.7c-1.5,0-2.8,0.5-3.7,1.6
				c-0.9,1.1-1.4,2.5-1.4,4.3c0,1.8,0.5,3.2,1.4,4.3c0.9,1.1,2.2,1.6,3.7,1.6c1.5,0,2.8-0.5,3.7-1.6c0.9-1.1,1.4-2.5,1.4-4.3
				c0-1.8-0.5-3.3-1.4-4.3C526.1,92.2,524.9,91.7,523.3,91.7z M526.5,101.4c-0.8,0.9-1.8,1.4-3.1,1.4c-1.3,0-2.3-0.5-3.1-1.4
				c-0.8-0.9-1.2-2.2-1.2-3.8s0.4-2.9,1.2-3.8c0.8-0.9,1.8-1.4,3.1-1.4c1.3,0,2.4,0.5,3.1,1.4c0.8,0.9,1.2,2.2,1.2,3.8
				C527.7,99.2,527.3,100.5,526.5,101.4z M531.3,94.1L531.3,94.1l0-2.3h-0.8v11.6h0.8v-7.2c0-1.1,0.3-2,0.8-2.7
				c0.5-0.7,1.3-1.1,2.2-1.1c0.5,0,0.9,0.1,1.2,0.2v-0.8c-0.3-0.1-0.7-0.2-1.1-0.2C532.8,91.7,531.8,92.5,531.3,94.1z M544.9,94.9
				L544.9,94.9c-0.3-0.9-0.8-1.7-1.6-2.3c-0.8-0.6-1.7-0.9-2.8-0.9c-1.4,0-2.6,0.5-3.5,1.6c-0.9,1.1-1.4,2.5-1.4,4.3
				c0,1.8,0.5,3.2,1.4,4.3c0.9,1.1,2.1,1.6,3.6,1.6c1.1,0,2-0.3,2.8-0.9c0.8-0.6,1.3-1.4,1.6-2.3h0v3.1h0.8V87.2h-0.8V94.9z
				 M543.7,101.4c-0.8,1-1.8,1.5-3.1,1.5c-1.2,0-2.2-0.5-3-1.4c-0.8-1-1.2-2.2-1.2-3.7c0-1.5,0.4-2.8,1.2-3.7c0.8-1,1.8-1.4,3-1.4
				c1.2,0,2.3,0.5,3.1,1.4c0.8,1,1.2,2.2,1.2,3.7C544.9,99.2,544.5,100.4,543.7,101.4z M555.7,98.5c-0.5-0.5-1.3-0.8-2.5-1.1
				l-1.8-0.4c-0.8-0.2-1.4-0.5-1.8-0.8c-0.4-0.3-0.6-0.8-0.6-1.3c0-0.7,0.3-1.3,0.9-1.7c0.6-0.4,1.3-0.7,2.2-0.7
				c0.9,0,1.7,0.3,2.3,0.8c0.6,0.5,0.9,1.2,1,2h0.8c-0.1-1.1-0.5-1.9-1.2-2.5c-0.7-0.6-1.7-0.9-2.9-0.9c-1.1,0-2.1,0.3-2.8,0.9
				c-0.8,0.6-1.1,1.3-1.1,2.2c0,1.4,1,2.4,2.9,2.8l1.9,0.5c0.9,0.2,1.6,0.5,2,0.9c0.4,0.4,0.6,0.8,0.6,1.4c0,0.7-0.3,1.3-1,1.8
				c-0.6,0.4-1.5,0.7-2.4,0.7c-1,0-1.8-0.3-2.5-0.8c-0.6-0.5-1-1.1-1.1-1.9h-0.8c0.1,1,0.5,1.8,1.3,2.4c0.8,0.7,1.8,1,3.1,1
				c1.2,0,2.3-0.3,3.1-0.9c0.8-0.6,1.2-1.4,1.2-2.3C556.4,99.6,556.2,98.9,555.7,98.5z"/>
		</g>
	</g>
</g>
<g id="Words:_100_Learn:_56_Fails:_3_1_" class="st11">
	<g id="Words:_100_Learn:_56_Fails:_3" class="st12">
		<g>
			<path class="st19" d="M18.5,100.7l4.1-13.9h0.1l4.1,13.9h0.8l4.3-15.5H31l-3.8,14h-0.1l-4.1-14h-0.8l-4.1,14h-0.1l-3.8-14h-0.9
				l4.3,15.5H18.5z M37,100.8c1.5,0,2.8-0.5,3.7-1.6c0.9-1.1,1.4-2.5,1.4-4.3c0-1.8-0.5-3.3-1.4-4.3C39.8,89.5,38.6,89,37,89
				c-1.5,0-2.8,0.5-3.7,1.6c-0.9,1.1-1.4,2.5-1.4,4.3c0,1.8,0.5,3.2,1.4,4.3C34.2,100.3,35.5,100.8,37,100.8z M33.9,91.1
				c0.8-0.9,1.8-1.4,3.1-1.4c1.3,0,2.4,0.5,3.1,1.4c0.8,0.9,1.2,2.2,1.2,3.8c0,1.6-0.4,2.8-1.2,3.8c-0.8,0.9-1.8,1.4-3.1,1.4
				c-1.3,0-2.3-0.5-3.1-1.4c-0.8-0.9-1.2-2.2-1.2-3.8C32.7,93.3,33.1,92.1,33.9,91.1z M45,93.5c0-1.1,0.3-2,0.8-2.7
				c0.5-0.7,1.3-1.1,2.2-1.1c0.5,0,0.9,0.1,1.2,0.2v-0.8C48.8,89,48.5,89,48.1,89c-1.6,0-2.6,0.8-3.1,2.4h0v-2.3h-0.8v11.6H45V93.5z
				 M54.3,100.8c1.1,0,2-0.3,2.8-0.9c0.8-0.6,1.3-1.4,1.6-2.3h0v3.1h0.8V84.5h-0.8v7.7h0c-0.3-0.9-0.8-1.7-1.6-2.3
				c-0.8-0.6-1.7-0.9-2.8-0.9c-1.4,0-2.6,0.5-3.5,1.6c-0.9,1.1-1.4,2.5-1.4,4.3c0,1.8,0.5,3.2,1.4,4.3
				C51.6,100.3,52.8,100.8,54.3,100.8z M51.4,91.2c0.8-1,1.8-1.4,3-1.4c1.2,0,2.3,0.5,3.1,1.4c0.8,1,1.2,2.2,1.2,3.7
				c0,1.5-0.4,2.8-1.2,3.7c-0.8,1-1.8,1.5-3.1,1.5c-1.2,0-2.2-0.5-3-1.4c-0.8-1-1.2-2.2-1.2-3.7C50.2,93.4,50.6,92.1,51.4,91.2z
				 M68.3,99.5c-0.6,0.4-1.5,0.7-2.4,0.7c-1,0-1.8-0.3-2.5-0.8c-0.6-0.5-1-1.1-1.1-1.9h-0.8c0.1,1,0.5,1.8,1.3,2.4
				c0.8,0.7,1.8,1,3.1,1c1.2,0,2.3-0.3,3.1-0.9c0.8-0.6,1.2-1.4,1.2-2.3c0-0.8-0.3-1.4-0.8-1.9c-0.5-0.5-1.3-0.8-2.5-1.1l-1.8-0.4
				c-0.8-0.2-1.4-0.5-1.8-0.8c-0.4-0.3-0.6-0.8-0.6-1.3c0-0.7,0.3-1.3,0.9-1.7c0.6-0.4,1.3-0.7,2.2-0.7c0.9,0,1.7,0.3,2.3,0.8
				c0.6,0.5,0.9,1.2,1,2h0.8c-0.1-1.1-0.5-1.9-1.2-2.5C67.9,89.3,67,89,65.8,89c-1.1,0-2.1,0.3-2.8,0.9c-0.8,0.6-1.1,1.3-1.1,2.2
				c0,1.4,1,2.4,2.9,2.8l1.9,0.5c0.9,0.2,1.6,0.5,2,0.9c0.4,0.4,0.6,0.8,0.6,1.4C69.3,98.4,68.9,99,68.3,99.5z M73.4,91
				c-0.2,0-0.4,0.1-0.5,0.2c-0.1,0.2-0.2,0.3-0.2,0.5c0,0.2,0.1,0.4,0.2,0.5c0.2,0.1,0.3,0.2,0.5,0.2c0.2,0,0.4-0.1,0.5-0.2
				c0.1-0.2,0.2-0.3,0.2-0.5c0-0.2-0.1-0.4-0.2-0.5C73.8,91.1,73.6,91,73.4,91z M73.4,99.3c-0.2,0-0.4,0.1-0.5,0.2
				c-0.1,0.2-0.2,0.3-0.2,0.5c0,0.2,0.1,0.4,0.2,0.5c0.2,0.1,0.3,0.2,0.5,0.2c0.2,0,0.4-0.1,0.5-0.2c0.1-0.2,0.2-0.3,0.2-0.5
				c0-0.2-0.1-0.4-0.2-0.5C73.8,99.4,73.6,99.3,73.4,99.3z M83.5,86.5c-1.2,0.8-1.9,1.2-2.2,1.4v0.9c1.1-0.7,2.1-1.3,3-1.9
				c0.8-0.5,1.2-0.8,1.3-0.8h0v14.6h0.8V85.1h-0.8C85.3,85.4,84.6,85.8,83.5,86.5z M95.4,85c-1.7,0-3,0.7-4,2.2
				c-1,1.4-1.5,3.4-1.5,5.8c0,2.5,0.5,4.4,1.5,5.8c1,1.4,2.3,2.2,4,2.2c1.7,0,3-0.7,4-2.2c1-1.4,1.5-3.4,1.5-5.8
				c0-2.4-0.5-4.4-1.5-5.8C98.5,85.7,97.1,85,95.4,85z M98.8,98.2c-0.8,1.3-2,2-3.4,2c-1.4,0-2.6-0.7-3.4-2c-0.8-1.3-1.2-3-1.2-5.3
				c0-2.2,0.4-4,1.2-5.3c0.8-1.3,2-2,3.4-2c1.4,0,2.6,0.7,3.4,2c0.8,1.3,1.2,3,1.2,5.3C100.1,95.2,99.6,96.9,98.8,98.2z M112.3,87.1
				c-1-1.4-2.3-2.1-4-2.1c-1.7,0-3,0.7-4,2.2c-1,1.4-1.5,3.4-1.5,5.8c0,2.5,0.5,4.4,1.5,5.8c1,1.4,2.3,2.2,4,2.2c1.7,0,3-0.7,4-2.2
				c1-1.4,1.5-3.4,1.5-5.8C113.7,90.5,113.2,88.6,112.3,87.1z M111.6,98.2c-0.8,1.3-2,2-3.4,2c-1.4,0-2.6-0.7-3.4-2
				c-0.8-1.3-1.2-3-1.2-5.3c0-2.2,0.4-4,1.2-5.3c0.8-1.3,2-2,3.4-2c1.4,0,2.6,0.7,3.4,2c0.8,1.3,1.2,3,1.2,5.3
				C112.9,95.2,112.5,96.9,111.6,98.2z M15.2,110.2h-0.8v15.5h9v-0.8h-8.1V110.2z M28.8,114c-1.5,0-2.7,0.5-3.7,1.6
				c-0.9,1.1-1.4,2.5-1.4,4.3c0,1.8,0.5,3.3,1.4,4.4c0.9,1,2.2,1.6,3.7,1.6c1.3,0,2.3-0.3,3.2-1c0.8-0.6,1.3-1.4,1.5-2.4h-0.8
				c-0.2,0.8-0.6,1.4-1.3,1.9c-0.7,0.5-1.6,0.8-2.6,0.8c-1.3,0-2.4-0.4-3.1-1.3c-0.8-0.9-1.2-2.1-1.2-3.7v0h9.2v-0.5
				c0-1.7-0.5-3-1.4-4C31.5,114.5,30.3,114,28.8,114z M24.6,119.3c0.1-1.4,0.5-2.5,1.2-3.3c0.8-0.8,1.8-1.3,3-1.3
				c1.2,0,2.2,0.4,3,1.3c0.8,0.9,1.1,2,1.1,3.3H24.6z M43.5,123.2L43.5,123.2l0,2.5h0.8v-7.8c0-1.2-0.4-2.2-1.1-2.9
				c-0.7-0.7-1.8-1.1-3-1.1c-1.2,0-2.2,0.3-3,1c-0.8,0.6-1.2,1.5-1.3,2.6h0.8c0.1-0.9,0.5-1.6,1.1-2c0.6-0.5,1.4-0.7,2.4-0.7
				c1,0,1.9,0.3,2.4,0.8c0.6,0.6,0.9,1.4,0.9,2.4v1l-4,0.3c-2.8,0.2-4.1,1.3-4.1,3.3c0,1,0.4,1.8,1.1,2.4c0.7,0.6,1.6,0.9,2.8,0.9
				c1,0,1.9-0.2,2.7-0.7C42.7,124.6,43.2,124,43.5,123.2z M39.4,125.1c-0.9,0-1.6-0.2-2.2-0.7c-0.6-0.5-0.9-1.1-0.9-1.8
				c0-1.6,1.1-2.4,3.4-2.6l3.9-0.3v1.7c0,1-0.4,1.9-1.2,2.6C41.5,124.7,40.5,125.1,39.4,125.1z M47.6,116.4L47.6,116.4l0-2.3h-0.8
				v11.6h0.8v-7.2c0-1.1,0.3-2,0.8-2.7c0.5-0.7,1.3-1.1,2.2-1.1c0.5,0,0.9,0.1,1.2,0.2v-0.8c-0.3-0.1-0.7-0.2-1.1-0.2
				C49.2,114,48.1,114.8,47.6,116.4z M62.5,125.7v-7.5c0-1.3-0.4-2.3-1.2-3.1c-0.8-0.8-1.8-1.1-3.1-1.1c-1,0-1.8,0.2-2.5,0.7
				c-0.7,0.5-1.2,1.1-1.5,2h0v-2.5h-0.8v11.6h0.8v-6.9c0-1.2,0.4-2.2,1.1-2.9c0.7-0.8,1.6-1.1,2.8-1.1c1.1,0,2,0.3,2.6,1
				c0.7,0.6,1,1.5,1,2.6v7.4H62.5z M66.4,124.3c-0.2,0-0.4,0.1-0.5,0.2c-0.1,0.2-0.2,0.3-0.2,0.5c0,0.2,0.1,0.4,0.2,0.5
				c0.2,0.1,0.3,0.2,0.5,0.2c0.2,0,0.4-0.1,0.5-0.2c0.1-0.2,0.2-0.3,0.2-0.5c0-0.2-0.1-0.4-0.2-0.5
				C66.8,124.4,66.6,124.3,66.4,124.3z M66.9,116.2c-0.2-0.1-0.3-0.2-0.5-0.2c-0.2,0-0.4,0.1-0.5,0.2c-0.1,0.2-0.2,0.3-0.2,0.5
				c0,0.2,0.1,0.4,0.2,0.5c0.2,0.1,0.3,0.2,0.5,0.2c0.2,0,0.4-0.1,0.5-0.2c0.1-0.2,0.2-0.3,0.2-0.5
				C67.2,116.6,67.1,116.4,66.9,116.2z M80,115.6c-0.8,0-1.6,0.2-2.4,0.5c-0.7,0.4-1.3,0.8-1.7,1.5h0l0.7-6.6h7.5v-0.8h-8.2
				l-0.9,8.5h0.9c0.4-0.7,1-1.3,1.7-1.7c0.7-0.4,1.5-0.6,2.4-0.6c1.2,0,2.3,0.4,3.1,1.3c0.8,0.8,1.2,1.9,1.2,3.1
				c0,1.3-0.4,2.3-1.3,3.1c-0.9,0.8-1.9,1.2-3.2,1.2c-1.1,0-2-0.3-2.8-0.9c-0.8-0.6-1.3-1.4-1.4-2.3h-0.8c0.1,1.2,0.7,2.1,1.6,2.9
				c1,0.8,2.1,1.1,3.4,1.1c1.5,0,2.8-0.5,3.8-1.5c1-1,1.5-2.2,1.5-3.7c0-1.5-0.5-2.7-1.5-3.7C82.7,116.1,81.5,115.6,80,115.6z
				 M92.7,115.6c-1.2,0-2.2,0.3-3.1,1c-0.9,0.7-1.5,1.5-1.8,2.5h0c0-2.6,0.4-4.7,1.2-6.1c0.9-1.5,2.1-2.2,3.6-2.2
				c1,0,1.9,0.3,2.6,0.9c0.7,0.6,1.2,1.3,1.4,2.2h0.9c-0.2-1.1-0.7-2.1-1.6-2.8c-0.9-0.7-1.9-1.1-3.2-1.1c-1.8,0-3.2,0.8-4.2,2.3
				c-1,1.5-1.5,3.5-1.5,6.1c0,2.3,0.5,4.1,1.4,5.4c1,1.5,2.4,2.2,4.2,2.2c1.5,0,2.7-0.5,3.7-1.5c1-1,1.5-2.3,1.5-3.8
				c0-1.5-0.5-2.7-1.5-3.6C95.4,116,94.2,115.6,92.7,115.6z M95.7,123.9c-0.8,0.9-1.9,1.3-3.1,1.3c-1.3,0-2.3-0.4-3.2-1.3
				c-0.9-0.9-1.3-2-1.3-3.3c0-1.1,0.4-2.1,1.3-3c0.9-0.8,1.9-1.2,3.1-1.2c1.2,0,2.3,0.4,3.1,1.3c0.8,0.8,1.3,1.9,1.3,3.1
				C97,121.9,96.6,123,95.7,123.9z M14.3,150.7h0.8v-7.5h7.4v-0.8h-7.4V136h8.1v-0.8h-8.9V150.7z M29.1,139c-1.2,0-2.2,0.3-3,1
				c-0.8,0.6-1.2,1.5-1.3,2.6h0.8c0.1-0.9,0.5-1.6,1.1-2c0.6-0.5,1.4-0.7,2.4-0.7c1,0,1.9,0.3,2.4,0.8c0.6,0.6,0.9,1.4,0.9,2.4v1
				l-4,0.3c-2.8,0.2-4.1,1.3-4.1,3.3c0,1,0.4,1.8,1.1,2.4c0.7,0.6,1.6,0.9,2.8,0.9c1,0,1.9-0.2,2.7-0.7c0.8-0.5,1.3-1.1,1.6-1.9h0
				v2.5h0.8v-7.8c0-1.2-0.4-2.2-1.1-2.9C31.4,139.3,30.4,139,29.1,139z M32.4,146.4c0,1-0.4,1.9-1.2,2.6c-0.8,0.7-1.8,1.1-2.9,1.1
				c-0.9,0-1.6-0.2-2.2-0.7c-0.6-0.5-0.9-1.1-0.9-1.8c0-1.6,1.1-2.4,3.4-2.6l3.9-0.3V146.4z M35.9,150.7h0.8v-11.6h-0.8V150.7z
				 M36.3,135c-0.2,0-0.3,0.1-0.5,0.2c-0.1,0.1-0.2,0.3-0.2,0.5c0,0.2,0.1,0.3,0.2,0.5c0.1,0.1,0.3,0.2,0.5,0.2
				c0.2,0,0.3-0.1,0.5-0.2c0.1-0.1,0.2-0.3,0.2-0.5c0-0.2-0.1-0.3-0.2-0.5C36.6,135,36.5,135,36.3,135z M39.5,150.7h0.8v-16.2h-0.8
				V150.7z M47.8,144.6l-1.8-0.4c-0.8-0.2-1.4-0.5-1.8-0.8c-0.4-0.3-0.6-0.8-0.6-1.3c0-0.7,0.3-1.3,0.9-1.7c0.6-0.4,1.3-0.7,2.2-0.7
				c0.9,0,1.7,0.3,2.3,0.8c0.6,0.5,0.9,1.2,1,2h0.8c-0.1-1.1-0.5-1.9-1.2-2.5c-0.7-0.6-1.7-0.9-2.9-0.9c-1.1,0-2.1,0.3-2.8,0.9
				c-0.8,0.6-1.1,1.3-1.1,2.2c0,1.4,1,2.4,2.9,2.8l1.9,0.5c0.9,0.2,1.6,0.5,2,0.9c0.4,0.4,0.6,0.8,0.6,1.4c0,0.7-0.3,1.3-1,1.8
				c-0.6,0.4-1.5,0.7-2.4,0.7c-1,0-1.8-0.3-2.5-0.8c-0.6-0.5-1-1.1-1.1-1.9h-0.8c0.1,1,0.5,1.8,1.3,2.4c0.8,0.7,1.8,1,3.1,1
				c1.2,0,2.3-0.3,3.1-0.9c0.8-0.6,1.2-1.4,1.2-2.3c0-0.8-0.3-1.4-0.8-1.9C49.7,145.3,48.9,144.9,47.8,144.6z M54.3,149.3
				c-0.2,0-0.4,0.1-0.5,0.2c-0.1,0.2-0.2,0.3-0.2,0.5c0,0.2,0.1,0.4,0.2,0.5c0.2,0.1,0.3,0.2,0.5,0.2s0.4-0.1,0.5-0.2
				c0.1-0.2,0.2-0.3,0.2-0.5c0-0.2-0.1-0.4-0.2-0.5C54.7,149.4,54.5,149.3,54.3,149.3z M54.3,141c-0.2,0-0.4,0.1-0.5,0.2
				c-0.1,0.2-0.2,0.3-0.2,0.5c0,0.2,0.1,0.4,0.2,0.5c0.2,0.1,0.3,0.2,0.5,0.2s0.4-0.1,0.5-0.2c0.1-0.2,0.2-0.3,0.2-0.5
				c0-0.2-0.1-0.4-0.2-0.5C54.7,141.1,54.5,141,54.3,141z M68.7,142.6L68.7,142.6c1-0.2,1.8-0.7,2.4-1.3c0.6-0.7,0.9-1.5,0.9-2.4
				c0-1.1-0.4-2.1-1.3-2.8c-0.9-0.7-2-1.1-3.3-1.1c-1.3,0-2.4,0.4-3.3,1.1c-0.9,0.7-1.4,1.7-1.4,2.8h0.8c0.1-0.9,0.5-1.7,1.2-2.3
				c0.7-0.6,1.6-0.9,2.7-0.9c1.1,0,2,0.3,2.8,0.9c0.7,0.6,1.1,1.4,1.1,2.3c0,1-0.4,1.8-1.1,2.4c-0.7,0.6-1.7,0.9-2.9,0.9h-1.7v0.8
				h1.8c1.4,0,2.6,0.3,3.4,0.9c0.8,0.6,1.2,1.5,1.2,2.5c0,1.1-0.4,1.9-1.2,2.6c-0.8,0.7-1.9,1-3.1,1c-1.2,0-2.2-0.3-3.1-1
				c-0.8-0.6-1.3-1.4-1.3-2.4h-0.8c0,1.2,0.5,2.2,1.5,2.9c1,0.8,2.2,1.2,3.7,1.2c1.5,0,2.7-0.4,3.7-1.3c1-0.8,1.5-1.9,1.5-3.2
				c0-1.1-0.4-2-1.1-2.7C70.9,143.1,69.9,142.7,68.7,142.6z"/>
		</g>
	</g>
</g>
<g id="шапка_xA0_Изображение_1_" class="st17">
	<g class="st12">
		
			<image style="overflow:visible;" width="564" height="75" id="шапка_xA0_Изображение_2_" xlink:href="8AB1A43A.png"  transform="matrix(1 0 0 1 0.1358 0.2083)">
		</image>
	</g>
</g>
<g id="Слой_25" class="st17">
	<g class="st12">
		<rect x="474.1" y="15.2" class="st20" width="7.1" height="8"/>
		<path class="st21" d="M485,12.2h-9.8v2h-2.1v9.8h10v-1.9h1.9V12.2z M481.2,23.2h-7.1v-8h7.1V23.2z M484.1,20.2h-1v-6h-7v-1.1h8
			V20.2z"/>
	</g>
	<polygon class="st22" points="544.4,11.5 542.8,10 536.1,16.6 529.5,10 527.9,11.5 534.6,18.2 527.9,24.9 529.5,26.4 536.1,19.8 
		542.8,26.4 544.4,24.9 537.7,18.2 	"/>
	<rect x="417.2" y="18.2" class="st22" width="11.8" height="1"/>
</g>
<g id="Слой_26" class="st17">
	<g class="st12">
		<g>
			
				<linearGradient id="SVGID_2_" gradientUnits="userSpaceOnUse" x1="6.4005" y1="925.2973" x2="6.0003" y2="924.0657" gradientTransform="matrix(1 0 0 -1 0 940.4167)">
				<stop  offset="0" style="stop-color:#FF224C"/>
				<stop  offset="1" style="stop-color:#C3224C"/>
			</linearGradient>
			<circle class="st23" cx="6.2" cy="15.7" r="0.6"/>
			
				<linearGradient id="SVGID_3_" gradientUnits="userSpaceOnUse" x1="6.3461" y1="930.0628" x2="5.9459" y2="928.8312" gradientTransform="matrix(1 0 0 -1 0 940.4167)">
				<stop  offset="0" style="stop-color:#FF224C"/>
				<stop  offset="1" style="stop-color:#C3224C"/>
			</linearGradient>
			<circle class="st24" cx="6.1" cy="11" r="0.6"/>
			
				<linearGradient id="SVGID_4_" gradientUnits="userSpaceOnUse" x1="8.2648" y1="932.7082" x2="7.9126" y2="931.6244" gradientTransform="matrix(1 0 0 -1 0 940.4167)">
				<stop  offset="0" style="stop-color:#FF224C"/>
				<stop  offset="1" style="stop-color:#C3224C"/>
			</linearGradient>
			<circle class="st25" cx="8.1" cy="8.3" r="0.6"/>
			
				<linearGradient id="SVGID_5_" gradientUnits="userSpaceOnUse" x1="10.6268" y1="934.827" x2="10.2104" y2="933.5456" gradientTransform="matrix(1 0 0 -1 0 940.4167)">
				<stop  offset="0" style="stop-color:#FF224C"/>
				<stop  offset="1" style="stop-color:#C3224C"/>
			</linearGradient>
			<circle class="st26" cx="10.4" cy="6.2" r="0.7"/>
			
				<linearGradient id="SVGID_6_" gradientUnits="userSpaceOnUse" x1="13.9177" y1="936.4709" x2="13.3415" y2="934.6977" gradientTransform="matrix(1 0 0 -1 0 940.4167)">
				<stop  offset="0" style="stop-color:#FF224C"/>
				<stop  offset="1" style="stop-color:#C3224C"/>
			</linearGradient>
			<circle class="st27" cx="13.6" cy="4.8" r="0.9"/>
			
				<linearGradient id="SVGID_7_" gradientUnits="userSpaceOnUse" x1="8.5046" y1="930.3162" x2="8.0404" y2="928.8876" gradientTransform="matrix(1 0 0 -1 0 940.4167)">
				<stop  offset="0" style="stop-color:#FF224C"/>
				<stop  offset="1" style="stop-color:#C3224C"/>
			</linearGradient>
			<circle class="st28" cx="8.3" cy="10.8" r="0.8"/>
			
				<linearGradient id="SVGID_8_" gradientUnits="userSpaceOnUse" x1="13.2483" y1="932.6591" x2="12.2557" y2="929.6044" gradientTransform="matrix(1 0 0 -1 0 940.4167)">
				<stop  offset="0" style="stop-color:#FF224C"/>
				<stop  offset="1" style="stop-color:#C3224C"/>
			</linearGradient>
			<circle class="st29" cx="12.8" cy="9.3" r="1.6"/>
			
				<linearGradient id="SVGID_9_" gradientUnits="userSpaceOnUse" x1="9.4557" y1="925.7305" x2="8.6398" y2="923.2195" gradientTransform="matrix(1 0 0 -1 0 940.4167)">
				<stop  offset="0" style="stop-color:#FF224C"/>
				<stop  offset="1" style="stop-color:#C3224C"/>
			</linearGradient>
			<circle class="st30" cx="9" cy="15.9" r="1.3"/>
			
				<linearGradient id="SVGID_10_" gradientUnits="userSpaceOnUse" x1="21.997" y1="933.1144" x2="14.8117" y2="911.0003" gradientTransform="matrix(1 0 0 -1 0 940.4167)">
				<stop  offset="0" style="stop-color:#FF224C"/>
				<stop  offset="1" style="stop-color:#C3224C"/>
			</linearGradient>
			<path class="st31" d="M29.6,18.9c0-0.5-0.1-4.6-2.8-7.4c-1-1.1-2.4-1.8-2.5-1.9c-0.5-0.3-2.1-1.2-3.1-1.3c0,0-0.9-0.1-1.5-0.4
				c0,0,0,0-0.1-0.1c-0.1-0.1-0.2-0.1-0.3-0.1c0,0-0.1-0.1-0.2-0.1C19,7.6,19,7.6,18.9,7.5c-0.1-0.1-0.2-0.1-0.3-0.2
				c-0.1-0.1-0.1-0.1-0.1-0.2c-0.1-0.2-0.5-0.8-0.7-1c-0.3-0.3-0.8-0.6-1.4-0.6c-0.9,0-1.5,0.6-1.6,0.7c0,0-0.5,0.6-0.5,1.4
				c0,0.3,0.1,0.5,0.1,0.6c0.1,0.3,0.2,0.6,0.3,0.7c0,0.2,0.1,0.5-0.1,0.9c-0.2,0.6-0.7,1.1-1.2,1.3c-0.4,0.1-0.9,0.1-1.3,0.1
				c-0.1,0-0.2,0-0.4-0.1c-0.3,0-0.6-0.1-0.9,0c-0.6,0.1-0.9,0.9-1,1c0,0.1-0.4,1,0,1.6c0,0,0,0,0.2,0.3c0.4,0.5,0.6,0.8,0.7,1
				c0.3,0.6,0.2,1.2,0.2,1.3c0,0.2-0.1,0.6-0.4,0.9c-0.2,0.2-0.5,0.3-0.7,0.4c-0.5,0.1-1,0-1.2,0c0,0-0.2,0-0.3-0.1c0,0-0.1,0-0.3,0
				c-0.2,0-0.6,0-1,0.3c-0.5,0.3-0.9,1.1-0.8,1.7c0.1,0.5,0.4,0.8,0.5,1c0,0,0.1,0.1,0.2,0.2C7,21,7.1,21.1,7.2,21.2
				c0.1,0.1,0.2,0.1,0.3,0.3c0.1,0.1,0.2,0.3,0.4,0.5c0.1,0.2,0.2,0.5,0.3,0.9c0.3,0.8,1.8,4.3,5.6,6.1c0.4,0.2,2.3,1.1,4.8,1.1
				c1,0,4.4-0.1,7.4-2.6C29.5,24.2,29.6,19.8,29.6,18.9z"/>
		</g>
		<g>
			<path class="st9" d="M11.4,23.9c0.4-0.5,0.7-1,1-1.4c0.2-0.3,0.6-1,1.3-2.2l0.8-1.4c0.6-1,1-1.7,1.2-1.9c0.3-0.5,0.7-0.7,1-0.7
				c0.2,0,0.4,0.1,0.4,0.3c0,0.1,0,0.3-0.1,0.5c-0.1,0.1-0.2,0.6-0.6,1.4c-0.3,0.8-0.5,1.7-0.7,2.7c-0.1,0.7-0.2,1.3-0.2,1.8
				c0,0.1,0,0.3,0,0.5c0,0.2,0,0.4,0.1,0.6c0.3-0.3,0.6-0.8,0.9-1.4c0.3-0.6,0.8-1.6,1.4-2.9c0.6-1.3,1.3-2.6,2.1-4
				c0.7-1.1,1.4-2.3,2.4-3.5c0.4-0.6,0.8-0.8,1-0.8c0.1,0,0.2,0.1,0.3,0.2c0.1,0.1,0.1,0.2,0.1,0.3c0,0.1-0.2,0.5-0.6,1
				c-0.8,1-1.6,2.1-2.3,3.4c-0.8,1.4-1.9,3.5-3.1,6.1c-0.6,1.2-1,2-1.3,2.5c-0.3,0.5-0.7,0.8-1.1,0.8c-0.3,0-0.6-0.1-0.8-0.4
				c-0.2-0.3-0.3-0.7-0.3-1.3c0-0.9,0.2-2.1,0.5-3.5c-0.3,0.4-0.7,0.9-1.1,1.6c-0.3,0.5-0.6,1-0.9,1.5c-0.4,0.7-0.7,1.2-0.8,1.4
				c-0.2,0.4-0.4,0.7-0.6,0.9c-0.2,0.2-0.4,0.2-0.6,0.2c-0.3,0-0.5-0.1-0.6-0.3c-0.1-0.2-0.1-0.4-0.1-0.6c0-1.6,0.8-4.4,2.5-8.4
				c0.8-2,1.3-3.2,1.4-3.6c0.1-0.4,0.2-0.7,0.4-0.8c0.2-0.2,0.3-0.3,0.6-0.3c0.3,0,0.4,0.1,0.4,0.4c0,0.3-0.1,0.8-0.4,1.5
				c-0.3,0.8-0.7,1.9-1.4,3.3c-0.4,1-0.7,1.7-0.9,2.2C12,21.6,11.5,23.2,11.4,23.9z"/>
			<path class="st9" d="M23.5,17l0.4-0.1c1.4-0.3,2.5-0.4,3-0.4c0.4,0,0.6,0.2,0.6,0.5c0,0.2-0.1,0.4-0.2,0.4
				c-0.1,0.1-0.3,0.1-0.6,0.1c-1.7,0.1-3,0.3-3.9,0.6c-0.3,0.5-0.9,1.5-1.5,2.9c-0.4,0.8-0.7,1.6-0.9,2.3c0.1-0.1,0.3-0.1,0.4-0.2
				c1-0.3,1.7-0.5,2.1-0.6c0.6-0.1,1.2-0.2,1.7-0.2c0.4,0,0.6,0,0.8,0.1c0.1,0.1,0.2,0.2,0.2,0.4c0,0.2-0.1,0.3-0.3,0.4
				c-0.1,0-0.3,0-0.6,0c-1.7,0.1-3.3,0.5-4.6,1.3c-0.2,0.1-0.3,0.1-0.5,0.1c-0.2,0-0.3-0.1-0.5-0.3c-0.1-0.2-0.2-0.3-0.2-0.5
				c0-0.2,0.2-0.8,0.6-1.8c0.6-1.6,1.5-3.3,2.5-5.2c0.3-0.6,0.9-1.5,1.8-2.9c0.2-0.3,0.4-0.6,0.6-0.9c-0.3-0.1-0.4-0.2-0.4-0.5
				c0-0.2,0.1-0.4,0.3-0.5c0.3-0.2,1-0.3,2-0.5c1.4-0.2,2.7-0.3,3.7-0.3c0.6,0,0.9,0.1,0.9,0.5c0,0.2-0.1,0.4-0.3,0.5
				c-0.1,0.1-0.3,0.1-0.5,0.1c0,0-0.1,0-0.2,0c-0.1,0-0.2,0-0.3,0c-0.5,0-1.2,0-2,0.1c-0.8,0.1-1.4,0.2-2,0.4
				c0.1,0.1,0.1,0.2,0.1,0.2c0,0.1-0.2,0.4-0.5,0.8l-0.5,0.7C24.2,15.8,23.7,16.5,23.5,17z"/>
		</g>
	</g>
</g>
<g id="WordEng_1_" class="st11">
	<g id="WordEng" class="st12">
		<g>
			<path class="st32" d="M260,22.2L260,22.2l-3.3-11.5H256l-3.3,11.5h0l-3.1-11.5h-0.7l3.5,12.7h0.6l3.3-11.4h0l3.3,11.4h0.6
				l3.5-12.7h-0.7L260,22.2z M268,13.9c-1.3,0-2.3,0.4-3,1.3c-0.8,0.9-1.1,2.1-1.1,3.6c0,1.5,0.4,2.7,1.1,3.5c0.8,0.9,1.8,1.3,3,1.3
				s2.3-0.4,3-1.3c0.8-0.9,1.1-2.1,1.1-3.5c0-1.5-0.4-2.7-1.1-3.6C270.3,14.3,269.3,13.9,268,13.9z M270.6,21.8
				c-0.6,0.8-1.5,1.1-2.5,1.1c-1.1,0-1.9-0.4-2.5-1.1c-0.6-0.8-1-1.8-1-3.1s0.3-2.3,1-3.1c0.6-0.8,1.5-1.1,2.5-1.1s1.9,0.4,2.5,1.1
				c0.6,0.8,1,1.8,1,3.1C271.5,20,271.2,21,270.6,21.8z M274.5,15.9L274.5,15.9l0-1.9h-0.6v9.5h0.7v-5.9c0-0.9,0.2-1.6,0.6-2.2
				c0.4-0.6,1-0.9,1.7-0.9c0.4,0,0.7,0.1,1,0.2V14c-0.3-0.1-0.5-0.2-0.9-0.2C275.7,13.9,274.9,14.5,274.5,15.9z M285.5,16.5
				L285.5,16.5c-0.2-0.8-0.7-1.4-1.3-1.9c-0.6-0.5-1.4-0.8-2.2-0.8c-1.2,0-2.1,0.4-2.9,1.3c-0.7,0.9-1.1,2.1-1.1,3.5
				c0,1.4,0.4,2.6,1.1,3.5c0.7,0.9,1.7,1.3,2.9,1.3c0.9,0,1.6-0.3,2.3-0.8c0.6-0.5,1.1-1.1,1.3-1.9h0v2.5h0.6V10.2h-0.7V16.5z
				 M284.6,21.8c-0.6,0.8-1.5,1.2-2.5,1.2c-1,0-1.8-0.4-2.4-1.2c-0.6-0.8-0.9-1.8-0.9-3.1c0-1.3,0.3-2.3,0.9-3.1
				c0.6-0.8,1.4-1.2,2.4-1.2c1,0,1.8,0.4,2.5,1.2c0.6,0.8,1,1.8,1,3.1C285.5,20,285.2,21,284.6,21.8z M288.4,23.4h7.3v-0.6h-6.6
				v-5.5h6.3v-0.6h-6.3v-5.2h6.6v-0.6h-7.3V23.4z M301.6,13.9c-0.8,0-1.5,0.2-2.1,0.6c-0.6,0.4-1,0.9-1.2,1.6h0V14h-0.6v9.5h0.7
				v-5.6c0-1,0.3-1.8,0.9-2.4c0.6-0.6,1.3-0.9,2.2-0.9c0.9,0,1.6,0.3,2.1,0.8c0.5,0.5,0.8,1.2,0.8,2.2v6h0.7v-6.1
				c0-1.1-0.3-1.9-1-2.5C303.4,14.2,302.6,13.9,301.6,13.9z M314.1,14v2.5h0c-0.2-0.8-0.6-1.4-1.3-1.9c-0.6-0.5-1.4-0.8-2.2-0.8
				c-1.2,0-2.1,0.4-2.9,1.3c-0.7,0.9-1.1,2.1-1.1,3.5c0,1.4,0.4,2.6,1.1,3.5c0.7,0.9,1.7,1.3,2.9,1.3c0.8,0,1.6-0.3,2.2-0.8
				c0.6-0.5,1-1.1,1.3-1.9h0v2.5c0,0.8-0.3,1.4-0.9,1.9c-0.6,0.5-1.4,0.7-2.3,0.7c-0.8,0-1.5-0.1-2-0.4c-0.5-0.3-0.9-0.7-1-1.1h-0.7
				c0.1,0.7,0.5,1.2,1.2,1.6c0.7,0.4,1.5,0.6,2.5,0.6c1.2,0,2.1-0.3,2.9-0.9c0.7-0.6,1.1-1.4,1.1-2.4V14H314.1z M313.1,21.7
				c-0.6,0.8-1.5,1.2-2.5,1.2c-1,0-1.8-0.4-2.4-1.2c-0.6-0.8-0.9-1.8-0.9-3c0-1.3,0.3-2.3,0.9-3.1c0.6-0.8,1.4-1.2,2.4-1.2
				c1,0,1.8,0.4,2.5,1.2c0.6,0.8,0.9,1.8,0.9,3C314,19.9,313.7,21,313.1,21.7z"/>
		</g>
	</g>
</g>
<g id="Learn_new_1_" class="st11">
	<g id="Learn_new" class="st12">
		<g>
			<path class="st32" d="M11.3,49.3h-0.7v12.7h7.3v-0.6h-6.7V49.3z M22.5,52.4c-1.2,0-2.3,0.4-3,1.3c-0.8,0.9-1.1,2.1-1.1,3.5
				c0,1.5,0.4,2.7,1.2,3.6c0.8,0.9,1.8,1.3,3.1,1.3c1,0,1.9-0.3,2.6-0.8c0.7-0.5,1.1-1.2,1.3-2h-0.7c-0.1,0.6-0.5,1.2-1,1.5
				c-0.6,0.4-1.3,0.6-2.1,0.6c-1.1,0-1.9-0.4-2.6-1.1c-0.6-0.7-1-1.7-1-3v0h7.5v-0.4c0-1.4-0.4-2.5-1.1-3.3
				C24.7,52.8,23.7,52.4,22.5,52.4z M19,56.7c0.1-1.1,0.4-2,1-2.7c0.6-0.7,1.4-1,2.4-1c1,0,1.8,0.3,2.4,1c0.6,0.7,0.9,1.6,0.9,2.7
				H19z M31.8,52.4c-1,0-1.8,0.3-2.5,0.8c-0.7,0.5-1,1.2-1.1,2.1h0.7c0.1-0.7,0.4-1.3,0.9-1.7c0.5-0.4,1.2-0.6,2-0.6
				c0.8,0,1.5,0.2,2,0.7c0.5,0.5,0.7,1.1,0.7,1.9v0.8l-3.2,0.2c-2.3,0.2-3.4,1.1-3.4,2.7c0,0.8,0.3,1.4,0.9,1.9
				c0.6,0.5,1.3,0.7,2.3,0.7c0.8,0,1.5-0.2,2.2-0.6s1.1-0.9,1.3-1.6h0v2h0.7v-6.4c0-1-0.3-1.8-0.9-2.3
				C33.6,52.6,32.8,52.4,31.8,52.4z M34.5,58.4c0,0.8-0.3,1.6-1,2.1c-0.7,0.6-1.5,0.9-2.4,0.9c-0.7,0-1.3-0.2-1.8-0.6
				c-0.5-0.4-0.7-0.9-0.7-1.5c0-1.3,0.9-2,2.8-2.1l3.2-0.2V58.4z M37.9,54.4L37.9,54.4l0-1.9h-0.6v9.5h0.7v-5.9
				c0-0.9,0.2-1.6,0.7-2.2c0.4-0.6,1-0.9,1.8-0.9c0.4,0,0.7,0.1,1,0.2v-0.7c-0.3-0.1-0.6-0.2-0.9-0.2C39.1,52.4,38.2,53,37.9,54.4z
				 M46.5,52.4c-0.8,0-1.5,0.2-2.1,0.6c-0.6,0.4-1,0.9-1.2,1.6h0v-2.1h-0.6v9.5h0.7v-5.6c0-1,0.3-1.8,0.9-2.4
				c0.6-0.6,1.3-0.9,2.3-0.9c0.9,0,1.6,0.3,2.1,0.8c0.5,0.5,0.8,1.2,0.8,2.2v6H50v-6.1c0-1.1-0.3-1.9-1-2.5
				C48.4,52.7,47.6,52.4,46.5,52.4z M59.6,52.4c-0.8,0-1.5,0.2-2.1,0.6c-0.6,0.4-1,0.9-1.2,1.6h0v-2.1h-0.6v9.5h0.7v-5.6
				c0-1,0.3-1.8,0.9-2.4c0.6-0.6,1.3-0.9,2.3-0.9c0.9,0,1.6,0.3,2.1,0.8c0.5,0.5,0.8,1.2,0.8,2.2v6h0.7v-6.1c0-1.1-0.3-1.9-1-2.5
				C61.5,52.7,60.7,52.4,59.6,52.4z M68.8,52.4c-1.2,0-2.3,0.4-3,1.3c-0.8,0.9-1.1,2.1-1.1,3.5c0,1.5,0.4,2.7,1.2,3.6
				c0.7,0.9,1.8,1.3,3.1,1.3c1,0,1.9-0.3,2.6-0.8c0.7-0.5,1.1-1.2,1.3-2H72c-0.1,0.6-0.5,1.2-1,1.5c-0.6,0.4-1.3,0.6-2.1,0.6
				c-1.1,0-1.9-0.4-2.6-1.1c-0.6-0.7-1-1.7-1-3v0h7.5v-0.4c0-1.4-0.4-2.5-1.1-3.3C71,52.8,70,52.4,68.8,52.4z M65.4,56.7
				c0.1-1.1,0.4-2,1-2.7c0.6-0.7,1.4-1,2.4-1c1,0,1.8,0.3,2.4,1c0.6,0.7,0.9,1.6,0.9,2.7H65.4z M85,52.5l-2.4,8.7h0l-2.6-8.7h-0.8
				l-2.6,8.7h0L74,52.5h-0.7l2.8,9.5h0.8l2.6-8.6h0l2.6,8.6H83l2.8-9.5H85z"/>
		</g>
	</g>
</g>
<g id="Reiteration_1_" class="st11">
	<g id="Reiteration" class="st12">
		<g>
			<path class="st32" d="M111.4,56.8c0.5-0.6,0.8-1.4,0.8-2.3c0-1.1-0.4-2-1.1-2.6c-0.7-0.7-1.7-1-3-1h-4.1v12.7h0.7v-5.4h3.4
				c0.2,0,0.3,0,0.4,0l3.2,5.4h0.8l-3.3-5.5C110.1,57.9,110.9,57.5,111.4,56.8z M108,57.6h-3.4v-6h3.4c1.1,0,1.9,0.3,2.5,0.8
				c0.6,0.5,0.9,1.3,0.9,2.2c0,0.9-0.3,1.7-0.9,2.2C109.9,57.3,109.1,57.6,108,57.6z M117.5,54c-1.2,0-2.3,0.4-3,1.3
				c-0.8,0.9-1.1,2.1-1.1,3.5c0,1.5,0.4,2.7,1.2,3.6c0.7,0.9,1.8,1.3,3.1,1.3c1,0,1.9-0.3,2.6-0.8c0.7-0.5,1.1-1.2,1.3-2h-0.7
				c-0.1,0.6-0.5,1.2-1,1.5c-0.6,0.4-1.3,0.6-2.1,0.6c-1.1,0-1.9-0.4-2.6-1.1c-0.6-0.7-1-1.7-1-3v0h7.5v-0.4c0-1.4-0.4-2.5-1.1-3.3
				C119.7,54.4,118.7,54,117.5,54z M114.1,58.4c0.1-1.1,0.4-2,1-2.7c0.6-0.7,1.4-1,2.4-1c1,0,1.8,0.3,2.4,1c0.6,0.7,0.9,1.6,0.9,2.7
				H114.1z M123.6,50.7c-0.2,0-0.3,0.1-0.4,0.2c-0.1,0.1-0.2,0.2-0.2,0.4c0,0.1,0.1,0.3,0.2,0.4c0.1,0.1,0.2,0.2,0.4,0.2
				c0.2,0,0.3-0.1,0.4-0.2c0.1-0.1,0.2-0.2,0.2-0.4c0-0.2-0.1-0.3-0.2-0.4C123.9,50.8,123.8,50.7,123.6,50.7z M123.3,63.6h0.7v-9.5
				h-0.7V63.6z M127.7,62.6c-0.2-0.2-0.3-0.7-0.3-1.2v-6.7h2v-0.6h-2v-2.4h-0.7v2.4h-1.4v0.6h1.4v6.7c0,0.8,0.2,1.3,0.5,1.7
				c0.3,0.3,0.8,0.5,1.5,0.5c0.5,0,0.7,0,0.8,0V63c0,0-0.3,0-0.7,0C128.2,63,127.9,62.9,127.7,62.6z M134.3,54c-1.2,0-2.3,0.4-3,1.3
				c-0.8,0.9-1.1,2.1-1.1,3.5c0,1.5,0.4,2.7,1.2,3.6c0.8,0.9,1.8,1.3,3.1,1.3c1,0,1.9-0.3,2.6-0.8c0.7-0.5,1.1-1.2,1.3-2h-0.7
				c-0.1,0.6-0.5,1.2-1,1.5c-0.6,0.4-1.3,0.6-2.1,0.6c-1.1,0-1.9-0.4-2.6-1.1c-0.6-0.7-1-1.7-1-3v0h7.5v-0.4c0-1.4-0.4-2.5-1.1-3.3
				C136.5,54.4,135.5,54,134.3,54z M130.8,58.4c0.1-1.1,0.4-2,1-2.7c0.6-0.7,1.4-1,2.4-1c1,0,1.8,0.3,2.4,1c0.6,0.7,0.9,1.6,0.9,2.7
				H130.8z M140.6,56L140.6,56l0-1.9h-0.6v9.5h0.7v-5.9c0-0.9,0.2-1.6,0.7-2.2c0.4-0.6,1-0.9,1.8-0.9c0.4,0,0.7,0.1,1,0.2v-0.7
				c-0.3-0.1-0.6-0.2-0.9-0.2C141.8,54,141,54.7,140.6,56z M148.5,54c-1,0-1.8,0.3-2.5,0.8c-0.7,0.5-1,1.2-1.1,2.1h0.7
				c0.1-0.7,0.4-1.3,0.9-1.7c0.5-0.4,1.2-0.6,2-0.6c0.8,0,1.5,0.2,2,0.7c0.5,0.5,0.7,1.1,0.7,1.9v0.8l-3.2,0.2
				c-2.3,0.2-3.4,1.1-3.4,2.7c0,0.8,0.3,1.4,0.9,1.9c0.6,0.5,1.3,0.7,2.3,0.7c0.8,0,1.5-0.2,2.2-0.6c0.6-0.4,1.1-0.9,1.3-1.6h0v2
				h0.7v-6.4c0-1-0.3-1.8-0.9-2.3C150.3,54.3,149.5,54,148.5,54z M151.2,60.1c0,0.8-0.3,1.6-1,2.1c-0.7,0.6-1.5,0.9-2.4,0.9
				c-0.7,0-1.3-0.2-1.8-0.6c-0.5-0.4-0.7-0.9-0.7-1.5c0-1.3,0.9-2,2.8-2.1l3.2-0.2V60.1z M155.4,62.6c-0.2-0.2-0.3-0.7-0.3-1.2v-6.7
				h2v-0.6h-2v-2.4h-0.7v2.4H153v0.6h1.4v6.7c0,0.8,0.2,1.3,0.5,1.7c0.3,0.3,0.8,0.5,1.5,0.5c0.5,0,0.7,0,0.8,0V63c0,0-0.3,0-0.7,0
				C156,63,155.6,62.9,155.4,62.6z M158.8,63.6h0.7v-9.5h-0.7V63.6z M159.1,50.7c-0.2,0-0.3,0.1-0.4,0.2c-0.1,0.1-0.2,0.2-0.2,0.4
				c0,0.1,0.1,0.3,0.2,0.4c0.1,0.1,0.2,0.2,0.4,0.2c0.2,0,0.3-0.1,0.4-0.2c0.1-0.1,0.2-0.2,0.2-0.4c0-0.2-0.1-0.3-0.2-0.4
				C159.4,50.8,159.3,50.7,159.1,50.7z M165.4,54c-1.3,0-2.3,0.4-3,1.3c-0.8,0.9-1.2,2.1-1.2,3.6c0,1.5,0.4,2.7,1.2,3.5
				c0.8,0.9,1.8,1.3,3,1.3c1.3,0,2.3-0.4,3.1-1.3c0.8-0.9,1.2-2.1,1.2-3.5c0-1.5-0.4-2.7-1.2-3.6C167.7,54.4,166.7,54,165.4,54z
				 M168,62c-0.6,0.8-1.5,1.1-2.6,1.1c-1.1,0-1.9-0.4-2.6-1.1c-0.6-0.8-1-1.8-1-3.1c0-1.3,0.3-2.3,1-3.1c0.6-0.8,1.5-1.1,2.6-1.1
				c1.1,0,1.9,0.4,2.6,1.1c0.6,0.8,1,1.8,1,3.1C168.9,60.2,168.6,61.2,168,62z M177.7,55c-0.6-0.6-1.5-0.9-2.5-0.9
				c-0.8,0-1.5,0.2-2.1,0.6c-0.6,0.4-1,0.9-1.2,1.6h0v-2.1h-0.6v9.5h0.7V58c0-1,0.3-1.8,0.9-2.4c0.6-0.6,1.3-0.9,2.3-0.9
				c0.9,0,1.6,0.3,2.1,0.8c0.5,0.5,0.8,1.2,0.8,2.2v6h0.7v-6.1C178.7,56.4,178.4,55.6,177.7,55z"/>
		</g>
	</g>
</g>
<g id="Слой_7_xA0_Изображение_1_" class="st33">
	<g class="st12">
		<g>
			<path class="st9" d="M238.9,70.2c-16.4,0-32.5,0-48.7,0c0-8,0-15.9,0-23.9c16.2,0,32.5,0,48.7,0
				C238.9,54.2,238.9,62.2,238.9,70.2z"/>
		</g>
	</g>
</g>
<g id="help_1_" class="st11">
	<g id="help" class="st12">
		<g>
			<path class="st32" d="M206.6,56.1h-8v-5.9h-0.7v12.7h0.7v-6.2h8v6.2h0.7V50.3h-0.7V56.1z M213.1,53.4c-1.2,0-2.3,0.4-3,1.3
				c-0.8,0.9-1.1,2.1-1.1,3.5c0,1.5,0.4,2.7,1.2,3.6c0.7,0.9,1.8,1.3,3.1,1.3c1,0,1.9-0.3,2.6-0.8c0.7-0.5,1.1-1.2,1.3-2h-0.7
				c-0.1,0.6-0.5,1.2-1,1.5c-0.6,0.4-1.3,0.6-2.1,0.6c-1.1,0-1.9-0.4-2.6-1.1c-0.6-0.7-1-1.7-1-3v0h7.5v-0.4c0-1.4-0.4-2.5-1.1-3.3
				C215.3,53.8,214.3,53.4,213.1,53.4z M209.7,57.7c0.1-1.1,0.4-2,1-2.7c0.6-0.7,1.4-1,2.4-1c1,0,1.8,0.3,2.4,1
				c0.6,0.7,0.9,1.6,0.9,2.7H209.7z M218.9,62.9h0.7V49.7h-0.7V62.9z M228.8,54.7c-0.7-0.9-1.7-1.3-2.9-1.3c-0.8,0-1.6,0.3-2.3,0.8
				c-0.6,0.5-1.1,1.1-1.3,1.9h0v-2.5h-0.6V66h0.7v-5.5h0c0.2,0.8,0.6,1.4,1.3,1.9c0.6,0.5,1.4,0.8,2.3,0.8c1.2,0,2.2-0.4,2.9-1.3
				c0.7-0.9,1.1-2.1,1.1-3.5C229.9,56.8,229.6,55.6,228.8,54.7z M228.3,61.3c-0.6,0.8-1.4,1.2-2.5,1.2c-1,0-1.8-0.4-2.5-1.2
				c-0.6-0.8-1-1.8-1-3c0-1.3,0.3-2.3,1-3.1c0.6-0.8,1.5-1.2,2.5-1.2c1,0,1.8,0.4,2.5,1.2c0.6,0.8,0.9,1.8,0.9,3.1
				C229.3,59.5,228.9,60.5,228.3,61.3z"/>
		</g>
	</g>
</g>
</svg>
