<?xml version="1.0" encoding="utf-8"?>
<!-- Generator: Adobe Illustrator 22.0.1, SVG Export Plug-In . SVG Version: 6.00 Build 0)  -->
<svg version="1.1" xmlns="http://www.w3.org/2000/svg" xmlns:xlink="http://www.w3.org/1999/xlink" x="0px" y="0px"
	 viewBox="0 0 564 810" style="enable-background:new 0 0 564 810;" xml:space="preserve">
<style type="text/css">
	.st0{fill:#1D1C21;}
	.st1{opacity:0.55;fill:#303033;}
	.st2{opacity:0.82;fill:#1C1C1E;}
	.st3{opacity:0.64;fill:#131316;}
	.st4{opacity:0.79;fill:url(#SVGID_1_);}
	.st5{fill:url(#SVGID_2_);}
	.st6{fill:url(#SVGID_3_);}
	.st7{fill:url(#SVGID_4_);}
	.st8{fill:url(#SVGID_5_);}
	.st9{fill:url(#SVGID_6_);}
	.st10{fill:url(#SVGID_7_);}
	.st11{fill:url(#SVGID_8_);}
	.st12{fill:url(#SVGID_9_);}
	.st13{fill:url(#SVGID_10_);}
	.st14{opacity:0.51;}
	.st15{opacity:0.57;}
	.st16{fill:#FFFFFF;}
	.st17{fill:#FFFFFF;stroke:#FFFFFF;stroke-width:8;stroke-miterlimit:10;}
	.st18{display:none;enable-background:new    ;}
	.st19{display:inline;}
	.st20{fill-rule:evenodd;clip-rule:evenodd;fill:#A0A0A0;}
	.st21{display:none;opacity:0.7686;}
	.st22{fill-rule:evenodd;clip-rule:evenodd;fill:#FEFEFE;}
	.st23{fill-rule:evenodd;clip-rule:evenodd;fill:#C02544;}
	.st24{display:none;}
	.st25{fill-rule:evenodd;clip-rule:evenodd;}
	.st26{fill-rule:evenodd;clip-rule:evenodd;fill:#A5A4A4;}
	.st27{fill:none;}
	.st28{fill:#A0A0A0;}
	.st29{display:inline;fill:#A0A0A0;}
	.st30{fill:url(#SVGID_11_);}
	.st31{fill:url(#SVGID_12_);}
	.st32{fill:url(#SVGID_13_);}
	.st33{fill:url(#SVGID_14_);}
	.st34{fill:url(#SVGID_15_);}
	.st35{fill:url(#SVGID_16_);}
	.st36{fill:url(#SVGID_17_);}
	.st37{fill:url(#SVGID_18_);}
	.st38{fill:url(#SVGID_19_);}
	.st39{fill-rule:evenodd;clip-rule:evenodd;fill:#C7C7C7;}
	.st40{display:none;opacity:0.1608;}
</style>
<g id="Слой_2__x2B__Слой_4__x2B__Слой_3__x2B__Слой_5__x2B__Слой_6__x2B__Create_by__x2B__Группа_1__x2B__Слой_8__x2B__Learn_English_x21___x2B__шапка__x2B__кнопки__x2B__иконка__x2B__WordEng__x2B__Learn_new__x2B__Reiteration__x2B__Слой_7__x2B__help__x2B__Слой_2___1_">
	<g>
		
			<image style="overflow:visible;" width="564" height="810" id="Слой_2__x2B__Слой_4__x2B__Слой_3__x2B__Слой_5__x2B__Слой_6__x2B__Create_by__x2B__Группа_1__x2B__Слой_8__x2B__Learn_English_x21___x2B__шапка__x2B__кнопки__x2B__иконка__x2B__WordEng__x2B__Learn_new__x2B__Reiteration__x2B__Слой_7__x2B__help__x2B__Слой_2___2_" xlink:href="7F49357C.png"  transform="matrix(1 0 0 1 -1.960784e-03 -6.862745e-03)">
		</image>
	</g>
</g>
<g id="Слой_27">
	<g id="Слой_28">
		<rect x="0" y="0" class="st0" width="564" height="810"/>
	</g>
	<g id="Слой_31">
		<polygon class="st1" points="0,551 15,571 95,453.9 132.7,532 263,355 388.6,547 445.7,517 513.9,351 564,486.4 564,810 0,810 		
			"/>
	</g>
	<g id="Слой_30">
		<polygon class="st2" points="0,621 68,558.3 141,660 194,532 352.3,471.6 393,592 504,621 564,701 564,810 0,810 		"/>
	</g>
	<g id="Слой_29">
		<polygon class="st3" points="0,702.7 146,746.7 304.7,664 389,758 459.3,692.7 496,762.7 564,756.7 564,810 0,810 		"/>
	</g>
	<g id="Слой_32">
		<linearGradient id="SVGID_1_" gradientUnits="userSpaceOnUse" x1="281.998" y1="809.9932" x2="281.998" y2="-6.862745e-03">
			<stop  offset="0" style="stop-color:#000000;stop-opacity:0"/>
			<stop  offset="1.206560e-02" style="stop-color:#030203;stop-opacity:3.426763e-02"/>
			<stop  offset="0.1025" style="stop-color:#111114;stop-opacity:0.291"/>
			<stop  offset="0.2014" style="stop-color:#1A191E;stop-opacity:0.5719"/>
			<stop  offset="0.3239" style="stop-color:#1D1C21;stop-opacity:0.92"/>
			<stop  offset="0.594" style="stop-color:#1D1C1F;stop-opacity:0.7418"/>
			<stop  offset="1" style="stop-color:#000000;stop-opacity:0.62"/>
		</linearGradient>
		<rect x="0" y="0" class="st4" width="564" height="810"/>
	</g>
	<g id="иконка_xA0_Изображение_1_">
		<g>
			<g>
				<linearGradient id="SVGID_2_" gradientUnits="userSpaceOnUse" x1="95.7673" y1="294.572" x2="114.5968" y2="294.572">
					<stop  offset="0" style="stop-color:#FF224C"/>
					<stop  offset="1" style="stop-color:#C3224C"/>
				</linearGradient>
				<circle class="st5" cx="105.2" cy="294.6" r="9.4"/>
				<linearGradient id="SVGID_3_" gradientUnits="userSpaceOnUse" x1="94.9745" y1="225.1508" x2="113.804" y2="225.1508">
					<stop  offset="0" style="stop-color:#FF224C"/>
					<stop  offset="1" style="stop-color:#C3224C"/>
				</linearGradient>
				<circle class="st6" cx="104.4" cy="225.2" r="9.4"/>
				<linearGradient id="SVGID_4_" gradientUnits="userSpaceOnUse" x1="124.408" y1="185.5593" x2="140.9581" y2="185.5593">
					<stop  offset="0" style="stop-color:#FF224C"/>
					<stop  offset="1" style="stop-color:#C3224C"/>
				</linearGradient>
				<circle class="st7" cx="132.7" cy="185.6" r="8.3"/>
				<linearGradient id="SVGID_5_" gradientUnits="userSpaceOnUse" x1="156.8145" y1="156.1259" x2="176.4367" y2="156.1259">
					<stop  offset="0" style="stop-color:#FF224C"/>
					<stop  offset="1" style="stop-color:#C3224C"/>
				</linearGradient>
				<circle class="st8" cx="166.6" cy="156.1" r="9.8"/>
				<linearGradient id="SVGID_6_" gradientUnits="userSpaceOnUse" x1="199.8249" y1="135.7604" x2="226.979" y2="135.7604">
					<stop  offset="0" style="stop-color:#FF224C"/>
					<stop  offset="1" style="stop-color:#C3224C"/>
				</linearGradient>
				<circle class="st9" cx="213.4" cy="135.8" r="13.6"/>
				<linearGradient id="SVGID_7_" gradientUnits="userSpaceOnUse" x1="124.408" y1="222.921" x2="146.3096" y2="222.921">
					<stop  offset="0" style="stop-color:#FF224C"/>
					<stop  offset="1" style="stop-color:#C3224C"/>
				</linearGradient>
				<circle class="st10" cx="135.4" cy="222.9" r="11"/>
				<linearGradient id="SVGID_8_" gradientUnits="userSpaceOnUse" x1="177.2295" y1="200.6229" x2="224.0059" y2="200.6229">
					<stop  offset="0" style="stop-color:#FF224C"/>
					<stop  offset="1" style="stop-color:#C3224C"/>
				</linearGradient>
				<circle class="st11" cx="200.6" cy="200.6" r="23.4"/>
				<linearGradient id="SVGID_9_" gradientUnits="userSpaceOnUse" x1="127.4306" y1="297.5946" x2="165.8823" y2="297.5946">
					<stop  offset="0" style="stop-color:#FF224C"/>
					<stop  offset="1" style="stop-color:#C3224C"/>
				</linearGradient>
				<circle class="st12" cx="146.7" cy="297.6" r="19.2"/>
				<linearGradient id="SVGID_10_" gradientUnits="userSpaceOnUse" x1="104.6889" y1="324.5446" x2="445.7489" y2="324.5446">
					<stop  offset="0" style="stop-color:#FF224C"/>
					<stop  offset="1" style="stop-color:#C3224C"/>
				</linearGradient>
				<path class="st13" d="M445.7,341.3c0-7.3-1-67.3-40.7-107.5c-15.3-15.4-35.1-26.9-37-27.9c-7.6-4.4-30.4-17.3-45.2-18.9
					c0,0-13.1-1.4-21.9-6c-0.1,0-0.7-0.3-1.5-0.7c-1.5-0.7-2.9-1.2-3.8-1.5c-0.5-0.3-1.3-0.9-2.3-1.5c-1.9-1.2-2.3-1.3-3.8-2.3
					c-1.6-1-2.7-1.8-3.8-3c-0.9-1-1.3-2-1.5-2.3c-1.8-3.5-7.9-11.5-10.6-14.3c-4.5-4.8-12-8.8-20.4-9.1
					c-13.6-0.4-22.3,9.3-23.4,10.6c-0.6,0.6-7.6,9-7.5,20.4c0,4,0.9,7.4,1.2,8.7c1.3,4.8,3.3,8.5,4.8,10.9c0.5,2.7,1,7.8-0.7,13.6
					c-2.7,8.9-9.9,16.4-18.1,18.9c-5.5,1.6-13.8,1.5-19.6,0.7c-1.5-0.2-3.2-0.5-6-0.7c-4.7-0.4-9.3-0.8-12.8,0
					c-8.7,2-13.2,12.4-14.3,15.1c-0.6,1.5-5.8,14,0,23.4c0.4,0.7,0.2,0.3,3,3.8c6,7.5,9,11.3,10.6,14.3c4.5,8.7,3.3,17.5,3,19.6
					c-0.5,3.5-1.4,9.1-6,13.6c-3.6,3.5-7.8,4.6-10.6,5.3c-7,1.8-14.5,0.7-17.3,0c-0.5-0.1-2.2-0.5-4.5-0.7c0,0-2.2-0.2-4.5,0
					c-2.3,0.2-9.1,0.7-14.3,3.8c-7.9,4.7-12.9,15.4-11.3,24.9c1.1,6.7,5.2,11.5,7.5,14.3c0.2,0.3,1,1.1,2.2,2.4
					c2.3,2.5,2.9,3.4,4.6,5.2c1.9,2.1,2.2,2.2,3.8,3.8c1.4,1.5,3.3,3.7,5.3,6.8c1,3.2,2.7,7.9,5,13.4c4.8,11.3,26.3,62.7,81,89.2
					c6.1,3,33,15.5,70.2,15.5c14.2,0,64-0.8,107.1-38.1C444.8,418.5,445.8,353.1,445.7,341.3z"/>
			</g>
			<g class="st14">
				
					<image style="overflow:visible;enable-background:new    ;" width="758" height="791" xlink:href="7F493572.png"  transform="matrix(0.4955 0 0 0.4955 138.2823 166.3335)">
				</image>
			</g>
			<g class="st15">
				
					<image style="overflow:visible;enable-background:new    ;" width="363" height="249" xlink:href="7F493570.png"  transform="matrix(0.4955 0 0 0.4955 283.4674 408.6389)">
				</image>
			</g>
			<g>
				<path class="st16" d="M306.6,471.8c1.1-1.4,2.1-2.9,3-4.2c0.5-0.8,1.8-2.9,3.9-6.4l2.4-4c1.8-3,3-4.9,3.6-5.6
					c1-1.4,1.9-2.1,2.9-2.1c0.7,0,1,0.2,1,0.8c0,0.3-0.1,0.8-0.4,1.4c-0.2,0.4-0.7,1.7-1.6,4c-0.9,2.3-1.6,4.9-2,7.8
					c-0.3,2-0.5,3.8-0.5,5.2c0,0.4,0,0.9,0,1.4c0,0.5,0.1,1.1,0.2,1.7c0.7-0.9,1.6-2.3,2.5-4.1c0.9-1.8,2.2-4.7,4.1-8.6
					c1.7-3.8,3.8-7.6,6.1-11.7c1.9-3.3,4.2-6.7,6.9-10.1c1.2-1.6,2.2-2.4,3-2.4c0.3,0,0.6,0.1,0.9,0.5c0.2,0.2,0.3,0.5,0.3,0.8
					c0,0.4-0.6,1.3-1.8,2.8c-2.3,3-4.6,6.2-6.7,9.9c-2.4,4.2-5.5,10.1-9.1,17.8c-1.6,3.5-2.9,5.9-3.7,7.3c-0.9,1.5-1.9,2.2-3.1,2.2
					c-1,0-1.7-0.4-2.2-1.3c-0.5-0.9-0.7-2.2-0.7-3.9c0-2.8,0.4-6.2,1.4-10.3c-0.9,1.1-1.9,2.7-3.2,4.8c-0.9,1.5-1.8,3-2.6,4.4
					c-1.2,2-2,3.4-2.4,4.1c-0.6,1.1-1.2,1.9-1.9,2.6c-0.5,0.4-1,0.7-1.7,0.7c-0.8,0-1.3-0.3-1.7-1c-0.2-0.4-0.4-1-0.4-1.7
					c0-4.6,2.4-12.7,7.2-24.5c2.3-5.7,3.7-9.3,4.1-10.6c0.3-1.3,0.7-2.1,1-2.4c0.4-0.5,1-0.7,1.6-0.7c0.8,0,1.3,0.4,1.3,1.2
					c0,1-0.3,2.5-1.1,4.5c-0.8,2.3-2.1,5.5-4,9.6c-1.2,2.9-2.1,5-2.6,6.4C308.1,464.9,306.9,469.6,306.6,471.8z"/>
				<path class="st16" d="M339.9,454.4c1.6,0,2.4,0.9,2.4,2.9c0,2.5-1.2,5.8-3.5,9.7c-2.6,4.2-5.1,6.3-7.4,6.3
					c-1.1,0-1.9-0.5-2.4-1.5c-0.2-0.5-0.4-1.1-0.4-1.9c0-2.4,0.8-5.1,2.5-8c1.6-2.7,3.4-4.7,5.5-6.2
					C337.7,454.8,338.9,454.4,339.9,454.4z M336.9,465.2c-0.5-0.4-0.7-0.7-0.7-0.9c0-0.1,0.3-0.6,0.9-1.3c1.7-1.9,2.6-3.5,2.6-4.7
					c0-0.1,0-0.3-0.1-0.4c-0.1-0.3-0.4-0.4-0.7-0.4c-0.6,0-1.5,0.6-2.7,1.8c-1.5,1.5-2.7,3.1-3.5,4.8c-0.9,1.9-1.4,3.4-1.4,4.6
					c0,0.3,0.1,0.6,0.2,0.8c0.2,0.3,0.5,0.5,0.9,0.5c0.9,0,1.9-0.7,3-2.1c0.4-0.6,0.8-1.2,1.1-1.8
					C336.7,465.6,336.9,465.2,336.9,465.2z"/>
				<path class="st16" d="M343.7,463.4c1.9-2,4.1-4,6.5-5.9c0.9-0.7,1.8-1.3,2.8-1.9c0.5-0.3,0.8-0.4,0.9-0.4c0.3,0,0.6,0.2,0.8,0.6
					c0.1,0.2,0.2,0.4,0.2,0.6c0,0.3-0.3,0.8-1.1,1.4c-1.9,1.5-2.9,2.7-2.9,3.5c0,0.4,0.2,0.6,0.7,0.6c0.8,0,2.2-0.7,4.3-2
					c0.3-0.2,0.6-0.3,0.8-0.3c0.1,0,0.3,0.1,0.4,0.2c0.1,0.1,0.2,0.3,0.2,0.5c0,0.6-0.8,1.4-2.4,2.6c-1.7,1.3-3.3,1.9-4.8,1.9
					c-0.6,0-1.2-0.1-1.7-0.5c-0.4-0.2-0.6-0.7-0.6-1.4c0-0.5,0.2-1,0.6-1.6c-1.5,1.1-3.3,2.9-5.4,5.5c-1.2,1.6-2.4,3.6-3.5,5.9
					c-0.4,0.9-1,1.3-1.6,1.3c-0.7,0-1-0.3-1-1s0.5-2.4,1.7-5.3c1.6-4.2,3.4-7.5,5.2-9.8c1.1-1.4,2-2.1,2.8-2.1
					c0.2,0,0.5,0.1,0.7,0.2c0.2,0.2,0.4,0.4,0.4,0.7c0,0.3-0.2,0.7-0.6,1.2c-0.1,0.1-0.6,0.7-1.5,1.9
					C344.8,461.2,344.2,462.4,343.7,463.4z"/>
				<path class="st16" d="M364.1,456.1c1.9-4,3.7-7.5,5.5-10.5c1.6-2.9,2.8-4.7,3.4-5.5c0.6-0.8,1.3-1.2,1.8-1.2
					c0.3,0,0.6,0.1,0.8,0.4c0.2,0.2,0.3,0.5,0.3,0.8c0,0.4-0.3,1.2-1,2.2c-2.8,4.5-5.3,9-7.6,13.6c-2.7,5.4-4,9.4-4,12.1
					c0,1.1,0.2,1.9,0.6,2.6c0.1,0.1,0.4,0.4,1,0.9c0.1,0.1,0.1,0.3,0.1,0.6c0,0.4-0.1,0.7-0.4,1c-0.3,0.3-0.6,0.5-1,0.5
					c-0.4,0-0.9-0.2-1.5-0.8c-0.7-0.7-1.2-1.6-1.4-2.6c0-0.4-0.1-1.2-0.2-2.4c-2,3.6-3.9,5.5-5.7,5.5c-1,0-1.9-0.6-2.5-1.8
					c-0.4-0.8-0.6-1.7-0.6-2.7c0-3,1.1-6,3.3-9c2.2-3,4.5-4.5,7-4.5C362.7,455.4,363.3,455.7,364.1,456.1z M363.1,458.5
					c-0.5-0.3-1-0.5-1.3-0.5c-1.6,0-3.1,1-4.6,3c-1.9,2.6-2.8,5.1-2.8,7.4c0,0.3,0,0.5,0.1,0.8c0.2,0.5,0.6,0.7,1,0.7
					c0.7,0,1.5-0.6,2.4-1.9c1.3-1.7,2.5-3.8,3.6-6.1c0.4-0.8,0.7-1.6,1.1-2.4l0.2-0.5L363.1,458.5z"/>
				<path class="st16" d="M377.9,451.6l1.1-0.2c4.2-0.8,7.2-1.2,8.9-1.2c1.2,0,1.8,0.5,1.8,1.5c0,0.6-0.2,1-0.7,1.2
					c-0.3,0.1-0.9,0.2-1.7,0.3c-5,0.3-8.7,0.9-11.3,1.7c-1,1.5-2.5,4.4-4.5,8.5c-1.1,2.4-2,4.7-2.6,6.7c0.4-0.1,0.9-0.3,1.3-0.4
					c2.8-0.9,4.9-1.6,6.2-1.9c1.8-0.3,3.5-0.5,5-0.5c1,0,1.8,0.1,2.3,0.4c0.4,0.2,0.6,0.6,0.6,1.2c0,0.6-0.2,1-0.8,1.2
					c-0.2,0.1-0.8,0.1-1.8,0.1c-5.1,0.2-9.6,1.5-13.6,3.7c-0.5,0.3-0.9,0.4-1.3,0.4c-0.5,0-1-0.3-1.4-0.8c-0.3-0.4-0.5-0.9-0.5-1.4
					c0-0.5,0.6-2.2,1.8-5.3c1.8-4.6,4.3-9.7,7.4-15.2c0.9-1.7,2.7-4.5,5.4-8.4c0.6-0.9,1.2-1.8,1.7-2.7c-0.7-0.2-1.1-0.7-1.1-1.5
					c0-0.6,0.3-1,0.9-1.3c1-0.4,2.9-0.9,5.7-1.3c4.2-0.6,7.8-1,10.8-1c1.7,0,2.5,0.4,2.5,1.3c0,0.6-0.3,1.1-0.8,1.5
					c-0.3,0.2-0.7,0.3-1.4,0.3c0,0-0.2,0-0.6,0c-0.3,0-0.6,0-0.9,0c-1.4,0-3.4,0.1-6,0.4c-2.3,0.2-4.2,0.6-5.8,1.1
					c0.2,0.3,0.3,0.5,0.3,0.7c0,0.3-0.4,1.1-1.3,2.2l-1.4,2.1C380,448,378.7,450.2,377.9,451.6z"/>
				<path class="st16" d="M388.5,463c0.2-0.2,0.5-0.4,0.7-0.7c4-3.9,6.7-5.8,8-5.8c0.7,0,1.1,0.4,1.1,1.2c0,0.6-0.3,1.2-1,2
					c-3.7,4.3-5.5,8-5.5,11.3c0,1,0.3,2.1,0.8,3c0.2,0.4,0.4,0.8,0.4,1c0,0.2-0.1,0.4-0.3,0.6c-0.2,0.2-0.5,0.4-0.9,0.4
					c-0.8,0-1.4-0.5-2-1.5c-0.5-0.9-0.8-2.1-0.8-3.4c0-2.6,1-5.5,2.9-8.6c-2.6,1.7-5,4.6-7.3,8.9c-0.6,1-1.2,1.5-1.8,1.5
					c-0.3,0-0.6-0.1-0.8-0.3c-0.2-0.2-0.4-0.6-0.4-1c0-1,1.2-3.8,3.5-8.1c1.3-2.4,2.3-4.1,3-5.2c0.7-1,1.3-1.6,1.9-1.6
					c0.2,0,0.5,0.1,0.7,0.3c0.2,0.2,0.4,0.6,0.4,0.9c0,0.4-0.3,1-0.8,1.8C389.7,461,389,462.1,388.5,463z"/>
				<path class="st16" d="M403,470.4c2-1.5,3.6-2.9,4.6-4.1c1.5-1.8,2.5-3.2,3.1-4.4c0.3-0.5,0.6-0.7,0.9-0.7c0.4,0,0.7,0.2,0.7,0.6
					c0,0.5-0.3,1.4-1.1,2.6c-2.3,3.7-5.6,6.9-10.2,9.6c-2.1,4.4-3.7,7.4-4.7,9c-2.6,4.1-5.2,6.2-7.5,6.2c-1.2,0-2.1-0.5-2.6-1.4
					c-0.3-0.5-0.4-1.2-0.4-1.9c0-3,1.9-5.9,5.8-8.7c0.6-0.4,3.1-1.9,7.4-4.3c0.8-1.8,1.5-3.2,1.9-4.2c-2,2.1-3.7,3.2-5,3.2
					c-0.8,0-1.5-0.4-1.9-1.3c-0.3-0.5-0.4-1.1-0.4-1.7c0-1.4,0.5-3.2,1.7-5.3c1.6-3.1,3.6-5.6,5.8-7.4c1.9-1.5,3.6-2.3,5-2.3
					c0.7,0,1.4,0.3,1.9,0.8c0.3,0.3,0.5,0.9,0.5,1.6c0,0.9-0.3,2-0.9,3.3c0.4,0.4,0.6,0.7,0.6,0.9c0,0.1-0.1,0.3-0.3,0.6
					c-0.5,0.7-1.3,2-2.5,4C404.6,466.9,403.7,468.6,403,470.4z M397.3,476.3c-2.5,1.1-4.8,2.7-6.7,4.9c-0.9,1-1.5,2.1-1.9,3.2
					c-0.1,0.3-0.1,0.6-0.1,0.8c0,0.2,0,0.4,0.1,0.6c0.2,0.3,0.5,0.5,0.9,0.5c1.2,0,2.6-1.3,4.2-3.8
					C395.2,480.5,396.3,478.4,397.3,476.3z M402.8,463.8c-0.2-0.3-0.4-0.5-0.4-0.6c0-0.1,0.1-0.4,0.4-0.6c0.9-0.9,1.7-1.9,2.3-2.9
					c0.5-0.8,0.7-1.4,0.7-1.8c0-0.5-0.2-0.8-0.7-0.8c-0.8,0-2,0.8-3.5,2.4c-1.8,1.9-3.2,3.9-4.3,6.2c-0.5,1.1-0.7,2-0.7,2.6
					c0,0.3,0.1,0.6,0.2,0.8c0.1,0.1,0.4,0.2,0.6,0.2c0.7,0,1.6-0.7,2.8-2.1c0.7-0.9,1.4-1.7,1.9-2.6
					C402.6,464.1,402.8,463.8,402.8,463.8z"/>
			</g>
			<g>
				<path class="st17" d="M181.3,413.9c5.5-7.2,10.5-14.2,14.8-20.9c2.5-3.9,9-14.6,19.6-32.1l12.2-19.9c9-14.7,15-24.1,17.9-28.2
					c4.9-7,9.7-10.5,14.5-10.5c3.4,0,5.2,1.3,5.2,4c0,1.8-0.7,4.1-2,6.9c-0.9,1.9-3.6,8.6-8,19.9c-4.4,11.5-7.8,24.5-10.2,38.7
					c-1.7,10.1-2.6,18.8-2.6,25.9c0,2.1,0.1,4.4,0.3,6.9s0.6,5.3,1.1,8.4c3.8-4.8,8-11.6,12.6-20.6c4.4-9,11.2-23.2,20.4-42.9
					c8.7-18.7,18.9-38.2,30.5-58.3c9.6-16.6,21-33.4,34.2-50.4c6.2-8,11.2-12,14.9-12c1.6,0,3.1,0.8,4.5,2.4
					c0.9,1.1,1.4,2.4,1.4,3.9c0,1.9-3,6.6-8.9,14.2c-11.6,14.8-22.8,31.2-33.4,49.2c-12.1,20.8-27.3,50.4-45.6,88.8
					c-8.1,17.2-14.3,29.4-18.6,36.7c-4.5,7.4-9.7,11.2-15.5,11.2c-5,0-8.7-2.2-11.2-6.5c-2.5-4.4-3.7-10.8-3.7-19.4
					c0-13.8,2.3-31,6.9-51.4c-4.5,5.6-9.8,13.6-15.8,23.9c-4.5,7.6-8.8,15-13,22.1c-6.1,10.2-10.2,17.1-12.2,20.6
					c-3.1,5.5-6.2,9.8-9.5,12.9c-2.4,2.3-5.2,3.4-8.5,3.4c-3.9,0-6.7-1.7-8.5-5c-1.2-2.3-1.9-5.1-1.9-8.5
					c0-22.7,11.9-63.5,35.8-122.2c11.6-28.7,18.4-46.4,20.4-52.9c1.7-6.3,3.4-10.3,5.2-12c2.3-2.5,5-3.7,8-3.7c4.2,0,6.3,2,6.3,6
					c0,4.9-1.8,12.3-5.5,22.2c-4.1,11.2-10.7,27.2-19.8,47.9c-6.2,14.2-10.6,24.9-13.2,32C189,379.6,182.6,402.7,181.3,413.9z"/>
				<path class="st17" d="M356.7,313.4l5.7-1c21.1-4,35.8-6,44.2-6c6,0,9,2.4,9,7.3c0,3.1-1.2,5.1-3.6,6.1c-1.6,0.7-4.4,1.2-8.3,1.4
					c-24.7,1.5-43.6,4.5-56.4,8.7c-5.1,7.5-12.5,21.7-22.2,42.3c-5.6,12-10,23.2-13.2,33.4c2.2-0.7,4.4-1.5,6.4-2.3
					c14.1-4.8,24.5-7.9,31.2-9.3c8.9-1.7,17.2-2.6,25.1-2.6c5.2,0,9,0.6,11.4,1.9c2.2,1,3.3,3.1,3.3,6c0,3-1.3,4.9-4,5.9
					c-1.2,0.4-4.2,0.6-8.9,0.7c-25.3,1.3-47.9,7.5-67.6,18.6c-2.6,1.4-4.8,2.1-6.6,2.1c-2.7,0-5.1-1.4-7.2-4.2
					c-1.8-2.3-2.7-4.6-2.7-7c0-2.4,3-11.2,9-26.4c9.1-23,21.5-48.2,37.1-75.7c4.7-8.3,13.6-22.3,26.7-42c3-4.6,5.8-9.1,8.6-13.5
					c-3.8-0.9-5.7-3.5-5.7-7.6c0-3.1,1.5-5.3,4.6-6.7c5-2.3,14.5-4.6,28.6-6.7c21.1-3.3,39-4.9,53.7-4.9c8.3,0,12.5,2.2,12.5,6.6
					c0,3.1-1.4,5.6-4.3,7.7c-1.4,1-3.7,1.6-6.9,1.6c-0.2,0-1.3,0-3.3-0.1c-1.4,0-3,0-4.7,0c-6.9,0-16.8,0.7-29.8,2.1
					c-11.3,1.2-21,3.1-29.1,5.5c0.9,1.4,1.4,2.6,1.4,3.4c0,1.6-2.2,5.4-6.7,11.2l-6.9,10.6C367.4,295.2,360.6,306.1,356.7,313.4z"/>
			</g>
		</g>
	</g>
</g>
<g id="Create_by_1_" class="st18">
	<g id="Create_by" class="st19">
		<g>
			<path class="st20" d="M253.4,772.9c1.1,0,2,0.3,2.8,1c0.8,0.7,1.3,1.5,1.4,2.6h0.7c-0.1-1.2-0.7-2.2-1.6-3
				c-0.9-0.8-2-1.2-3.3-1.2c-1.7,0-3,0.6-4,1.7c-1,1.2-1.5,2.7-1.5,4.7c0,2,0.5,3.6,1.5,4.8c1,1.2,2.3,1.8,4,1.8
				c1.3,0,2.4-0.4,3.4-1.1c0.9-0.7,1.4-1.7,1.6-2.9h-0.7c-0.1,1-0.6,1.8-1.4,2.4c-0.8,0.6-1.7,0.9-2.9,0.9c-1.5,0-2.6-0.5-3.5-1.6
				c-0.9-1.1-1.3-2.5-1.3-4.3c0-1.8,0.4-3.2,1.3-4.2C250.8,773.5,252,772.9,253.4,772.9z M260.6,777.6L260.6,777.6l0-1.9h-0.6v9.5
				h0.7v-5.9c0-0.9,0.2-1.6,0.6-2.2c0.4-0.6,1-0.9,1.7-0.9c0.4,0,0.7,0.1,1,0.2v-0.7c-0.3-0.1-0.5-0.2-0.9-0.2
				C261.8,775.6,260.9,776.2,260.6,777.6z M268.2,775.6c-1.2,0-2.2,0.4-3,1.3c-0.8,0.9-1.1,2.1-1.1,3.5c0,1.5,0.4,2.7,1.1,3.6
				c0.7,0.9,1.8,1.3,3,1.3c1,0,1.9-0.3,2.6-0.8c0.7-0.5,1.1-1.2,1.2-2h-0.7c-0.1,0.6-0.5,1.2-1,1.5c-0.6,0.4-1.3,0.6-2.1,0.6
				c-1.1,0-1.9-0.4-2.5-1.1c-0.6-0.7-1-1.7-1-3v0h7.4v-0.4c0-1.4-0.4-2.5-1.1-3.3C270.4,776,269.4,775.6,268.2,775.6z M264.8,780
				c0.1-1.1,0.4-2,1-2.7c0.6-0.7,1.4-1,2.4-1c1,0,1.8,0.3,2.4,1c0.6,0.7,0.9,1.6,0.9,2.7H264.8z M277.4,775.6c-1,0-1.8,0.3-2.4,0.8
				c-0.6,0.5-1,1.2-1.1,2.1h0.7c0.1-0.7,0.4-1.3,0.9-1.7c0.5-0.4,1.2-0.6,1.9-0.6c0.8,0,1.5,0.2,2,0.7c0.5,0.5,0.7,1.1,0.7,1.9v0.8
				l-3.2,0.2c-2.2,0.2-3.3,1.1-3.3,2.7c0,0.8,0.3,1.4,0.9,1.9c0.6,0.5,1.3,0.7,2.2,0.7c0.8,0,1.5-0.2,2.1-0.6
				c0.6-0.4,1.1-0.9,1.3-1.6h0v2h0.7v-6.4c0-1-0.3-1.8-0.9-2.3C279.2,775.9,278.4,775.6,277.4,775.6z M280.1,781.7
				c0,0.8-0.3,1.6-1,2.1c-0.7,0.6-1.5,0.9-2.4,0.9c-0.7,0-1.3-0.2-1.8-0.6c-0.5-0.4-0.7-0.9-0.7-1.5c0-1.3,0.9-2,2.8-2.1l3.1-0.2
				V781.7z M284.3,784.2c-0.2-0.2-0.3-0.7-0.3-1.2v-6.7h1.9v-0.6h-1.9v-2.4h-0.7v2.4h-1.4v0.6h1.4v6.7c0,0.8,0.2,1.3,0.5,1.7
				c0.3,0.3,0.8,0.5,1.5,0.5c0.5,0,0.7,0,0.8,0v-0.6c0,0-0.3,0-0.7,0C284.8,784.6,284.5,784.4,284.3,784.2z M290.8,775.6
				c-1.2,0-2.2,0.4-3,1.3c-0.8,0.9-1.1,2.1-1.1,3.5c0,1.5,0.4,2.7,1.1,3.6c0.7,0.9,1.8,1.3,3,1.3c1,0,1.9-0.3,2.6-0.8
				c0.7-0.5,1.1-1.2,1.2-2H294c-0.1,0.6-0.5,1.2-1,1.5c-0.6,0.4-1.3,0.6-2.1,0.6c-1.1,0-1.9-0.4-2.5-1.1c-0.6-0.7-1-1.7-1-3v0h7.4
				v-0.4c0-1.4-0.4-2.5-1.1-3.3C293,776,292,775.6,290.8,775.6z M287.4,780c0.1-1.1,0.4-2,1-2.7c0.6-0.7,1.4-1,2.4-1
				c1,0,1.8,0.3,2.4,1c0.6,0.7,0.9,1.6,0.9,2.7H287.4z M304.2,775.6c-0.8,0-1.6,0.2-2.2,0.7c-0.6,0.5-1.1,1.1-1.3,1.9h0v-6.3H300
				v13.2h0.7v-2.5h0c0.2,0.8,0.7,1.5,1.3,1.9c0.6,0.5,1.4,0.7,2.2,0.7c1.2,0,2.1-0.4,2.8-1.3c0.7-0.9,1.1-2.1,1.1-3.5
				s-0.4-2.6-1.1-3.5C306.3,776,305.4,775.6,304.2,775.6z M306.5,783.5c-0.6,0.8-1.4,1.2-2.4,1.2c-1,0-1.8-0.4-2.5-1.2
				c-0.6-0.8-1-1.8-1-3c0-1.2,0.3-2.3,1-3c0.6-0.8,1.5-1.2,2.5-1.2c1,0,1.8,0.4,2.4,1.2c0.6,0.8,0.9,1.8,0.9,3.1
				C307.5,781.7,307.2,782.7,306.5,783.5z M315.9,775.7l-3.2,8.8h0l-3.2-8.8h-0.7l3.6,9.6l-0.2,0.6c-0.2,0.6-0.5,1.1-0.7,1.3
				c-0.3,0.3-0.6,0.4-1,0.4c-0.2,0-0.3,0-0.5-0.1v0.6c0.2,0.1,0.3,0.1,0.5,0.1c0.7,0,1.2-0.2,1.5-0.6c0.4-0.4,0.7-1.1,1.2-2.3
				l3.6-9.8H315.9z"/>
		</g>
	</g>
</g>
<g id="Слой_8_xA0_Изображение_1_" class="st21">
	<g class="st19">
		
			<image style="overflow:visible;" width="223" height="69" id="Слой_8_xA0_Изображение_2_" xlink:href="7F493571.png"  transform="matrix(1 0 0 1 30.998 670.9932)">
		</image>
	</g>
</g>
<g id="next_1_" class="st18">
	<g id="next" class="st19">
		<g>
			<path class="st22" d="M105.3,714.8h4.1V707h8v-3.3h-8v-5.3h8.8v-3.4h-12.9V714.8z M122.5,694c-0.6,0-1.1,0.2-1.5,0.6
				c-0.4,0.4-0.6,0.9-0.6,1.5c0,0.6,0.2,1.1,0.6,1.5c0.4,0.4,0.9,0.6,1.5,0.6c0.6,0,1.1-0.2,1.5-0.6c0.4-0.4,0.6-0.9,0.6-1.5
				c0-0.6-0.2-1.1-0.6-1.5C123.6,694.1,123.1,694,122.5,694z M120.5,714.8h4v-15h-4V714.8z M136,699.5c-2.3,0-4,1-4.8,2.9h-0.1v-2.7
				h-3.9v15h4v-8.6c0-1,0.3-1.8,0.9-2.4c0.6-0.6,1.4-0.9,2.3-0.9c0.9,0,1.7,0.3,2.2,0.8c0.5,0.5,0.8,1.3,0.8,2.3v8.8h4v-9.7
				c0-1.8-0.5-3.1-1.4-4.1C139,700,137.7,699.5,136,699.5z M144.1,714.8h4v-15h-4V714.8z M146.1,694c-0.6,0-1.1,0.2-1.5,0.6
				c-0.4,0.4-0.6,0.9-0.6,1.5c0,0.6,0.2,1.1,0.6,1.5c0.4,0.4,0.9,0.6,1.5,0.6c0.6,0,1.1-0.2,1.5-0.6c0.4-0.4,0.6-0.9,0.6-1.5
				c0-0.6-0.2-1.1-0.6-1.5C147.2,694.1,146.7,694,146.1,694z M159.3,706.1l-2.8-0.6c-1.3-0.3-2-0.8-2-1.6c0-0.5,0.2-0.9,0.7-1.2
				c0.4-0.3,1-0.4,1.7-0.4c0.8,0,1.4,0.2,1.8,0.5c0.5,0.4,0.7,0.8,0.8,1.4h3.7c0-1.4-0.6-2.6-1.8-3.5c-1.1-0.9-2.6-1.3-4.5-1.3
				c-1.9,0-3.4,0.4-4.6,1.3c-1.1,0.9-1.7,2-1.7,3.4c0,2.2,1.4,3.7,4.3,4.3l2.8,0.6c0.7,0.2,1.2,0.4,1.5,0.6c0.3,0.2,0.4,0.5,0.4,0.9
				c0,0.5-0.2,0.9-0.7,1.2c-0.5,0.3-1.1,0.4-1.9,0.4c-1.7,0-2.7-0.7-2.9-2h-3.9c0.1,1.5,0.7,2.6,1.9,3.5c1.2,0.9,2.8,1.3,4.7,1.3
				c2,0,3.6-0.4,4.8-1.3c1.2-0.9,1.8-2.1,1.8-3.5c0-1.1-0.3-2-1-2.6C161.9,707,160.8,706.5,159.3,706.1z M178.5,701.1
				c-1-1-2.3-1.5-4-1.5c-2.4,0-4,1-4.9,2.9h-0.1v-8.3h-3.9v20.7h4v-8.5c0-1,0.3-1.8,0.9-2.5c0.6-0.6,1.4-0.9,2.4-0.9
				c0.9,0,1.7,0.3,2.2,0.8c0.5,0.6,0.8,1.3,0.8,2.3v8.8h4v-9.6C180,703.4,179.5,702.1,178.5,701.1z"/>
		</g>
	</g>
</g>
<g id="Not_true_x21__1_" class="st18">
	<g id="Not_true_x21_" class="st19">
		<g>
			<path class="st23" d="M178.8,534h-0.2l-23.1-32.9h-3.7v39.5h3.7v-33h0.2l23.2,33h3.6v-39.5h-3.7V534z M206.2,500.4
				c-5.5,0-9.8,1.8-13.1,5.5c-3.2,3.7-4.8,8.6-4.8,14.9c0,6.3,1.6,11.2,4.8,14.8c3.2,3.7,7.6,5.5,13.1,5.5c5.5,0,9.9-1.8,13.1-5.5
				c3.2-3.6,4.8-8.6,4.8-14.8c0-6.3-1.6-11.2-4.8-14.9C216,502.3,211.7,500.4,206.2,500.4z M216.5,533.1c-2.6,3-6,4.6-10.3,4.6
				c-4.3,0-7.7-1.5-10.3-4.6c-2.5-3-3.8-7.1-3.8-12.3c0-5.2,1.3-9.3,3.8-12.3c2.5-3,6-4.6,10.3-4.6c4.3,0,7.8,1.5,10.3,4.6
				c2.5,3,3.8,7.2,3.8,12.3C220.3,526,219,530.1,216.5,533.1z M224.6,504.5h13.2v36.1h3.7v-36.1h13.2v-3.4h-30.2V504.5z
				 M269.3,504.5h13.2v36.1h3.7v-36.1h13.2v-3.4h-30.2V504.5z M328.7,519.8c1.5-2,2.2-4.4,2.2-7.2c0-3.5-1.1-6.3-3.4-8.4
				c-2.3-2.1-5.4-3.1-9.2-3.1h-14.1v39.5h3.7v-16.2h10.7l9.1,16.2h4.3l-9.5-16.8C325.1,523.1,327.2,521.8,328.7,519.8z M318,521.1
				h-10.1v-16.7h10c2.9,0,5.1,0.7,6.8,2.2c1.6,1.5,2.5,3.5,2.5,6.1c0,2.6-0.8,4.7-2.4,6.2C323.1,520.3,320.8,521.1,318,521.1z
				 M363.8,526.5c0,3.4-1,6-3.1,8.1c-2.1,2.1-4.9,3.1-8.5,3.1c-3.6,0-6.4-1-8.5-3.1c-2-2-3.1-4.7-3.1-8.1v-25.5H337v25.7
				c0,4.3,1.4,7.8,4.1,10.4c2.8,2.7,6.5,4,11.2,4c4.7,0,8.4-1.3,11.2-4c2.7-2.6,4.1-6.1,4.1-10.4v-25.7h-3.7V526.5z M374.9,540.5
				h23.8v-3.4h-20.1V522h19.1v-3.3h-19.1v-14.2h20.1v-3.4h-23.8V540.5z M410.3,528.1l0.2-27h-3.8l0.2,27H410.3z M410.5,536.3
				c-0.5-0.5-1.1-0.7-1.9-0.7c-0.7,0-1.3,0.2-1.8,0.7c-0.5,0.5-0.8,1.1-0.8,1.9c0,0.7,0.3,1.3,0.8,1.8c0.5,0.5,1.1,0.8,1.8,0.8
				c0.7,0,1.3-0.3,1.9-0.8c0.5-0.5,0.8-1.1,0.8-1.8C411.2,537.5,411,536.8,410.5,536.3z"/>
		</g>
	</g>
</g>
<g id="Слой_8_копия_xA0_Изображение_1_" class="st21">
	<g class="st19">
		
			<image style="overflow:visible;" width="223" height="69" id="Слой_8_копия_xA0_Изображение_2_" xlink:href="7F49356E.png"  transform="matrix(1 0 0 1 311.998 670.9932)">
		</image>
	</g>
</g>
<g id="Слой_9_копия_3_xA0_Изображение_1_" class="st24">
	<g class="st19">
		
			<image style="overflow:visible;" width="504" height="59" id="Слой_9_копия_3_xA0_Изображение_2_" xlink:href="7F49356F.png"  transform="matrix(1 0 0 1 30.998 410.9931)">
		</image>
	</g>
</g>
<g id="Слой_9_копия_4_xA0_Изображение_1_" class="st24">
	<g class="st19">
		
			<image style="overflow:visible;" width="7" height="59" id="Слой_9_копия_4_xA0_Изображение_2_" xlink:href="7F49358C.png"  transform="matrix(1 0 0 1 30.998 410.9931)">
		</image>
	</g>
</g>
<g id="Слой_9_копия_5_xA0_Изображение_1_" class="st24">
	<g class="st19">
		
			<image style="overflow:visible;" width="3" height="52" id="Слой_9_копия_5_xA0_Изображение_2_" xlink:href="7F49358D.png"  transform="matrix(1 0 0 1 171.998 414.9931)">
		</image>
	</g>
</g>
<g id="Рыба_1_" class="st18">
	<g id="Рыба" class="st19">
		<g>
			<path class="st25" d="M61.9,418.1h-14v39.5h3.7v-14.9h10.3c3.8,0,6.8-1.1,9.2-3.4c2.4-2.3,3.5-5.2,3.5-8.9s-1.2-6.6-3.5-8.9
				C68.7,419.3,65.7,418.1,61.9,418.1z M68.2,437c-1.7,1.6-4.1,2.4-7.1,2.4h-9.4v-17.9h9.4c3,0,5.4,0.8,7.1,2.4
				c1.7,1.6,2.6,3.8,2.6,6.6C70.8,433.2,69.9,435.4,68.2,437z M90.3,438.2h-6.4v-10h-3.6v29.4h10c3.2,0,5.8-0.9,7.8-2.6
				c2-1.8,2.9-4.1,2.9-7.1c0-3-1-5.3-2.9-7.1C96.1,439,93.6,438.2,90.3,438.2z M95.5,452.7c-1.3,1.2-3,1.8-5.2,1.8h-6.4v-13.3h6.4
				c2.2,0,3.9,0.6,5.1,1.8c1.3,1.2,1.9,2.8,1.9,4.9C97.4,449.9,96.8,451.5,95.5,452.7z M105.4,457.6h3.6v-29.4h-3.6V457.6z
				 M128.8,428.5c-5.2,0-8.7,2.1-10.7,6.2H118c0.6-5.4,1.8-9.1,3.4-11.2c1.8-2.2,4.8-3.4,9-3.5c1.3,0,2.3,0,3.1-0.1
				c3.2-0.2,5.2-0.7,6.3-1.5v-3.2c-1.4,0.7-3.5,1.1-6.5,1.3c-0.8,0.1-1.8,0.1-3.1,0.1c-5.7,0.1-9.7,2.1-12,5.7
				c-2.3,3.6-3.4,9.7-3.4,18.3c0,5.7,1.1,10,3.4,12.9c2.3,3,5.6,4.5,10,4.5c4.1,0,7.4-1.3,9.8-4c2.4-2.7,3.6-6.4,3.6-11
				c0-4.4-1.2-8-3.5-10.6C135.9,429.8,132.8,428.5,128.8,428.5z M135.5,451.8c-1.8,2.1-4.1,3.1-7.2,3.1c-3,0-5.4-1-7.2-3.1
				c-1.7-2.1-2.6-5-2.6-8.7c0-3.5,0.9-6.3,2.6-8.3c1.7-2,4.1-3,7.2-3c3,0,5.4,1,7.2,3c1.7,2,2.6,4.8,2.6,8.3
				C138.1,446.8,137.2,449.7,135.5,451.8z M166.7,430.4c-2-1.7-4.7-2.6-8.1-2.6c-3.1,0-5.7,0.8-7.8,2.5c-2.1,1.6-3.2,3.8-3.4,6.3
				h3.5c0.3-1.8,1.2-3.1,2.5-4.1c1.3-1,3.1-1.5,5.1-1.5c2.4,0,4.2,0.6,5.5,1.8c1.3,1.2,1.9,2.9,1.9,5v2.5l-9.1,0.6
				c-7.2,0.5-10.8,3.3-10.8,8.4c0,2.5,0.9,4.6,2.7,6.2c1.8,1.6,4.2,2.4,7.1,2.4c2.3,0,4.3-0.5,6.2-1.6c1.8-1.1,3.1-2.5,3.9-4.3h0.1
				v5.6h3.4v-20.1C169.7,434.6,168.7,432.2,166.7,430.4z M166.1,446.5c0,2.3-0.9,4.3-2.7,5.9c-1.8,1.6-4,2.4-6.6,2.4
				c-2,0-3.7-0.5-5-1.5c-1.3-1-1.9-2.3-1.9-3.9c0-3.4,2.5-5.2,7.6-5.6l8.6-0.6V446.5z"/>
		</g>
	</g>
</g>
<g id="Answer:_1_" class="st18">
	<g id="Answer:" class="st19">
		<g>
			<path class="st22" d="M38.8,377.2l-7.5,19.7h1.2l2.4-6.6h8.9l2.5,6.6h1.2l-7.5-19.7H38.8z M35.2,389.4l4-10.8h0.1l4.1,10.8H35.2z
				 M55.5,382c-1.2,0-2.3,0.3-3.2,0.9c-0.9,0.6-1.5,1.4-1.9,2.5h0v-3.2h-1v14.7h1.1v-8.8c0-1.5,0.5-2.8,1.4-3.7
				c0.9-1,2.1-1.4,3.5-1.4c1.4,0,2.5,0.4,3.3,1.2c0.8,0.8,1.3,1.9,1.3,3.3v9.4h1.1v-9.5c0-1.6-0.5-3-1.5-4
				C58.4,382.5,57.1,382,55.5,382z M70.1,389.2l-2.3-0.6c-1.1-0.3-1.8-0.6-2.3-1c-0.5-0.4-0.8-1-0.8-1.7c0-0.9,0.4-1.6,1.2-2.2
				c0.8-0.6,1.7-0.8,2.8-0.8c1.2,0,2.2,0.3,2.9,1c0.7,0.6,1.1,1.5,1.3,2.5h1c-0.1-1.3-0.6-2.4-1.6-3.2c-0.9-0.8-2.2-1.2-3.6-1.2
				c-1.4,0-2.6,0.4-3.6,1.1c-1,0.7-1.5,1.7-1.5,2.9c0,1.8,1.2,3,3.7,3.6l2.4,0.6c1.2,0.3,2.1,0.7,2.6,1.1c0.5,0.5,0.8,1.1,0.8,1.8
				c0,0.9-0.4,1.7-1.3,2.3c-0.8,0.6-1.9,0.8-3.1,0.8c-1.2,0-2.3-0.3-3.1-1c-0.8-0.6-1.3-1.5-1.4-2.4h-1.1c0.1,1.2,0.6,2.3,1.7,3.1
				c1,0.8,2.3,1.3,3.9,1.3c1.6,0,2.9-0.4,3.9-1.1c1-0.8,1.5-1.7,1.5-3c0-1-0.3-1.8-1-2.4C72.7,390,71.6,389.6,70.1,389.2z
				 M89.6,395.7L89.6,395.7l-4.2-13.5h-1.2l-4.1,13.5h0l-3.8-13.5h-1.1l4.3,14.7h1.2l4.1-13.3h0l4.1,13.3h1.2l4.3-14.7h-1.1
				L89.6,395.7z M102,382c-1.9,0-3.5,0.7-4.7,2.1c-1.2,1.4-1.8,3.2-1.8,5.5c0,2.4,0.6,4.2,1.8,5.5c1.2,1.3,2.8,2,4.8,2
				c1.6,0,2.9-0.4,4-1.2c1.1-0.8,1.7-1.8,2-3.1H107c-0.2,1-0.8,1.8-1.6,2.4c-0.9,0.6-2,1-3.3,1c-1.7,0-3-0.6-4-1.7
				c-1-1.1-1.5-2.7-1.5-4.7v-0.1h11.7v-0.6c0-2.1-0.6-3.9-1.7-5.2C105.4,382.7,103.9,382,102,382z M96.6,388.8
				c0.1-1.8,0.6-3.2,1.6-4.3c1-1.1,2.2-1.6,3.8-1.6c1.5,0,2.8,0.5,3.8,1.6c1,1.1,1.4,2.5,1.4,4.2H96.6z M111.8,385.1L111.8,385.1
				l0-2.9h-1v14.7h1.1v-9.1c0-1.4,0.3-2.5,1-3.4c0.7-0.9,1.6-1.3,2.7-1.3c0.6,0,1.1,0.1,1.5,0.3v-1.1c-0.4-0.2-0.9-0.2-1.3-0.2
				C113.7,382,112.4,383,111.8,385.1z M120.9,395.1c-0.3,0-0.5,0.1-0.7,0.3c-0.2,0.2-0.3,0.4-0.3,0.7c0,0.3,0.1,0.5,0.3,0.7
				c0.2,0.2,0.4,0.3,0.7,0.3c0.3,0,0.5-0.1,0.7-0.3c0.2-0.2,0.3-0.4,0.3-0.7c0-0.3-0.1-0.5-0.3-0.7
				C121.4,395.2,121.2,395.1,120.9,395.1z M120.9,386.5c0.3,0,0.5-0.1,0.7-0.3c0.2-0.2,0.3-0.4,0.3-0.7c0-0.3-0.1-0.5-0.3-0.7
				c-0.2-0.2-0.4-0.3-0.7-0.3c-0.3,0-0.5,0.1-0.7,0.3c-0.2,0.2-0.3,0.4-0.3,0.7c0,0.3,0.1,0.5,0.3,0.7
				C120.4,386.4,120.7,386.5,120.9,386.5z"/>
		</g>
	</g>
</g>
<g id="next_копия_1_" class="st18">
	<g id="next_копия" class="st19">
		<g>
			<path class="st22" d="M407.4,707.9h-0.1l-9.2-12.8h-3.4v19.7h4v-12.9h0.1l9.2,12.9h3.4v-19.7h-4V707.9z M421,699.5
				c-2.2,0-4,0.7-5.3,2.1c-1.3,1.4-2,3.3-2,5.7c0,2.4,0.7,4.3,2,5.7c1.3,1.4,3.1,2.1,5.4,2.1c1.8,0,3.4-0.4,4.6-1.3
				c1.2-0.9,2-2.1,2.2-3.5h-3.7c-0.2,0.6-0.6,1-1.1,1.4c-0.5,0.3-1.2,0.5-2,0.5c-1,0-1.9-0.3-2.5-1c-0.6-0.7-1-1.6-1-2.6v-0.2h10.4
				V707c0-2.3-0.6-4.1-1.9-5.5C424.9,700.2,423.2,699.5,421,699.5z M417.8,705.7c0.1-1,0.4-1.7,1-2.4c0.6-0.6,1.4-0.9,2.3-0.9
				c0.9,0,1.7,0.3,2.3,0.9c0.6,0.6,0.9,1.4,0.9,2.4H417.8z M439.2,699.8l-2.7,5.1h-0.1l-2.8-5.1h-4.5l4.7,7.5l-4.8,7.5h4.2l2.9-5.3
				h0.1l2.9,5.3h4.4l-4.7-7.6l4.7-7.4H439.2z M453,702.8v-3h-2.8v-3.3h-4v3.3h-2v3h2v8c0,1.5,0.4,2.5,1.1,3.2c0.7,0.6,2,1,3.7,1
				c0.7,0,1.4-0.1,1.9-0.2v-3c-0.3,0-0.6,0.1-1,0.1c-1.2,0-1.8-0.6-1.8-1.7v-7.3H453z"/>
		</g>
	</g>
</g>
<g id="Hello_1_" class="st18">
	<g id="Hello" class="st19">
		<g>
			<path class="st22" d="M215.5,247.3c1.6-2.5,2.4-5.3,2.4-8.5c0-4.9-1.5-8.7-4.6-11.5c-3.2-2.8-7.6-4.2-13.2-4.2h-20.4v49.3H190
				v-18h8.4l9.2,18h11.7l-10.4-19.6C211.7,251.7,213.9,249.9,215.5,247.3z M205.1,244.8c-1.5,1.4-3.5,2.1-6.1,2.1H190v-15.7h9
				c2.6,0,4.6,0.7,6.1,2.1c1.5,1.4,2.3,3.3,2.3,5.7C207.3,241.5,206.6,243.4,205.1,244.8z M251.9,237.5c-2.9-2.3-6.8-3.4-11.6-3.4
				c-4.7,0-8.5,1.1-11.5,3.4c-3,2.2-4.5,5.1-4.6,8.7h9.1c0.3-1.4,1-2.5,2.2-3.3c1.2-0.9,2.7-1.3,4.5-1.3c2.1,0,3.7,0.5,4.9,1.4
				c1.2,1,1.7,2.4,1.7,4.2v2.5l-9.4,0.6c-4.8,0.3-8.5,1.4-11,3.3c-2.6,1.9-3.8,4.6-3.8,8c0,3.3,1.2,6,3.6,8.2
				c2.4,2.1,5.4,3.1,9.1,3.1c2.5,0,4.7-0.5,6.8-1.6c2.1-1.1,3.7-2.7,4.7-4.6h0.2v5.8h9.6v-25.8C256.3,242.8,254.8,239.8,251.9,237.5
				z M246.4,258.6c0,2-0.8,3.7-2.4,5c-1.6,1.3-3.5,1.9-5.9,1.9c-1.8,0-3.3-0.4-4.3-1.2c-1.1-0.8-1.6-1.9-1.6-3.3
				c0-2.8,2.1-4.4,6.4-4.7l7.9-0.5V258.6z M285,234.3c-5.5,0-9.4,2.3-11.6,6.9h-0.2v-20.5h-10v51.7h9.8V266h0.2
				c2.2,4.6,6.2,6.9,11.8,6.9c4.7,0,8.5-1.7,11.2-5.2c2.7-3.4,4.1-8.1,4.1-14.1c0-6-1.4-10.7-4.1-14.1
				C293.5,236,289.8,234.3,285,234.3z M287.9,261.7c-1.5,2-3.6,3-6.2,3c-2.6,0-4.6-1-6.2-3.1c-1.5-2-2.3-4.7-2.4-8.1
				c0-3.4,0.8-6.1,2.4-8.1c1.6-2.1,3.6-3.1,6.2-3.1c2.6,0,4.6,1,6.2,3c1.5,2,2.3,4.7,2.3,8.1C290.2,257,289.4,259.7,287.9,261.7z
				 M327.8,234.3c-5.5,0-9.4,2.3-11.6,6.9H316v-20.5h-10v51.7h9.8V266h0.2c2.2,4.6,6.2,6.9,11.8,6.9c4.7,0,8.5-1.7,11.2-5.2
				c2.7-3.4,4.1-8.1,4.1-14.1c0-6-1.4-10.7-4.1-14.1C336.3,236,332.6,234.3,327.8,234.3z M330.7,261.7c-1.5,2-3.6,3-6.2,3
				c-2.6,0-4.6-1-6.2-3.1c-1.5-2-2.3-4.7-2.4-8.1c0-3.4,0.8-6.1,2.4-8.1c1.6-2.1,3.6-3.1,6.2-3.1c2.6,0,4.6,1,6.2,3
				c1.5,2,2.3,4.7,2.3,8.1C332.9,257,332.2,259.7,330.7,261.7z M353.7,220.2c-1.5,0-2.7,0.5-3.8,1.5c-1,1-1.6,2.2-1.6,3.7
				c0,1.5,0.5,2.7,1.6,3.7c1,1,2.3,1.5,3.8,1.5c1.5,0,2.8-0.5,3.8-1.5c1-1,1.6-2.2,1.6-3.7c0-1.5-0.5-2.7-1.6-3.7
				C356.5,220.7,355.2,220.2,353.7,220.2z M348.7,272.4h10v-37.6h-10V272.4z M385.2,242.3v-7.6h-7v-8.4h-10v8.4h-5.1v7.6h5.1v19.9
				c0,3.7,0.9,6.3,2.8,7.9c1.9,1.6,5,2.4,9.3,2.4c1.8,0,3.5-0.1,4.8-0.4v-7.4c-0.7,0.1-1.5,0.2-2.5,0.2c-3,0-4.5-1.4-4.5-4.3v-18.3
				H385.2z"/>
		</g>
	</g>
</g>
<g id="_x31__x2F_56_words_1_" class="st18">
	<g id="_x31__x2F_56_words" class="st19">
		<g>
			<path class="st26" d="M461.3,89c-1.2,0.8-1.9,1.2-2.2,1.4v0.9c1.1-0.7,2.1-1.3,3-1.9c0.8-0.5,1.2-0.8,1.3-0.8h0v14.6h0.8V87.7
				h-0.8C463,87.9,462.3,88.3,461.3,89z M466.8,106.8h0.8l4.8-19.1h-0.8L466.8,106.8z M479,93.1c-0.8,0-1.6,0.2-2.4,0.5
				c-0.7,0.4-1.3,0.8-1.7,1.5h0l0.7-6.6h7.5v-0.8h-8.2l-0.9,8.5h0.9c0.4-0.7,1-1.3,1.7-1.7c0.7-0.4,1.5-0.6,2.4-0.6
				c1.2,0,2.3,0.4,3.1,1.3c0.8,0.8,1.2,1.9,1.2,3.1c0,1.3-0.4,2.3-1.3,3.1c-0.9,0.8-1.9,1.2-3.2,1.2c-1.1,0-2-0.3-2.8-0.9
				c-0.8-0.6-1.3-1.4-1.4-2.3h-0.8c0.1,1.2,0.7,2.1,1.6,2.9c1,0.8,2.1,1.1,3.4,1.1c1.5,0,2.8-0.5,3.8-1.5c1-1,1.5-2.2,1.5-3.7
				c0-1.5-0.5-2.7-1.5-3.7C481.7,93.6,480.5,93.1,479,93.1z M491.7,93.1c-1.2,0-2.2,0.3-3.1,1c-0.9,0.7-1.5,1.5-1.8,2.5h0
				c0-2.6,0.4-4.7,1.2-6.1c0.9-1.5,2.1-2.2,3.6-2.2c1,0,1.9,0.3,2.6,0.9c0.7,0.6,1.2,1.3,1.4,2.2h0.9c-0.2-1.1-0.7-2.1-1.6-2.8
				c-0.9-0.7-1.9-1.1-3.2-1.1c-1.8,0-3.2,0.8-4.2,2.3c-1,1.5-1.5,3.5-1.5,6.1c0,2.3,0.5,4.1,1.4,5.4c1,1.5,2.4,2.2,4.2,2.2
				c1.5,0,2.7-0.5,3.7-1.5c1-1,1.5-2.3,1.5-3.8c0-1.5-0.5-2.7-1.5-3.6C494.4,93.6,493.1,93.1,491.7,93.1z M494.7,101.4
				c-0.8,0.9-1.9,1.3-3.1,1.3c-1.3,0-2.3-0.4-3.2-1.3c-0.9-0.9-1.3-2-1.3-3.3c0-1.1,0.4-2.1,1.3-3c0.9-0.8,1.9-1.2,3.1-1.2
				c1.2,0,2.3,0.4,3.1,1.3c0.8,0.8,1.3,1.9,1.3,3.1C496,99.4,495.5,100.5,494.7,101.4z M513.4,102.3L513.4,102.3l-3.3-10.6h-0.9
				l-3.2,10.6h0l-3-10.6h-0.9l3.4,11.6h1l3.2-10.5h0l3.2,10.5h1l3.4-11.6h-0.9L513.4,102.3z M523.2,91.5c-1.5,0-2.8,0.5-3.7,1.6
				c-0.9,1.1-1.4,2.5-1.4,4.3c0,1.8,0.5,3.2,1.4,4.3c0.9,1.1,2.2,1.6,3.7,1.6c1.5,0,2.8-0.5,3.7-1.6c0.9-1.1,1.4-2.5,1.4-4.3
				c0-1.8-0.5-3.3-1.4-4.3C526,92,524.8,91.5,523.2,91.5z M526.3,101.2c-0.8,0.9-1.8,1.4-3.1,1.4c-1.3,0-2.3-0.5-3.1-1.4
				c-0.8-0.9-1.2-2.2-1.2-3.8s0.4-2.9,1.2-3.8c0.8-0.9,1.8-1.4,3.1-1.4c1.3,0,2.4,0.5,3.1,1.4c0.8,0.9,1.2,2.2,1.2,3.8
				C527.5,99,527.1,100.3,526.3,101.2z M531.2,93.9L531.2,93.9l0-2.3h-0.8v11.6h0.8V96c0-1.1,0.3-2,0.8-2.7c0.5-0.7,1.3-1.1,2.2-1.1
				c0.5,0,0.9,0.1,1.2,0.2v-0.8c-0.3-0.1-0.7-0.2-1.1-0.2C532.7,91.5,531.6,92.3,531.2,93.9z M544.8,94.7L544.8,94.7
				c-0.3-0.9-0.8-1.7-1.6-2.3c-0.8-0.6-1.7-0.9-2.8-0.9c-1.4,0-2.6,0.5-3.5,1.6c-0.9,1.1-1.4,2.5-1.4,4.3c0,1.8,0.5,3.2,1.4,4.3
				c0.9,1.1,2.1,1.6,3.6,1.6c1.1,0,2-0.3,2.8-0.9c0.8-0.6,1.3-1.4,1.6-2.3h0v3.1h0.8V87h-0.8V94.7z M543.6,101.2
				c-0.8,1-1.8,1.5-3.1,1.5c-1.2,0-2.2-0.5-3-1.4c-0.8-1-1.2-2.2-1.2-3.7c0-1.5,0.4-2.8,1.2-3.7c0.8-1,1.8-1.4,3-1.4
				c1.2,0,2.3,0.5,3.1,1.4c0.8,1,1.2,2.2,1.2,3.7C544.8,98.9,544.4,100.2,543.6,101.2z M555.5,98.3c-0.5-0.5-1.3-0.8-2.5-1.1
				l-1.8-0.4c-0.8-0.2-1.4-0.5-1.8-0.8c-0.4-0.3-0.6-0.8-0.6-1.3c0-0.7,0.3-1.3,0.9-1.7c0.6-0.4,1.3-0.7,2.2-0.7
				c0.9,0,1.7,0.3,2.3,0.8c0.6,0.5,0.9,1.2,1,2h0.8c-0.1-1.1-0.5-1.9-1.2-2.5c-0.7-0.6-1.7-0.9-2.9-0.9c-1.1,0-2.1,0.3-2.8,0.9
				c-0.8,0.6-1.1,1.3-1.1,2.2c0,1.4,1,2.4,2.9,2.8l1.9,0.5c0.9,0.2,1.6,0.5,2,0.9c0.4,0.4,0.6,0.8,0.6,1.4c0,0.7-0.3,1.3-1,1.8
				c-0.6,0.4-1.5,0.7-2.4,0.7c-1,0-1.8-0.3-2.5-0.8c-0.6-0.5-1-1.1-1.1-1.9h-0.8c0.1,1,0.5,1.8,1.3,2.4c0.8,0.7,1.8,1,3.1,1
				c1.2,0,2.3-0.3,3.1-0.9c0.8-0.6,1.2-1.4,1.2-2.3C556.3,99.3,556,98.7,555.5,98.3z"/>
		</g>
	</g>
</g>
<g id="Words:_100_Learn:_56_Fails:_3_1_" class="st18">
	<g id="Words:_100_Learn:_56_Fails:_3" class="st19">
		<g>
			<path class="st26" d="M18.3,100.5l4.1-13.9h0.1l4.1,13.9h0.8L31.7,85h-0.9L27,99H27l-4.1-14h-0.8L18,99H18l-3.8-14h-0.9l4.3,15.5
				H18.3z M36.9,100.6c1.5,0,2.8-0.5,3.7-1.6c0.9-1.1,1.4-2.5,1.4-4.3c0-1.8-0.5-3.3-1.4-4.3c-0.9-1.1-2.2-1.6-3.7-1.6
				c-1.5,0-2.8,0.5-3.7,1.6c-0.9,1.1-1.4,2.5-1.4,4.3c0,1.8,0.5,3.2,1.4,4.3C34.1,100.1,35.3,100.6,36.9,100.6z M33.8,90.9
				c0.8-0.9,1.8-1.4,3.1-1.4c1.3,0,2.4,0.5,3.1,1.4c0.8,0.9,1.2,2.2,1.2,3.8c0,1.6-0.4,2.8-1.2,3.8c-0.8,0.9-1.8,1.4-3.1,1.4
				c-1.3,0-2.3-0.5-3.1-1.4c-0.8-0.9-1.2-2.2-1.2-3.8C32.6,93.1,33,91.9,33.8,90.9z M44.9,93.3c0-1.1,0.3-2,0.8-2.7
				c0.5-0.7,1.3-1.1,2.2-1.1c0.5,0,0.9,0.1,1.2,0.2V89c-0.3-0.1-0.7-0.2-1.1-0.2c-1.6,0-2.6,0.8-3.1,2.4h0v-2.3H44v11.6h0.8V93.3z
				 M54.1,100.6c1.1,0,2-0.3,2.8-0.9c0.8-0.6,1.3-1.4,1.6-2.3h0v3.1h0.8V84.3h-0.8V92h0c-0.3-0.9-0.8-1.7-1.6-2.3
				c-0.8-0.6-1.7-0.9-2.8-0.9c-1.4,0-2.6,0.5-3.5,1.6c-0.9,1.1-1.4,2.5-1.4,4.3c0,1.8,0.5,3.2,1.4,4.3
				C51.5,100.1,52.7,100.6,54.1,100.6z M51.2,91c0.8-1,1.8-1.4,3-1.4c1.2,0,2.3,0.5,3.1,1.4c0.8,1,1.2,2.2,1.2,3.7
				c0,1.5-0.4,2.8-1.2,3.7c-0.8,1-1.8,1.5-3.1,1.5c-1.2,0-2.2-0.5-3-1.4c-0.8-1-1.2-2.2-1.2-3.7C50,93.2,50.4,91.9,51.2,91z
				 M68.2,99.2c-0.6,0.4-1.5,0.7-2.4,0.7c-1,0-1.8-0.3-2.5-0.8c-0.6-0.5-1-1.1-1.1-1.9h-0.8c0.1,1,0.5,1.8,1.3,2.4
				c0.8,0.7,1.8,1,3.1,1c1.2,0,2.3-0.3,3.1-0.9c0.8-0.6,1.2-1.4,1.2-2.3c0-0.8-0.3-1.4-0.8-1.9c-0.5-0.5-1.3-0.8-2.5-1.1L65,94
				c-0.8-0.2-1.4-0.5-1.8-0.8c-0.4-0.3-0.6-0.8-0.6-1.3c0-0.7,0.3-1.3,0.9-1.7c0.6-0.4,1.3-0.7,2.2-0.7c0.9,0,1.7,0.3,2.3,0.8
				c0.6,0.5,0.9,1.2,1,2h0.8c-0.1-1.1-0.5-1.9-1.2-2.5c-0.7-0.6-1.7-0.9-2.9-0.9c-1.1,0-2.1,0.3-2.8,0.9c-0.8,0.6-1.1,1.3-1.1,2.2
				c0,1.4,1,2.4,2.9,2.8l1.9,0.5c0.9,0.2,1.6,0.5,2,0.9c0.4,0.4,0.6,0.8,0.6,1.4C69.1,98.2,68.8,98.8,68.2,99.2z M73.3,90.8
				c-0.2,0-0.4,0.1-0.5,0.2c-0.1,0.2-0.2,0.3-0.2,0.5c0,0.2,0.1,0.4,0.2,0.5c0.2,0.1,0.3,0.2,0.5,0.2c0.2,0,0.4-0.1,0.5-0.2
				C74,92,74,91.8,74,91.6c0-0.2-0.1-0.4-0.2-0.5C73.7,90.9,73.5,90.8,73.3,90.8z M73.3,99.1c-0.2,0-0.4,0.1-0.5,0.2
				c-0.1,0.2-0.2,0.3-0.2,0.5c0,0.2,0.1,0.4,0.2,0.5c0.2,0.1,0.3,0.2,0.5,0.2c0.2,0,0.4-0.1,0.5-0.2c0.1-0.2,0.2-0.3,0.2-0.5
				c0-0.2-0.1-0.4-0.2-0.5C73.7,99.2,73.5,99.1,73.3,99.1z M83.4,86.3c-1.2,0.8-1.9,1.2-2.2,1.4v0.9c1.1-0.7,2.1-1.3,3-1.9
				c0.8-0.5,1.2-0.8,1.3-0.8h0v14.6h0.8V84.9h-0.8C85.1,85.2,84.4,85.6,83.4,86.3z M95.3,84.8c-1.7,0-3,0.7-4,2.2
				c-1,1.4-1.5,3.4-1.5,5.8c0,2.5,0.5,4.4,1.5,5.8c1,1.4,2.3,2.2,4,2.2c1.7,0,3-0.7,4-2.2c1-1.4,1.5-3.4,1.5-5.8
				c0-2.4-0.5-4.4-1.5-5.8C98.3,85.5,97,84.8,95.3,84.8z M98.7,98c-0.8,1.3-2,2-3.4,2c-1.4,0-2.6-0.7-3.4-2c-0.8-1.3-1.2-3-1.2-5.3
				c0-2.2,0.4-4,1.2-5.3c0.8-1.3,2-2,3.4-2c1.4,0,2.6,0.7,3.4,2c0.8,1.3,1.2,3,1.2,5.3C99.9,94.9,99.5,96.7,98.7,98z M112.1,86.9
				c-1-1.4-2.3-2.1-4-2.1c-1.7,0-3,0.7-4,2.2c-1,1.4-1.5,3.4-1.5,5.8c0,2.5,0.5,4.4,1.5,5.8c1,1.4,2.3,2.2,4,2.2c1.7,0,3-0.7,4-2.2
				c1-1.4,1.5-3.4,1.5-5.8C113.6,90.3,113.1,88.3,112.1,86.9z M111.5,98c-0.8,1.3-2,2-3.4,2c-1.4,0-2.6-0.7-3.4-2
				c-0.8-1.3-1.2-3-1.2-5.3c0-2.2,0.4-4,1.2-5.3c0.8-1.3,2-2,3.4-2c1.4,0,2.6,0.7,3.4,2c0.8,1.3,1.2,3,1.2,5.3
				C112.7,94.9,112.3,96.7,111.5,98z M15,110h-0.8v15.5h9v-0.8H15V110z M28.7,113.8c-1.5,0-2.7,0.5-3.7,1.6
				c-0.9,1.1-1.4,2.5-1.4,4.3c0,1.8,0.5,3.3,1.4,4.4c0.9,1,2.2,1.6,3.7,1.6c1.3,0,2.3-0.3,3.2-1c0.8-0.6,1.3-1.4,1.5-2.4h-0.8
				c-0.2,0.8-0.6,1.4-1.3,1.9c-0.7,0.5-1.6,0.8-2.6,0.8c-1.3,0-2.4-0.4-3.1-1.3c-0.8-0.9-1.2-2.1-1.2-3.7v0h9.2v-0.5
				c0-1.7-0.5-3-1.4-4C31.4,114.3,30.2,113.8,28.7,113.8z M24.5,119.1c0.1-1.4,0.5-2.5,1.2-3.3c0.8-0.8,1.8-1.3,3-1.3
				c1.2,0,2.2,0.4,3,1.3c0.8,0.9,1.1,2,1.1,3.3H24.5z M43.4,123L43.4,123l0,2.5h0.8v-7.8c0-1.2-0.4-2.2-1.1-2.9
				c-0.7-0.7-1.8-1.1-3-1.1c-1.2,0-2.2,0.3-3,1c-0.8,0.6-1.2,1.5-1.3,2.6h0.8c0.1-0.9,0.5-1.6,1.1-2c0.6-0.5,1.4-0.7,2.4-0.7
				c1,0,1.9,0.3,2.4,0.8c0.6,0.6,0.9,1.4,0.9,2.4v1l-4,0.3c-2.8,0.2-4.1,1.3-4.1,3.3c0,1,0.4,1.8,1.1,2.4c0.7,0.6,1.6,0.9,2.8,0.9
				c1,0,1.9-0.2,2.7-0.7C42.5,124.4,43.1,123.8,43.4,123z M39.2,124.9c-0.9,0-1.6-0.2-2.2-0.7c-0.6-0.5-0.9-1.1-0.9-1.8
				c0-1.6,1.1-2.4,3.4-2.6l3.9-0.3v1.7c0,1-0.4,1.9-1.2,2.6C41.3,124.5,40.4,124.9,39.2,124.9z M47.5,116.2L47.5,116.2l0-2.3h-0.8
				v11.6h0.8v-7.2c0-1.1,0.3-2,0.8-2.7c0.5-0.7,1.3-1.1,2.2-1.1c0.5,0,0.9,0.1,1.2,0.2V114c-0.3-0.1-0.7-0.2-1.1-0.2
				C49,113.8,48,114.6,47.5,116.2z M62.4,125.5V118c0-1.3-0.4-2.3-1.2-3.1c-0.8-0.8-1.8-1.1-3.1-1.1c-1,0-1.8,0.2-2.5,0.7
				c-0.7,0.5-1.2,1.1-1.5,2h0v-2.5h-0.8v11.6h0.8v-6.9c0-1.2,0.4-2.2,1.1-2.9c0.7-0.8,1.6-1.1,2.8-1.1c1.1,0,2,0.3,2.6,1
				c0.7,0.6,1,1.5,1,2.6v7.4H62.4z M66.3,124.1c-0.2,0-0.4,0.1-0.5,0.2c-0.1,0.2-0.2,0.3-0.2,0.5c0,0.2,0.1,0.4,0.2,0.5
				c0.2,0.1,0.3,0.2,0.5,0.2c0.2,0,0.4-0.1,0.5-0.2c0.1-0.2,0.2-0.3,0.2-0.5c0-0.2-0.1-0.4-0.2-0.5
				C66.7,124.2,66.5,124.1,66.3,124.1z M66.8,116c-0.2-0.1-0.3-0.2-0.5-0.2c-0.2,0-0.4,0.1-0.5,0.2c-0.1,0.2-0.2,0.3-0.2,0.5
				c0,0.2,0.1,0.4,0.2,0.5c0.2,0.1,0.3,0.2,0.5,0.2c0.2,0,0.4-0.1,0.5-0.2c0.1-0.2,0.2-0.3,0.2-0.5C67,116.4,67,116.2,66.8,116z
				 M79.9,115.4c-0.8,0-1.6,0.2-2.4,0.5c-0.7,0.4-1.3,0.8-1.7,1.5h0l0.7-6.6H84V110h-8.2l-0.9,8.5h0.9c0.4-0.7,1-1.3,1.7-1.7
				c0.7-0.4,1.5-0.6,2.4-0.6c1.2,0,2.3,0.4,3.1,1.3c0.8,0.8,1.2,1.9,1.2,3.1c0,1.3-0.4,2.3-1.3,3.1c-0.9,0.8-1.9,1.2-3.2,1.2
				c-1.1,0-2-0.3-2.8-0.9c-0.8-0.6-1.3-1.4-1.4-2.3h-0.8c0.1,1.2,0.7,2.1,1.6,2.9c1,0.8,2.1,1.1,3.4,1.1c1.5,0,2.8-0.5,3.8-1.5
				c1-1,1.5-2.2,1.5-3.7c0-1.5-0.5-2.7-1.5-3.7C82.6,115.9,81.4,115.4,79.9,115.4z M92.6,115.3c-1.2,0-2.2,0.3-3.1,1
				c-0.9,0.7-1.5,1.5-1.8,2.5h0c0-2.6,0.4-4.7,1.2-6.1c0.9-1.5,2.1-2.2,3.6-2.2c1,0,1.9,0.3,2.6,0.9c0.7,0.6,1.2,1.3,1.4,2.2h0.9
				c-0.2-1.1-0.7-2.1-1.6-2.8c-0.9-0.7-1.9-1.1-3.2-1.1c-1.8,0-3.2,0.8-4.2,2.3c-1,1.5-1.5,3.5-1.5,6.1c0,2.3,0.5,4.1,1.4,5.4
				c1,1.5,2.4,2.2,4.2,2.2c1.5,0,2.7-0.5,3.7-1.5c1-1,1.5-2.3,1.5-3.8c0-1.5-0.5-2.7-1.5-3.6C95.3,115.8,94,115.3,92.6,115.3z
				 M95.6,123.6c-0.8,0.9-1.9,1.3-3.1,1.3c-1.3,0-2.3-0.4-3.2-1.3c-0.9-0.9-1.3-2-1.3-3.3c0-1.1,0.4-2.1,1.3-3
				c0.9-0.8,1.9-1.2,3.1-1.2c1.2,0,2.3,0.4,3.1,1.3c0.8,0.8,1.3,1.9,1.3,3.1C96.9,121.7,96.4,122.8,95.6,123.6z M14.2,150.5H15V143
				h7.4v-0.8H15v-6.5h8.1V135h-8.9V150.5z M29,138.8c-1.2,0-2.2,0.3-3,1c-0.8,0.6-1.2,1.5-1.3,2.6h0.8c0.1-0.9,0.5-1.6,1.1-2
				c0.6-0.5,1.4-0.7,2.4-0.7c1,0,1.9,0.3,2.4,0.8c0.6,0.6,0.9,1.4,0.9,2.4v1l-4,0.3c-2.8,0.2-4.1,1.3-4.1,3.3c0,1,0.4,1.8,1.1,2.4
				c0.7,0.6,1.6,0.9,2.8,0.9c1,0,1.9-0.2,2.7-0.7c0.8-0.5,1.3-1.1,1.6-1.9h0v2.5h0.8v-7.8c0-1.2-0.4-2.2-1.1-2.9
				C31.3,139.1,30.3,138.8,29,138.8z M32.3,146.2c0,1-0.4,1.9-1.2,2.6c-0.8,0.7-1.8,1.1-2.9,1.1c-0.9,0-1.6-0.2-2.2-0.7
				c-0.6-0.5-0.9-1.1-0.9-1.8c0-1.6,1.1-2.4,3.4-2.6l3.9-0.3V146.2z M35.7,150.5h0.8v-11.6h-0.8V150.5z M36.2,134.8
				c-0.2,0-0.3,0.1-0.5,0.2c-0.1,0.1-0.2,0.3-0.2,0.5c0,0.2,0.1,0.3,0.2,0.5c0.1,0.1,0.3,0.2,0.5,0.2c0.2,0,0.3-0.1,0.5-0.2
				c0.1-0.1,0.2-0.3,0.2-0.5c0-0.2-0.1-0.3-0.2-0.5C36.5,134.8,36.3,134.8,36.2,134.8z M39.3,150.5h0.8v-16.2h-0.8V150.5z
				 M47.6,144.4l-1.8-0.4c-0.8-0.2-1.4-0.5-1.8-0.8c-0.4-0.3-0.6-0.8-0.6-1.3c0-0.7,0.3-1.3,0.9-1.7c0.6-0.4,1.3-0.7,2.2-0.7
				c0.9,0,1.7,0.3,2.3,0.8c0.6,0.5,0.9,1.2,1,2h0.8c-0.1-1.1-0.5-1.9-1.2-2.5c-0.7-0.6-1.7-0.9-2.9-0.9c-1.1,0-2.1,0.3-2.8,0.9
				c-0.8,0.6-1.1,1.3-1.1,2.2c0,1.4,1,2.4,2.9,2.8l1.9,0.5c0.9,0.2,1.6,0.5,2,0.9c0.4,0.4,0.6,0.8,0.6,1.4c0,0.7-0.3,1.3-1,1.8
				c-0.6,0.4-1.5,0.7-2.4,0.7c-1,0-1.8-0.3-2.5-0.8c-0.6-0.5-1-1.1-1.1-1.9h-0.8c0.1,1,0.5,1.8,1.3,2.4c0.8,0.7,1.8,1,3.1,1
				c1.2,0,2.3-0.3,3.1-0.9c0.8-0.6,1.2-1.4,1.2-2.3c0-0.8-0.3-1.4-0.8-1.9C49.6,145.1,48.8,144.7,47.6,144.4z M54.1,149.1
				c-0.2,0-0.4,0.1-0.5,0.2c-0.1,0.2-0.2,0.3-0.2,0.5c0,0.2,0.1,0.4,0.2,0.5c0.2,0.1,0.3,0.2,0.5,0.2s0.4-0.1,0.5-0.2
				c0.1-0.2,0.2-0.3,0.2-0.5c0-0.2-0.1-0.4-0.2-0.5C54.5,149.2,54.4,149.1,54.1,149.1z M54.1,140.8c-0.2,0-0.4,0.1-0.5,0.2
				c-0.1,0.2-0.2,0.3-0.2,0.5c0,0.2,0.1,0.4,0.2,0.5c0.2,0.1,0.3,0.2,0.5,0.2s0.4-0.1,0.5-0.2c0.1-0.2,0.2-0.3,0.2-0.5
				c0-0.2-0.1-0.4-0.2-0.5C54.5,140.9,54.4,140.8,54.1,140.8z M68.6,142.4L68.6,142.4c1-0.2,1.8-0.7,2.4-1.3
				c0.6-0.7,0.9-1.5,0.9-2.4c0-1.1-0.4-2.1-1.3-2.8c-0.9-0.7-2-1.1-3.3-1.1c-1.3,0-2.4,0.4-3.3,1.1c-0.9,0.7-1.4,1.7-1.4,2.8h0.8
				c0.1-0.9,0.5-1.7,1.2-2.3c0.7-0.6,1.6-0.9,2.7-0.9c1.1,0,2,0.3,2.8,0.9c0.7,0.6,1.1,1.4,1.1,2.3c0,1-0.4,1.8-1.1,2.4
				c-0.7,0.6-1.7,0.9-2.9,0.9h-1.7v0.8H67c1.4,0,2.6,0.3,3.4,0.9c0.8,0.6,1.2,1.5,1.2,2.5c0,1.1-0.4,1.9-1.2,2.6
				c-0.8,0.7-1.9,1-3.1,1c-1.2,0-2.2-0.3-3.1-1c-0.8-0.6-1.3-1.4-1.3-2.4h-0.8c0,1.2,0.5,2.2,1.5,2.9c1,0.8,2.2,1.2,3.7,1.2
				c1.5,0,2.7-0.4,3.7-1.3c1-0.8,1.5-1.9,1.5-3.2c0-1.1-0.4-2-1.1-2.7C70.7,142.9,69.8,142.5,68.6,142.4z"/>
		</g>
	</g>
</g>
<g id="шапка_xA0_Изображение_1_" class="st24">
	<g class="st19">
		
			<image style="overflow:visible;" width="564" height="75" id="шапка_xA0_Изображение_2_" xlink:href="7F49358F.png"  transform="matrix(1 0 0 1 -1.960784e-03 -6.862745e-03)">
		</image>
	</g>
</g>
<g id="Слой_25" class="st24">
	<g class="st19">
		<rect x="474" y="15" class="st27" width="7.1" height="8"/>
		<path class="st28" d="M484.9,12h-9.8v2H473v9.8h10V22h1.9V12z M481,23H474v-8h7.1V23z M484,20h-1v-6h-7v-1.1h8V20z"/>
	</g>
	<polygon class="st29" points="544.2,11.3 542.7,9.7 536,16.4 529.3,9.7 527.8,11.3 534.4,18 527.8,24.7 529.3,26.2 536,19.5 
		542.7,26.2 544.2,24.7 537.6,18 	"/>
	<rect x="417.1" y="18" class="st29" width="11.8" height="1"/>
</g>
<g id="Слой_26" class="st24">
	<g class="st19">
		<g>
			
				<linearGradient id="SVGID_11_" gradientUnits="userSpaceOnUse" x1="6.2627" y1="925.0821" x2="5.8625" y2="923.8505" gradientTransform="matrix(1 0 0 -1 0 939.9863)">
				<stop  offset="0" style="stop-color:#FF224C"/>
				<stop  offset="1" style="stop-color:#C3224C"/>
			</linearGradient>
			<circle class="st30" cx="6.1" cy="15.5" r="0.6"/>
			
				<linearGradient id="SVGID_12_" gradientUnits="userSpaceOnUse" x1="6.2083" y1="929.8477" x2="5.8081" y2="928.616" gradientTransform="matrix(1 0 0 -1 0 939.9863)">
				<stop  offset="0" style="stop-color:#FF224C"/>
				<stop  offset="1" style="stop-color:#C3224C"/>
			</linearGradient>
			<circle class="st31" cx="6" cy="10.8" r="0.6"/>
			
				<linearGradient id="SVGID_13_" gradientUnits="userSpaceOnUse" x1="8.127" y1="932.493" x2="7.7748" y2="931.4092" gradientTransform="matrix(1 0 0 -1 0 939.9863)">
				<stop  offset="0" style="stop-color:#FF224C"/>
				<stop  offset="1" style="stop-color:#C3224C"/>
			</linearGradient>
			<circle class="st32" cx="8" cy="8" r="0.6"/>
			
				<linearGradient id="SVGID_14_" gradientUnits="userSpaceOnUse" x1="10.489" y1="934.6118" x2="10.0726" y2="933.3304" gradientTransform="matrix(1 0 0 -1 0 939.9863)">
				<stop  offset="0" style="stop-color:#FF224C"/>
				<stop  offset="1" style="stop-color:#C3224C"/>
			</linearGradient>
			<circle class="st33" cx="10.3" cy="6" r="0.7"/>
			
				<linearGradient id="SVGID_15_" gradientUnits="userSpaceOnUse" x1="13.7799" y1="936.2557" x2="13.2037" y2="934.4825" gradientTransform="matrix(1 0 0 -1 0 939.9863)">
				<stop  offset="0" style="stop-color:#FF224C"/>
				<stop  offset="1" style="stop-color:#C3224C"/>
			</linearGradient>
			<circle class="st34" cx="13.5" cy="4.6" r="0.9"/>
			
				<linearGradient id="SVGID_16_" gradientUnits="userSpaceOnUse" x1="8.3668" y1="930.101" x2="7.9026" y2="928.6724" gradientTransform="matrix(1 0 0 -1 0 939.9863)">
				<stop  offset="0" style="stop-color:#FF224C"/>
				<stop  offset="1" style="stop-color:#C3224C"/>
			</linearGradient>
			<circle class="st35" cx="8.1" cy="10.6" r="0.8"/>
			
				<linearGradient id="SVGID_17_" gradientUnits="userSpaceOnUse" x1="13.1105" y1="932.4439" x2="12.118" y2="929.3892" gradientTransform="matrix(1 0 0 -1 0 939.9863)">
				<stop  offset="0" style="stop-color:#FF224C"/>
				<stop  offset="1" style="stop-color:#C3224C"/>
			</linearGradient>
			<circle class="st36" cx="12.6" cy="9.1" r="1.6"/>
			
				<linearGradient id="SVGID_18_" gradientUnits="userSpaceOnUse" x1="9.3179" y1="925.5153" x2="8.502" y2="923.0043" gradientTransform="matrix(1 0 0 -1 0 939.9863)">
				<stop  offset="0" style="stop-color:#FF224C"/>
				<stop  offset="1" style="stop-color:#C3224C"/>
			</linearGradient>
			<circle class="st37" cx="8.9" cy="15.7" r="1.3"/>
			
				<linearGradient id="SVGID_19_" gradientUnits="userSpaceOnUse" x1="21.8592" y1="932.8992" x2="14.674" y2="910.7851" gradientTransform="matrix(1 0 0 -1 0 939.9863)">
				<stop  offset="0" style="stop-color:#FF224C"/>
				<stop  offset="1" style="stop-color:#C3224C"/>
			</linearGradient>
			<path class="st38" d="M29.4,18.7c0-0.5-0.1-4.6-2.8-7.4c-1-1.1-2.4-1.8-2.5-1.9C23.6,9.1,22,8.2,21,8.1c0,0-0.9-0.1-1.5-0.4
				c0,0,0,0-0.1-0.1c-0.1-0.1-0.2-0.1-0.3-0.1c0,0-0.1-0.1-0.2-0.1c-0.1-0.1-0.2-0.1-0.3-0.2c-0.1-0.1-0.2-0.1-0.3-0.2
				C18.4,7,18.4,7,18.4,7c-0.1-0.2-0.5-0.8-0.7-1c-0.3-0.3-0.8-0.6-1.4-0.6c-0.9,0-1.5,0.6-1.6,0.7c0,0-0.5,0.6-0.5,1.4
				c0,0.3,0.1,0.5,0.1,0.6c0.1,0.3,0.2,0.6,0.3,0.7c0,0.2,0.1,0.5-0.1,0.9c-0.2,0.6-0.7,1.1-1.2,1.3c-0.4,0.1-0.9,0.1-1.3,0.1
				c-0.1,0-0.2,0-0.4-0.1c-0.3,0-0.6-0.1-0.9,0c-0.6,0.1-0.9,0.9-1,1c0,0.1-0.4,1,0,1.6c0,0,0,0,0.2,0.3c0.4,0.5,0.6,0.8,0.7,1
				c0.3,0.6,0.2,1.2,0.2,1.3c0,0.2-0.1,0.6-0.4,0.9c-0.2,0.2-0.5,0.3-0.7,0.4c-0.5,0.1-1,0-1.2,0c0,0-0.2,0-0.3-0.1c0,0-0.1,0-0.3,0
				c-0.2,0-0.6,0-1,0.3c-0.5,0.3-0.9,1.1-0.8,1.7c0.1,0.5,0.4,0.8,0.5,1c0,0,0.1,0.1,0.2,0.2C6.9,20.8,6.9,20.9,7,21
				c0.1,0.1,0.2,0.1,0.3,0.3c0.1,0.1,0.2,0.3,0.4,0.5c0.1,0.2,0.2,0.5,0.3,0.9c0.3,0.8,1.8,4.3,5.6,6.1c0.4,0.2,2.3,1.1,4.8,1.1
				c1,0,4.4-0.1,7.4-2.6C29.4,24,29.4,19.5,29.4,18.7z"/>
		</g>
		<g>
			<path class="st16" d="M11.3,23.7c0.4-0.5,0.7-1,1-1.4c0.2-0.3,0.6-1,1.3-2.2l0.8-1.4c0.6-1,1-1.7,1.2-1.9c0.3-0.5,0.7-0.7,1-0.7
				c0.2,0,0.4,0.1,0.4,0.3c0,0.1,0,0.3-0.1,0.5c-0.1,0.1-0.2,0.6-0.6,1.4c-0.3,0.8-0.5,1.7-0.7,2.7c-0.1,0.7-0.2,1.3-0.2,1.8
				c0,0.1,0,0.3,0,0.5c0,0.2,0,0.4,0.1,0.6c0.3-0.3,0.6-0.8,0.9-1.4c0.3-0.6,0.8-1.6,1.4-2.9c0.6-1.3,1.3-2.6,2.1-4
				c0.7-1.1,1.4-2.3,2.4-3.5c0.4-0.6,0.8-0.8,1-0.8c0.1,0,0.2,0.1,0.3,0.2c0.1,0.1,0.1,0.2,0.1,0.3c0,0.1-0.2,0.5-0.6,1
				c-0.8,1-1.6,2.1-2.3,3.4c-0.8,1.4-1.9,3.5-3.1,6.1c-0.6,1.2-1,2-1.3,2.5c-0.3,0.5-0.7,0.8-1.1,0.8c-0.3,0-0.6-0.1-0.8-0.4
				c-0.2-0.3-0.3-0.7-0.3-1.3c0-0.9,0.2-2.1,0.5-3.5c-0.3,0.4-0.7,0.9-1.1,1.6c-0.3,0.5-0.6,1-0.9,1.5c-0.4,0.7-0.7,1.2-0.8,1.4
				c-0.2,0.4-0.4,0.7-0.6,0.9c-0.2,0.2-0.4,0.2-0.6,0.2c-0.3,0-0.5-0.1-0.6-0.3c-0.1-0.2-0.1-0.4-0.1-0.6c0-1.6,0.8-4.4,2.5-8.4
				c0.8-2,1.3-3.2,1.4-3.6c0.1-0.4,0.2-0.7,0.4-0.8c0.2-0.2,0.3-0.3,0.6-0.3c0.3,0,0.4,0.1,0.4,0.4c0,0.3-0.1,0.8-0.4,1.5
				c-0.3,0.8-0.7,1.9-1.4,3.3c-0.4,1-0.7,1.7-0.9,2.2C11.8,21.4,11.4,22.9,11.3,23.7z"/>
			<path class="st16" d="M23.3,16.8l0.4-0.1c1.4-0.3,2.5-0.4,3-0.4c0.4,0,0.6,0.2,0.6,0.5c0,0.2-0.1,0.4-0.2,0.4
				c-0.1,0.1-0.3,0.1-0.6,0.1c-1.7,0.1-3,0.3-3.9,0.6c-0.3,0.5-0.9,1.5-1.5,2.9c-0.4,0.8-0.7,1.6-0.9,2.3c0.1-0.1,0.3-0.1,0.4-0.2
				c1-0.3,1.7-0.5,2.1-0.6c0.6-0.1,1.2-0.2,1.7-0.2c0.4,0,0.6,0,0.8,0.1c0.1,0.1,0.2,0.2,0.2,0.4c0,0.2-0.1,0.3-0.3,0.4
				c-0.1,0-0.3,0-0.6,0c-1.7,0.1-3.3,0.5-4.6,1.3c-0.2,0.1-0.3,0.1-0.5,0.1c-0.2,0-0.3-0.1-0.5-0.3c-0.1-0.2-0.2-0.3-0.2-0.5
				c0-0.2,0.2-0.8,0.6-1.8c0.6-1.6,1.5-3.3,2.5-5.2c0.3-0.6,0.9-1.5,1.8-2.9c0.2-0.3,0.4-0.6,0.6-0.9c-0.3-0.1-0.4-0.2-0.4-0.5
				c0-0.2,0.1-0.4,0.3-0.5c0.3-0.2,1-0.3,2-0.5c1.4-0.2,2.7-0.3,3.7-0.3c0.6,0,0.9,0.1,0.9,0.5c0,0.2-0.1,0.4-0.3,0.5
				c-0.1,0.1-0.3,0.1-0.5,0.1c0,0-0.1,0-0.2,0c-0.1,0-0.2,0-0.3,0c-0.5,0-1.2,0-2,0.1c-0.8,0.1-1.4,0.2-2,0.4
				c0.1,0.1,0.1,0.2,0.1,0.2c0,0.1-0.2,0.4-0.5,0.8l-0.5,0.7C24.1,15.6,23.6,16.3,23.3,16.8z"/>
		</g>
	</g>
</g>
<g id="WordEng_1_" class="st18">
	<g id="WordEng" class="st19">
		<g>
			<path class="st39" d="M259.9,22L259.9,22l-3.3-11.5h-0.6L252.6,22h0l-3.1-11.5h-0.7l3.5,12.7h0.6l3.3-11.4h0l3.3,11.4h0.6
				l3.5-12.7H263L259.9,22z M267.9,13.6c-1.3,0-2.3,0.4-3,1.3c-0.8,0.9-1.1,2.1-1.1,3.6c0,1.5,0.4,2.7,1.1,3.5
				c0.8,0.9,1.8,1.3,3,1.3s2.3-0.4,3-1.3c0.8-0.9,1.1-2.1,1.1-3.5c0-1.5-0.4-2.7-1.1-3.6C270.2,14.1,269.2,13.6,267.9,13.6z
				 M270.4,21.6c-0.6,0.8-1.5,1.1-2.5,1.1c-1.1,0-1.9-0.4-2.5-1.1c-0.6-0.8-1-1.8-1-3.1s0.3-2.3,1-3.1c0.6-0.8,1.5-1.1,2.5-1.1
				s1.9,0.4,2.5,1.1c0.6,0.8,1,1.8,1,3.1C271.4,19.8,271.1,20.8,270.4,21.6z M274.3,15.6L274.3,15.6l0-1.9h-0.6v9.5h0.7v-5.9
				c0-0.9,0.2-1.6,0.6-2.2c0.4-0.6,1-0.9,1.7-0.9c0.4,0,0.7,0.1,1,0.2v-0.7c-0.3-0.1-0.5-0.2-0.9-0.2
				C275.6,13.6,274.7,14.3,274.3,15.6z M285.4,16.3L285.4,16.3c-0.2-0.8-0.7-1.4-1.3-1.9c-0.6-0.5-1.4-0.8-2.2-0.8
				c-1.2,0-2.1,0.4-2.9,1.3c-0.7,0.9-1.1,2.1-1.1,3.5c0,1.4,0.4,2.6,1.1,3.5c0.7,0.9,1.7,1.3,2.9,1.3c0.9,0,1.6-0.3,2.3-0.8
				c0.6-0.5,1.1-1.1,1.3-1.9h0v2.5h0.6V10h-0.7V16.3z M284.4,21.6c-0.6,0.8-1.5,1.2-2.5,1.2c-1,0-1.8-0.4-2.4-1.2
				c-0.6-0.8-0.9-1.8-0.9-3.1c0-1.3,0.3-2.3,0.9-3.1c0.6-0.8,1.4-1.2,2.4-1.2c1,0,1.8,0.4,2.5,1.2c0.6,0.8,1,1.8,1,3.1
				C285.4,19.7,285.1,20.8,284.4,21.6z M288.3,23.2h7.3v-0.6H289V17h6.3v-0.6H289v-5.2h6.6v-0.6h-7.3V23.2z M301.4,13.6
				c-0.8,0-1.5,0.2-2.1,0.6c-0.6,0.4-1,0.9-1.2,1.6h0v-2.1h-0.6v9.5h0.7v-5.6c0-1,0.3-1.8,0.9-2.4c0.6-0.6,1.3-0.9,2.2-0.9
				c0.9,0,1.6,0.3,2.1,0.8c0.5,0.5,0.8,1.2,0.8,2.2v6h0.7v-6.1c0-1.1-0.3-1.9-1-2.5C303.3,14,302.5,13.6,301.4,13.6z M313.9,13.8
				v2.5h0c-0.2-0.8-0.6-1.4-1.3-1.9c-0.6-0.5-1.4-0.8-2.2-0.8c-1.2,0-2.1,0.4-2.9,1.3c-0.7,0.9-1.1,2.1-1.1,3.5
				c0,1.4,0.4,2.6,1.1,3.5c0.7,0.9,1.7,1.3,2.9,1.3c0.8,0,1.6-0.3,2.2-0.8c0.6-0.5,1-1.1,1.3-1.9h0v2.5c0,0.8-0.3,1.4-0.9,1.9
				c-0.6,0.5-1.4,0.7-2.3,0.7c-0.8,0-1.5-0.1-2-0.4c-0.5-0.3-0.9-0.7-1-1.1H307c0.1,0.7,0.5,1.2,1.2,1.6c0.7,0.4,1.5,0.6,2.5,0.6
				c1.2,0,2.1-0.3,2.9-0.9c0.7-0.6,1.1-1.4,1.1-2.4v-9.4H313.9z M312.9,21.5c-0.6,0.8-1.5,1.2-2.5,1.2c-1,0-1.8-0.4-2.4-1.2
				c-0.6-0.8-0.9-1.8-0.9-3c0-1.3,0.3-2.3,0.9-3.1c0.6-0.8,1.4-1.2,2.4-1.2c1,0,1.8,0.4,2.5,1.2c0.6,0.8,0.9,1.8,0.9,3
				C313.9,19.7,313.6,20.7,312.9,21.5z"/>
		</g>
	</g>
</g>
<g id="Learn_new_1_" class="st18">
	<g id="Learn_new" class="st19">
		<g>
			<path class="st39" d="M11.1,49.1h-0.7v12.7h7.3v-0.6h-6.7V49.1z M22.3,52.1c-1.2,0-2.3,0.4-3,1.3c-0.8,0.9-1.1,2.1-1.1,3.5
				c0,1.5,0.4,2.7,1.2,3.6c0.8,0.9,1.8,1.3,3.1,1.3c1,0,1.9-0.3,2.6-0.8c0.7-0.5,1.1-1.2,1.3-2h-0.7c-0.1,0.6-0.5,1.2-1,1.5
				c-0.6,0.4-1.3,0.6-2.1,0.6c-1.1,0-1.9-0.4-2.6-1.1c-0.6-0.7-1-1.7-1-3v0h7.5v-0.4c0-1.4-0.4-2.5-1.1-3.3
				C24.5,52.6,23.6,52.1,22.3,52.1z M18.9,56.5c0.1-1.1,0.4-2,1-2.7c0.6-0.7,1.4-1,2.4-1c1,0,1.8,0.3,2.4,1c0.6,0.7,0.9,1.6,0.9,2.7
				H18.9z M31.6,52.1c-1,0-1.8,0.3-2.5,0.8c-0.7,0.5-1,1.2-1.1,2.1h0.7c0.1-0.7,0.4-1.3,0.9-1.7c0.5-0.4,1.2-0.6,2-0.6
				c0.8,0,1.5,0.2,2,0.7c0.5,0.5,0.7,1.1,0.7,1.9v0.8l-3.2,0.2c-2.3,0.2-3.4,1.1-3.4,2.7c0,0.8,0.3,1.4,0.9,1.9
				c0.6,0.5,1.3,0.7,2.3,0.7c0.8,0,1.5-0.2,2.2-0.6s1.1-0.9,1.3-1.6h0v2H35v-6.4c0-1-0.3-1.8-0.9-2.3C33.5,52.4,32.7,52.1,31.6,52.1
				z M34.3,58.2c0,0.8-0.3,1.6-1,2.1c-0.7,0.6-1.5,0.9-2.4,0.9c-0.7,0-1.3-0.2-1.8-0.6c-0.5-0.4-0.7-0.9-0.7-1.5
				c0-1.3,0.9-2,2.8-2.1l3.2-0.2V58.2z M37.7,54.1L37.7,54.1l0-1.9H37v9.5h0.7v-5.9c0-0.9,0.2-1.6,0.7-2.2c0.4-0.6,1-0.9,1.8-0.9
				c0.4,0,0.7,0.1,1,0.2v-0.7c-0.3-0.1-0.6-0.2-0.9-0.2C38.9,52.1,38.1,52.8,37.7,54.1z M46.4,52.1c-0.8,0-1.5,0.2-2.1,0.6
				c-0.6,0.4-1,0.9-1.2,1.6h0v-2.1h-0.6v9.5h0.7v-5.6c0-1,0.3-1.8,0.9-2.4c0.6-0.6,1.3-0.9,2.3-0.9c0.9,0,1.6,0.3,2.1,0.8
				c0.5,0.5,0.8,1.2,0.8,2.2v6h0.7v-6.1c0-1.1-0.3-1.9-1-2.5C48.3,52.5,47.5,52.1,46.4,52.1z M59.5,52.1c-0.8,0-1.5,0.2-2.1,0.6
				c-0.6,0.4-1,0.9-1.2,1.6h0v-2.1h-0.6v9.5h0.7v-5.6c0-1,0.3-1.8,0.9-2.4c0.6-0.6,1.3-0.9,2.3-0.9c0.9,0,1.6,0.3,2.1,0.8
				c0.5,0.5,0.8,1.2,0.8,2.2v6H63v-6.1c0-1.1-0.3-1.9-1-2.5C61.4,52.5,60.5,52.1,59.5,52.1z M68.7,52.1c-1.2,0-2.3,0.4-3,1.3
				c-0.8,0.9-1.1,2.1-1.1,3.5c0,1.5,0.4,2.7,1.2,3.6c0.7,0.9,1.8,1.3,3.1,1.3c1,0,1.9-0.3,2.6-0.8c0.7-0.5,1.1-1.2,1.3-2h-0.7
				c-0.1,0.6-0.5,1.2-1,1.5c-0.6,0.4-1.3,0.6-2.1,0.6c-1.1,0-1.9-0.4-2.6-1.1c-0.6-0.7-1-1.7-1-3v0h7.5v-0.4c0-1.4-0.4-2.5-1.1-3.3
				C70.9,52.6,69.9,52.1,68.7,52.1z M65.2,56.5c0.1-1.1,0.4-2,1-2.7c0.6-0.7,1.4-1,2.4-1c1,0,1.8,0.3,2.4,1c0.6,0.7,0.9,1.6,0.9,2.7
				H65.2z M84.9,52.3L82.4,61h0l-2.6-8.7H79L76.4,61h0l-2.4-8.7h-0.7l2.8,9.5h0.8l2.6-8.6h0l2.6,8.6h0.8l2.8-9.5H84.9z"/>
		</g>
	</g>
</g>
<g id="Reiteration_1_" class="st18">
	<g id="Reiteration" class="st19">
		<g>
			<path class="st39" d="M111.2,56.6c0.5-0.6,0.8-1.4,0.8-2.3c0-1.1-0.4-2-1.1-2.6c-0.7-0.7-1.7-1-3-1h-4.1v12.7h0.7V58h3.4
				c0.2,0,0.3,0,0.4,0l3.2,5.4h0.8l-3.3-5.5C110,57.7,110.7,57.3,111.2,56.6z M107.9,57.3h-3.4v-6h3.4c1.1,0,1.9,0.3,2.5,0.8
				c0.6,0.5,0.9,1.3,0.9,2.2c0,0.9-0.3,1.7-0.9,2.2C109.8,57.1,109,57.3,107.9,57.3z M117.4,53.8c-1.2,0-2.3,0.4-3,1.3
				c-0.8,0.9-1.1,2.1-1.1,3.5c0,1.5,0.4,2.7,1.2,3.6c0.7,0.9,1.8,1.3,3.1,1.3c1,0,1.9-0.3,2.6-0.8c0.7-0.5,1.1-1.2,1.3-2h-0.7
				c-0.1,0.6-0.5,1.2-1,1.5c-0.6,0.4-1.3,0.6-2.1,0.6c-1.1,0-1.9-0.4-2.6-1.1c-0.6-0.7-1-1.7-1-3v0h7.5v-0.4c0-1.4-0.4-2.5-1.1-3.3
				C119.6,54.2,118.6,53.8,117.4,53.8z M113.9,58.2c0.1-1.1,0.4-2,1-2.7c0.6-0.7,1.4-1,2.4-1c1,0,1.8,0.3,2.4,1
				c0.6,0.7,0.9,1.6,0.9,2.7H113.9z M123.5,50.5c-0.2,0-0.3,0.1-0.4,0.2c-0.1,0.1-0.2,0.2-0.2,0.4c0,0.1,0.1,0.3,0.2,0.4
				c0.1,0.1,0.2,0.2,0.4,0.2c0.2,0,0.3-0.1,0.4-0.2c0.1-0.1,0.2-0.2,0.2-0.4c0-0.2-0.1-0.3-0.2-0.4
				C123.8,50.6,123.6,50.5,123.5,50.5z M123.1,63.4h0.7v-9.5h-0.7V63.4z M127.5,62.4c-0.2-0.2-0.3-0.7-0.3-1.2v-6.7h2v-0.6h-2v-2.4
				h-0.7v2.4h-1.4v0.6h1.4v6.7c0,0.8,0.2,1.3,0.5,1.7c0.3,0.3,0.8,0.5,1.5,0.5c0.5,0,0.7,0,0.8,0v-0.6c0,0-0.3,0-0.7,0
				C128.1,62.8,127.7,62.7,127.5,62.4z M134.1,53.8c-1.2,0-2.3,0.4-3,1.3c-0.8,0.9-1.1,2.1-1.1,3.5c0,1.5,0.4,2.7,1.2,3.6
				c0.8,0.9,1.8,1.3,3.1,1.3c1,0,1.9-0.3,2.6-0.8c0.7-0.5,1.1-1.2,1.3-2h-0.7c-0.1,0.6-0.5,1.2-1,1.5c-0.6,0.4-1.3,0.6-2.1,0.6
				c-1.1,0-1.9-0.4-2.6-1.1c-0.6-0.7-1-1.7-1-3v0h7.5v-0.4c0-1.4-0.4-2.5-1.1-3.3C136.3,54.2,135.3,53.8,134.1,53.8z M130.7,58.2
				c0.1-1.1,0.4-2,1-2.7c0.6-0.7,1.4-1,2.4-1c1,0,1.8,0.3,2.4,1c0.6,0.7,0.9,1.6,0.9,2.7H130.7z M140.5,55.8L140.5,55.8l0-1.9h-0.6
				v9.5h0.7v-5.9c0-0.9,0.2-1.6,0.7-2.2c0.4-0.6,1-0.9,1.8-0.9c0.4,0,0.7,0.1,1,0.2V54c-0.3-0.1-0.6-0.2-0.9-0.2
				C141.7,53.8,140.8,54.5,140.5,55.8z M148.3,53.8c-1,0-1.8,0.3-2.5,0.8c-0.7,0.5-1,1.2-1.1,2.1h0.7c0.1-0.7,0.4-1.3,0.9-1.7
				c0.5-0.4,1.2-0.6,2-0.6c0.8,0,1.5,0.2,2,0.7c0.5,0.5,0.7,1.1,0.7,1.9v0.8l-3.2,0.2c-2.3,0.2-3.4,1.1-3.4,2.7
				c0,0.8,0.3,1.4,0.9,1.9c0.6,0.5,1.3,0.7,2.3,0.7c0.8,0,1.5-0.2,2.2-0.6c0.6-0.4,1.1-0.9,1.3-1.6h0v2h0.7V57c0-1-0.3-1.8-0.9-2.3
				C150.2,54.1,149.4,53.8,148.3,53.8z M151,59.9c0,0.8-0.3,1.6-1,2.1c-0.7,0.6-1.5,0.9-2.4,0.9c-0.7,0-1.3-0.2-1.8-0.6
				c-0.5-0.4-0.7-0.9-0.7-1.5c0-1.3,0.9-2,2.8-2.1l3.2-0.2V59.9z M155.3,62.4c-0.2-0.2-0.3-0.7-0.3-1.2v-6.7h2v-0.6h-2v-2.4h-0.7
				v2.4h-1.4v0.6h1.4v6.7c0,0.8,0.2,1.3,0.5,1.7c0.3,0.3,0.8,0.5,1.5,0.5c0.5,0,0.7,0,0.8,0v-0.6c0,0-0.3,0-0.7,0
				C155.8,62.8,155.5,62.7,155.3,62.4z M158.7,63.4h0.7v-9.5h-0.7V63.4z M159,50.5c-0.2,0-0.3,0.1-0.4,0.2c-0.1,0.1-0.2,0.2-0.2,0.4
				c0,0.1,0.1,0.3,0.2,0.4c0.1,0.1,0.2,0.2,0.4,0.2c0.2,0,0.3-0.1,0.4-0.2c0.1-0.1,0.2-0.2,0.2-0.4c0-0.2-0.1-0.3-0.2-0.4
				C159.3,50.6,159.2,50.5,159,50.5z M165.3,53.8c-1.3,0-2.3,0.4-3,1.3c-0.8,0.9-1.2,2.1-1.2,3.6c0,1.5,0.4,2.7,1.2,3.5
				c0.8,0.9,1.8,1.3,3,1.3c1.3,0,2.3-0.4,3.1-1.3c0.8-0.9,1.2-2.1,1.2-3.5c0-1.5-0.4-2.7-1.2-3.6C167.6,54.2,166.5,53.8,165.3,53.8z
				 M167.8,61.7c-0.6,0.8-1.5,1.1-2.6,1.1c-1.1,0-1.9-0.4-2.6-1.1c-0.6-0.8-1-1.8-1-3.1c0-1.3,0.3-2.3,1-3.1
				c0.6-0.8,1.5-1.1,2.6-1.1c1.1,0,1.9,0.4,2.6,1.1c0.6,0.8,1,1.8,1,3.1C168.8,60,168.5,61,167.8,61.7z M177.6,54.7
				c-0.6-0.6-1.5-0.9-2.5-0.9c-0.8,0-1.5,0.2-2.1,0.6c-0.6,0.4-1,0.9-1.2,1.6h0v-2.1h-0.6v9.5h0.7v-5.6c0-1,0.3-1.8,0.9-2.4
				c0.6-0.6,1.3-0.9,2.3-0.9c0.9,0,1.6,0.3,2.1,0.8c0.5,0.5,0.8,1.2,0.8,2.2v6h0.7v-6.1C178.6,56.2,178.2,55.4,177.6,54.7z"/>
		</g>
	</g>
</g>
<g id="Слой_7_xA0_Изображение_1_" class="st40">
	<g class="st19">
		<g>
			<path class="st16" d="M238.7,70c-16.4,0-32.5,0-48.7,0c0-8,0-15.9,0-23.9c16.2,0,32.5,0,48.7,0C238.7,54,238.7,62,238.7,70z"/>
		</g>
	</g>
</g>
<g id="help_1_" class="st18">
	<g id="help" class="st19">
		<g>
			<path class="st39" d="M206.4,55.9h-8v-5.9h-0.7v12.7h0.7v-6.2h8v6.2h0.7V50.1h-0.7V55.9z M213,53.1c-1.2,0-2.3,0.4-3,1.3
				c-0.8,0.9-1.1,2.1-1.1,3.5c0,1.5,0.4,2.7,1.2,3.6c0.7,0.9,1.8,1.3,3.1,1.3c1,0,1.9-0.3,2.6-0.8c0.7-0.5,1.1-1.2,1.3-2h-0.7
				c-0.1,0.6-0.5,1.2-1,1.5c-0.6,0.4-1.3,0.6-2.1,0.6c-1.1,0-1.9-0.4-2.6-1.1c-0.6-0.7-1-1.7-1-3v0h7.5v-0.4c0-1.4-0.4-2.5-1.1-3.3
				C215.2,53.6,214.2,53.1,213,53.1z M209.5,57.5c0.1-1.1,0.4-2,1-2.7c0.6-0.7,1.4-1,2.4-1c1,0,1.8,0.3,2.4,1
				c0.6,0.7,0.9,1.6,0.9,2.7H209.5z M218.7,62.7h0.7V49.5h-0.7V62.7z M228.7,54.5c-0.7-0.9-1.7-1.3-2.9-1.3c-0.8,0-1.6,0.3-2.3,0.8
				c-0.6,0.5-1.1,1.1-1.3,1.9h0v-2.5h-0.6v12.5h0.7v-5.5h0c0.2,0.8,0.6,1.4,1.3,1.9c0.6,0.5,1.4,0.8,2.3,0.8c1.2,0,2.2-0.4,2.9-1.3
				c0.7-0.9,1.1-2.1,1.1-3.5C229.8,56.6,229.4,55.4,228.7,54.5z M228.2,61.1c-0.6,0.8-1.4,1.2-2.5,1.2c-1,0-1.8-0.4-2.5-1.2
				c-0.6-0.8-1-1.8-1-3c0-1.3,0.3-2.3,1-3.1c0.6-0.8,1.5-1.2,2.5-1.2c1,0,1.8,0.4,2.5,1.2c0.6,0.8,0.9,1.8,0.9,3.1
				C229.1,59.3,228.8,60.3,228.2,61.1z"/>
		</g>
	</g>
</g>
</svg>
