<?xml version="1.0" encoding="utf-8"?>
<!-- Generator: Adobe Illustrator 22.1.0, SVG Export Plug-In . SVG Version: 6.00 Build 0)  -->
<svg version="1.1" id="Слой_1" xmlns="http://www.w3.org/2000/svg" xmlns:xlink="http://www.w3.org/1999/xlink" x="0px" y="0px"
	 viewBox="0 0 25.6 26.1" style="enable-background:new 0 0 25.6 26.1;" xml:space="preserve">
<style type="text/css">
	.st0{fill:url(#SVGID_1_);}
	.st1{fill:url(#SVGID_2_);}
	.st2{fill:url(#SVGID_3_);}
	.st3{fill:url(#SVGID_4_);}
	.st4{fill:url(#SVGID_5_);}
	.st5{fill:url(#SVGID_6_);}
	.st6{fill:url(#SVGID_7_);}
	.st7{fill:url(#SVGID_8_);}
	.st8{fill:url(#SVGID_9_);}
	.st9{fill:#FFFFFF;}
</style>
<title>Ресурс 2</title>
<g id="Слой_2_1_">
	<g id="Слой_26">
		
			<linearGradient id="SVGID_1_" gradientUnits="userSpaceOnUse" x1="0.8985" y1="-129.4005" x2="0.4985" y2="-128.1705" gradientTransform="matrix(1 0 0 1 0 140.62)">
			<stop  offset="0" style="stop-color:#FF224C"/>
			<stop  offset="1" style="stop-color:#C3224C"/>
		</linearGradient>
		<circle class="st0" cx="0.7" cy="11.8" r="0.6"/>
		
			<linearGradient id="SVGID_2_" gradientUnits="userSpaceOnUse" x1="0.8485" y1="-134.1604" x2="0.4485" y2="-132.9305" gradientTransform="matrix(1 0 0 1 0 140.62)">
			<stop  offset="0" style="stop-color:#FF224C"/>
			<stop  offset="1" style="stop-color:#C3224C"/>
		</linearGradient>
		<circle class="st1" cx="0.6" cy="7.1" r="0.7"/>
		
			<linearGradient id="SVGID_3_" gradientUnits="userSpaceOnUse" x1="2.7631" y1="-136.809" x2="2.4131" y2="-135.719" gradientTransform="matrix(1 0 0 1 0 140.62)">
			<stop  offset="0" style="stop-color:#FF224C"/>
			<stop  offset="1" style="stop-color:#C3224C"/>
		</linearGradient>
		<circle class="st2" cx="2.6" cy="4.3" r="0.6"/>
		
			<linearGradient id="SVGID_4_" gradientUnits="userSpaceOnUse" x1="5.13" y1="-138.93" x2="4.71" y2="-137.65" gradientTransform="matrix(1 0 0 1 0 140.62)">
			<stop  offset="0" style="stop-color:#FF224C"/>
			<stop  offset="1" style="stop-color:#C3224C"/>
		</linearGradient>
		<circle class="st3" cx="4.9" cy="2.3" r="0.7"/>
		
			<linearGradient id="SVGID_5_" gradientUnits="userSpaceOnUse" x1="8.4185" y1="-140.5705" x2="7.8385" y2="-138.8005" gradientTransform="matrix(1 0 0 1 0 140.62)">
			<stop  offset="0" style="stop-color:#FF224C"/>
			<stop  offset="1" style="stop-color:#C3224C"/>
		</linearGradient>
		<circle class="st4" cx="8.1" cy="0.9" r="0.9"/>
		
			<linearGradient id="SVGID_6_" gradientUnits="userSpaceOnUse" x1="3.0015" y1="-134.4195" x2="2.5415" y2="-132.9895" gradientTransform="matrix(1 0 0 1 0 140.62)">
			<stop  offset="0" style="stop-color:#FF224C"/>
			<stop  offset="1" style="stop-color:#C3224C"/>
		</linearGradient>
		<circle class="st5" cx="2.8" cy="6.9" r="0.8"/>
		
			<linearGradient id="SVGID_7_" gradientUnits="userSpaceOnUse" x1="7.7425" y1="-136.7624" x2="6.7525" y2="-133.7024" gradientTransform="matrix(1 0 0 1 0 140.62)">
			<stop  offset="0" style="stop-color:#FF224C"/>
			<stop  offset="1" style="stop-color:#C3224C"/>
		</linearGradient>
		<circle class="st6" cx="7.3" cy="5.4" r="1.6"/>
		
			<linearGradient id="SVGID_8_" gradientUnits="userSpaceOnUse" x1="3.9585" y1="-129.8305" x2="3.1385" y2="-127.3203" gradientTransform="matrix(1 0 0 1 0 140.62)">
			<stop  offset="0" style="stop-color:#FF224C"/>
			<stop  offset="1" style="stop-color:#C3224C"/>
		</linearGradient>
		<circle class="st7" cx="3.5" cy="12" r="1.3"/>
		
			<linearGradient id="SVGID_9_" gradientUnits="userSpaceOnUse" x1="16.4942" y1="-137.2262" x2="9.3022" y2="-115.1102" gradientTransform="matrix(1 0 0 1 0 140.62)">
			<stop  offset="0" style="stop-color:#FF224C"/>
			<stop  offset="1" style="stop-color:#C3224C"/>
		</linearGradient>
		<path class="st8" d="M24.1,15c0-0.5-0.1-4.6-2.8-7.4c-0.8-0.7-1.6-1.4-2.5-1.9c-1-0.6-2-1-3.1-1.3c-0.5-0.1-1-0.2-1.5-0.4H14
			l-0.3-0.1c0,0-0.1-0.1-0.2-0.1c-0.1-0.1-0.1-0.1-0.3-0.2c-0.1-0.1-0.2-0.1-0.3-0.2c0,0-0.1-0.1-0.1-0.2c-0.2-0.4-0.4-0.7-0.7-1
			c-0.4-0.4-0.9-0.6-1.4-0.6c-0.6,0-1.2,0.3-1.6,0.7C9,2.8,8.8,3.3,8.8,3.8c0,0.2,0,0.4,0.1,0.6C8.9,4.6,9,4.9,9.2,5.1
			c0.1,0.3,0,0.6-0.1,0.9C8.9,6.7,8.5,7.1,7.9,7.3C7.4,7.4,7,7.4,6.5,7.3c-0.1,0-0.3,0-0.4,0c-0.3,0-0.6,0-0.9,0
			c-0.6,0.1-0.9,0.9-1,1C4,8.9,4,9.5,4.2,10c0.1,0.1,0.1,0.2,0.2,0.3c0.3,0.3,0.5,0.6,0.7,1c0.2,0.4,0.3,0.9,0.2,1.4
			c0,0.3-0.2,0.7-0.4,0.9c-0.2,0.2-0.5,0.3-0.7,0.4c-0.4,0.1-0.8,0.1-1.2,0c-0.1,0-0.2,0-0.3-0.1H2.5c-0.3,0-0.7,0.1-1,0.3
			c-0.6,0.4-0.9,1.1-0.8,1.7c0.1,0.4,0.2,0.7,0.5,1L1.4,17l0.3,0.4c0.1,0.1,0.1,0.1,0.3,0.3c0.1,0.1,0.3,0.3,0.4,0.5
			c0.1,0.2,0.2,0.5,0.3,0.9c1.1,2.6,3,4.8,5.6,6.1c1.5,0.7,3.1,1.1,4.8,1.1c2.7,0,5.3-0.9,7.4-2.6C22.7,21.3,24.1,18.2,24.1,15z"/>
		<path class="st9" d="M5.9,20c0.4-0.5,0.7-1,1-1.4c0.2-0.3,0.6-1,1.3-2.2L9.1,15c0.6-1,1-1.7,1.2-1.9c0.3-0.5,0.7-0.7,1-0.7
			s0.4,0.1,0.4,0.3c0,0.2-0.1,0.3-0.1,0.5c-0.1,0.1-0.3,0.6-0.6,1.4c-0.3,0.9-0.5,1.8-0.7,2.7c-0.1,0.6-0.2,1.2-0.2,1.8
			c0,0.1,0,0.3,0,0.5s0,0.4,0.1,0.6c0.3-0.4,0.6-0.9,0.9-1.4c0.3-0.6,0.8-1.6,1.4-2.9s1.3-2.6,2.1-4c0.7-1.2,1.5-2.4,2.4-3.4
			c0.4-0.6,0.8-0.8,1-0.8c0.1,0,0.2,0.1,0.3,0.2c0.1,0.1,0.1,0.2,0.1,0.3c-0.1,0.4-0.3,0.7-0.6,1c-0.8,1.1-1.6,2.2-2.3,3.4
			c-0.8,1.4-1.9,3.5-3.1,6.1c-0.6,1.2-1,2-1.3,2.5c-0.2,0.4-0.6,0.7-1.1,0.8c-0.3,0-0.7-0.2-0.8-0.5C9.1,20.6,9,20.1,9,19.7
			c0-1.2,0.2-2.4,0.5-3.5c-0.4,0.5-0.8,1.1-1.1,1.6c-0.3,0.5-0.6,1-0.9,1.5c-0.4,0.7-0.7,1.2-0.8,1.4c-0.2,0.3-0.4,0.6-0.7,0.9
			c-0.2,0.2-0.4,0.2-0.6,0.2c-0.2,0-0.5-0.1-0.6-0.4c-0.1-0.2-0.1-0.4-0.1-0.6c0-1.6,0.8-4.4,2.5-8.4c0.8-2,1.3-3.2,1.4-3.6
			c0.1-0.3,0.2-0.6,0.4-0.8c0.1-0.2,0.3-0.3,0.6-0.3c0.3,0,0.4,0.1,0.4,0.4c0,0.5-0.2,1-0.4,1.5c-0.3,0.8-0.7,1.9-1.4,3.3
			c-0.4,1-0.7,1.7-0.9,2.2C6.7,16.8,6.3,18.4,5.9,20z"/>
		<path class="st9" d="M18,13.1l0.4-0.1c1-0.2,2-0.3,3-0.4c0.4,0,0.6,0.2,0.6,0.5c0,0.2-0.1,0.3-0.2,0.4c-0.2,0.1-0.4,0.1-0.6,0.1
			c-1.3,0-2.6,0.2-3.9,0.6c-0.6,0.9-1.1,1.9-1.5,2.9c-0.4,0.7-0.7,1.5-0.9,2.3l0.4-0.2c0.7-0.3,1.4-0.5,2.2-0.6
			c0.6-0.1,1.1-0.2,1.7-0.2c0.3,0,0.5,0,0.8,0.1c0.2,0.1,0.2,0.2,0.2,0.4c0,0.2-0.1,0.4-0.3,0.4c-0.2,0-0.4,0.1-0.6,0
			c-1.6,0.1-3.2,0.5-4.6,1.3c-0.1,0.1-0.3,0.1-0.4,0.1c-0.2,0-0.4-0.1-0.5-0.3c-0.1-0.1-0.2-0.3-0.2-0.5c0.1-0.6,0.4-1.2,0.6-1.8
			c0.7-1.8,1.6-3.5,2.6-5.2c0.3-0.6,0.9-1.5,1.8-2.9c0.2-0.3,0.4-0.6,0.6-0.9c-0.3,0-0.4-0.3-0.4-0.5c0-0.2,0.1-0.4,0.3-0.5
			c0.6-0.2,1.3-0.4,2-0.5c1.2-0.2,2.5-0.3,3.7-0.3c0.6,0,0.9,0.2,0.9,0.5c0,0.2-0.1,0.4-0.3,0.5c-0.1,0.1-0.3,0.1-0.5,0.1h-0.5
			c-0.7,0-1.3,0.1-2,0.1c-0.7,0.1-1.3,0.2-2,0.4c0.1,0.1,0.1,0.1,0.1,0.2c-0.1,0.3-0.3,0.5-0.5,0.8l-0.5,0.7
			C18.9,11.6,18.4,12.4,18,13.1z"/>
	</g>
</g>
</svg>
