<svg xmlns="http://www.w3.org/2000/svg" xmlns:xlink="http://www.w3.org/1999/xlink" viewBox="0 0 25.57 26.12"><defs><style>.cls-1{fill:url(#Безымянный_градиент_9);}.cls-2{fill:url(#Безымянный_градиент_9-2);}.cls-3{fill:url(#Безымянный_градиент_9-3);}.cls-4{fill:url(#Безымянный_градиент_9-4);}.cls-5{fill:url(#Безымянный_градиент_9-5);}.cls-6{fill:url(#Безымянный_градиент_9-6);}.cls-7{fill:url(#Безымянный_градиент_9-7);}.cls-8{fill:url(#Безымянный_градиент_9-8);}.cls-9{fill:url(#Безымянный_градиент_9-9);}.cls-10{fill:#fff;}</style><linearGradient id="Безымянный_градиент_9" x1="0.9" y1="921.4" x2="0.5" y2="920.17" gradientTransform="matrix(1, 0, 0, -1, 0, 932.62)" gradientUnits="userSpaceOnUse"><stop offset="0" stop-color="#ff224c"/><stop offset="1" stop-color="#c3224c"/></linearGradient><linearGradient id="Безымянный_градиент_9-2" x1="0.85" y1="926.16" x2="0.45" y2="924.93" xlink:href="#Безымянный_градиент_9"/><linearGradient id="Безымянный_градиент_9-3" x1="2.76" y1="928.81" x2="2.41" y2="927.72" xlink:href="#Безымянный_градиент_9"/><linearGradient id="Безымянный_градиент_9-4" x1="5.13" y1="930.93" x2="4.71" y2="929.65" xlink:href="#Безымянный_градиент_9"/><linearGradient id="Безымянный_градиент_9-5" x1="8.42" y1="932.57" x2="7.84" y2="930.8" xlink:href="#Безымянный_градиент_9"/><linearGradient id="Безымянный_градиент_9-6" x1="3" y1="926.42" x2="2.54" y2="924.99" xlink:href="#Безымянный_градиент_9"/><linearGradient id="Безымянный_градиент_9-7" x1="7.75" y1="928.76" x2="6.76" y2="925.7" xlink:href="#Безымянный_градиент_9"/><linearGradient id="Безымянный_градиент_9-8" x1="3.96" y1="921.83" x2="3.14" y2="919.32" xlink:href="#Безымянный_градиент_9"/><linearGradient id="Безымянный_градиент_9-9" x1="16.5" y1="929.21" x2="9.31" y2="907.1" xlink:href="#Безымянный_градиент_9"/></defs><title>Ресурс 2</title><g id="Слой_2" data-name="Слой 2"><g id="Слой_26" data-name="Слой 26"><circle class="cls-1" cx="0.7" cy="11.83" r="0.65"/><circle class="cls-2" cx="0.65" cy="7.07" r="0.65"/><circle class="cls-3" cx="2.59" cy="4.35" r="0.57"/><circle class="cls-4" cx="4.92" cy="2.33" r="0.67"/><circle class="cls-5" cx="8.13" cy="0.93" r="0.93"/><circle class="cls-6" cx="2.77" cy="6.92" r="0.75"/><circle class="cls-7" cx="7.25" cy="5.38" r="1.61"/><circle class="cls-8" cx="3.55" cy="12.04" r="1.32"/><path class="cls-9" d="M24.08,15c0-.5-.07-4.61-2.8-7.37a13.09,13.09,0,0,0-2.53-1.92,10.14,10.14,0,0,0-3.11-1.29A5,5,0,0,1,14.14,4L14,4l-.26-.1a.91.91,0,0,0-.16-.1c-.13-.09-.15-.09-.26-.16a.87.87,0,0,1-.25-.21A.56.56,0,0,1,13,3.27a6.42,6.42,0,0,0-.72-1,2.08,2.08,0,0,0-1.4-.62,2.14,2.14,0,0,0-1.6.72,2.26,2.26,0,0,0-.52,1.4,2.58,2.58,0,0,0,.08.6,2.84,2.84,0,0,0,.33.75,1.8,1.8,0,0,1-.05.93,2,2,0,0,1-1.24,1.3,3.8,3.8,0,0,1-1.35,0,2.5,2.5,0,0,0-.41,0,2.87,2.87,0,0,0-.88,0c-.6.14-.91.85-1,1a1.89,1.89,0,0,0,0,1.61,1.8,1.8,0,0,0,.2.26,7.59,7.59,0,0,1,.73,1,2.18,2.18,0,0,1,.2,1.35,1.49,1.49,0,0,1-.41.93,1.51,1.51,0,0,1-.72.36,2.76,2.76,0,0,1-1.2,0,1.43,1.43,0,0,0-.3-.05H2.45a2.4,2.4,0,0,0-1,.26A1.74,1.74,0,0,0,.69,15.8a2,2,0,0,0,.51,1l.16.16.31.36c.13.14.15.15.26.26a2.54,2.54,0,0,1,.36.46c.07.22.19.54.35.92A11.78,11.78,0,0,0,8.2,25.06,11.17,11.17,0,0,0,13,26.12a11.19,11.19,0,0,0,7.36-2.61A11.44,11.44,0,0,0,24.08,15Z"/><path class="cls-10" d="M5.93,20c.38-.5.72-1,1-1.44.17-.27.62-1,1.35-2.2L9.13,15c.61-1,1-1.66,1.22-1.94.34-.48.67-.72,1-.72s.35.1.35.28a1.29,1.29,0,0,1-.13.47c-.07.14-.25.59-.56,1.37a13.75,13.75,0,0,0-.69,2.66,10.68,10.68,0,0,0-.18,1.78c0,.14,0,.3,0,.47s0,.37.08.58a8.44,8.44,0,0,0,.86-1.42c.31-.61.77-1.59,1.4-2.94s1.3-2.62,2.1-4A28.33,28.33,0,0,1,17,8.14c.42-.55.77-.82,1-.82a.41.41,0,0,1,.31.16.44.44,0,0,1,.09.27,2.84,2.84,0,0,1-.6,1,30.69,30.69,0,0,0-2.3,3.38c-.83,1.42-1.87,3.46-3.13,6.09-.55,1.18-1,2-1.27,2.52a1.31,1.31,0,0,1-1.07.77A.82.82,0,0,1,9.24,21,2.74,2.74,0,0,1,9,19.7a16.92,16.92,0,0,1,.47-3.53,13.71,13.71,0,0,0-1.08,1.64c-.31.52-.6,1-.89,1.51-.42.7-.7,1.18-.84,1.42a3.86,3.86,0,0,1-.65.88.8.8,0,0,1-.58.24.61.61,0,0,1-.58-.35,1.13,1.13,0,0,1-.13-.58c0-1.56.82-4.35,2.46-8.39.8-2,1.26-3.18,1.39-3.63a2,2,0,0,1,.36-.82.74.74,0,0,1,.55-.26c.29,0,.43.14.43.41a4.92,4.92,0,0,1-.37,1.53c-.28.77-.74,1.86-1.36,3.28-.42,1-.73,1.71-.9,2.2A30.33,30.33,0,0,0,5.93,20Z"/><path class="cls-10" d="M18,13.12l.39-.07a19.83,19.83,0,0,1,3-.41c.41,0,.62.17.62.5a.44.44,0,0,1-.24.43,1.79,1.79,0,0,1-.58.09,16.62,16.62,0,0,0-3.87.6,24.64,24.64,0,0,0-1.52,2.9,18.46,18.46,0,0,0-.91,2.3l.44-.16a21.63,21.63,0,0,1,2.15-.64,8.91,8.91,0,0,1,1.72-.18,1.9,1.9,0,0,1,.78.13.41.41,0,0,1,.23.41.4.4,0,0,1-.27.41,3,3,0,0,1-.61.05,10.38,10.38,0,0,0-4.65,1.28,1,1,0,0,1-.45.14.61.61,0,0,1-.49-.28.76.76,0,0,1-.19-.49,10.2,10.2,0,0,1,.62-1.81,39.63,39.63,0,0,1,2.55-5.19q.48-.86,1.83-2.88c.2-.32.4-.62.59-.93a.47.47,0,0,1-.4-.52.49.49,0,0,1,.32-.46,8.51,8.51,0,0,1,2-.46,24.09,24.09,0,0,1,3.69-.34c.57,0,.86.15.86.46a.64.64,0,0,1-.3.53.81.81,0,0,1-.47.11h-.55a19.16,19.16,0,0,0-2,.14,11.5,11.5,0,0,0-2,.38.53.53,0,0,1,.1.23,2.14,2.14,0,0,1-.47.77l-.47.73A25.6,25.6,0,0,0,18,13.12Z"/></g></g></svg>