<?xml version="1.0" encoding="utf-8"?>
<!-- Generator: Adobe Illustrator 22.0.1, SVG Export Plug-In . SVG Version: 6.00 Build 0)  -->
<svg version="1.1" xmlns="http://www.w3.org/2000/svg" xmlns:xlink="http://www.w3.org/1999/xlink" x="0px" y="0px"
	 viewBox="0 0 386.5 381.5" style="enable-background:new 0 0 386.5 381.5;" xml:space="preserve">
<style type="text/css">
	.st0{display:none;}
	.st1{display:inline;}
	.st2{display:inline;fill:#1D1C21;}
	.st3{display:inline;opacity:0.55;fill:#303033;}
	.st4{display:inline;opacity:0.82;fill:#1C1C1E;}
	.st5{display:inline;opacity:0.64;fill:#131316;}
	.st6{display:inline;opacity:0.79;fill:url(#SVGID_1_);}
	.st7{fill:url(#SVGID_2_);}
	.st8{fill:url(#SVGID_3_);}
	.st9{fill:url(#SVGID_4_);}
	.st10{fill:url(#SVGID_5_);}
	.st11{fill:url(#SVGID_6_);}
	.st12{fill:url(#SVGID_7_);}
	.st13{fill:url(#SVGID_8_);}
	.st14{fill:url(#SVGID_9_);}
	.st15{fill:url(#SVGID_10_);}
	.st16{opacity:0.51;}
	.st17{opacity:0.57;}
	.st18{fill:#FFFFFF;}
	.st19{fill:#FFFFFF;stroke:#FFFFFF;stroke-width:8;stroke-miterlimit:10;}
	.st20{display:none;enable-background:new    ;}
	.st21{fill-rule:evenodd;clip-rule:evenodd;fill:#A0A0A0;}
	.st22{display:none;opacity:0.7686;}
	.st23{fill-rule:evenodd;clip-rule:evenodd;fill:#FEFEFE;}
	.st24{fill-rule:evenodd;clip-rule:evenodd;fill:#C02544;}
	.st25{fill-rule:evenodd;clip-rule:evenodd;}
	.st26{fill-rule:evenodd;clip-rule:evenodd;fill:#A5A4A4;}
	.st27{fill:none;}
	.st28{fill:#A0A0A0;}
	.st29{display:inline;fill:#A0A0A0;}
	.st30{fill:url(#SVGID_11_);}
	.st31{fill:url(#SVGID_12_);}
	.st32{fill:url(#SVGID_13_);}
	.st33{fill:url(#SVGID_14_);}
	.st34{fill:url(#SVGID_15_);}
	.st35{fill:url(#SVGID_16_);}
	.st36{fill:url(#SVGID_17_);}
	.st37{fill:url(#SVGID_18_);}
	.st38{fill:url(#SVGID_19_);}
	.st39{fill-rule:evenodd;clip-rule:evenodd;fill:#C7C7C7;}
	.st40{display:none;opacity:0.1608;}
</style>
<g id="Слой_2__x2B__Слой_4__x2B__Слой_3__x2B__Слой_5__x2B__Слой_6__x2B__Create_by__x2B__Группа_1__x2B__Слой_8__x2B__Learn_English_x21___x2B__шапка__x2B__кнопки__x2B__иконка__x2B__WordEng__x2B__Learn_new__x2B__Reiteration__x2B__Слой_7__x2B__help__x2B__Слой_2___1_" class="st0">
	<g class="st1">
		
			<image style="overflow:visible;" width="564" height="810" id="Слой_2__x2B__Слой_4__x2B__Слой_3__x2B__Слой_5__x2B__Слой_6__x2B__Create_by__x2B__Группа_1__x2B__Слой_8__x2B__Learn_English_x21___x2B__шапка__x2B__кнопки__x2B__иконка__x2B__WordEng__x2B__Learn_new__x2B__Reiteration__x2B__Слой_7__x2B__help__x2B__Слой_2___2_" xlink:href="7F49357E.png"  transform="matrix(1 0 0 1 -93.5386 -121.2735)">
		</image>
	</g>
</g>
<g id="Слой_27">
	<g id="Слой_28" class="st0">
		<rect x="-93.5" y="-121.3" class="st2" width="564" height="810"/>
	</g>
	<g id="Слой_31" class="st0">
		<polygon class="st3" points="-93.5,429.7 -78.5,449.7 1.4,332.6 39.1,410.8 169.5,233.7 295,425.7 352.2,395.7 420.3,229.7 
			470.5,365.2 470.5,688.7 -93.5,688.7 		"/>
	</g>
	<g id="Слой_30" class="st0">
		<polygon class="st4" points="-93.5,499.7 -25.5,437 47.4,538.7 100.5,410.8 258.8,350.4 299.4,470.7 410.5,499.7 470.5,579.7 
			470.5,688.7 -93.5,688.7 		"/>
	</g>
	<g id="Слой_29" class="st0">
		<polygon class="st5" points="-93.5,581.4 52.5,625.4 211.1,542.7 295.5,636.7 365.8,571.4 402.5,641.4 470.5,635.4 470.5,688.7 
			-93.5,688.7 		"/>
	</g>
	<g id="Слой_32" class="st0">
		<linearGradient id="SVGID_1_" gradientUnits="userSpaceOnUse" x1="188.4614" y1="688.7265" x2="188.4614" y2="-121.2735">
			<stop  offset="0" style="stop-color:#000000;stop-opacity:0"/>
			<stop  offset="1.206560e-02" style="stop-color:#030203;stop-opacity:3.426763e-02"/>
			<stop  offset="0.1025" style="stop-color:#111114;stop-opacity:0.291"/>
			<stop  offset="0.2014" style="stop-color:#1A191E;stop-opacity:0.5719"/>
			<stop  offset="0.3239" style="stop-color:#1D1C21;stop-opacity:0.92"/>
			<stop  offset="0.594" style="stop-color:#1D1C1F;stop-opacity:0.7418"/>
			<stop  offset="1" style="stop-color:#000000;stop-opacity:0.62"/>
		</linearGradient>
		<rect x="-93.5" y="-121.3" class="st6" width="564" height="810"/>
	</g>
	<g id="иконка_xA0_Изображение_1_">
		<g>
			<g>
				<linearGradient id="SVGID_2_" gradientUnits="userSpaceOnUse" x1="2.2307" y1="173.3054" x2="21.0602" y2="173.3054">
					<stop  offset="0" style="stop-color:#FF224C"/>
					<stop  offset="1" style="stop-color:#C3224C"/>
				</linearGradient>
				<circle class="st7" cx="11.6" cy="173.3" r="9.4"/>
				<linearGradient id="SVGID_3_" gradientUnits="userSpaceOnUse" x1="1.4379" y1="103.8841" x2="20.2673" y2="103.8841">
					<stop  offset="0" style="stop-color:#FF224C"/>
					<stop  offset="1" style="stop-color:#C3224C"/>
				</linearGradient>
				<circle class="st8" cx="10.9" cy="103.9" r="9.4"/>
				<linearGradient id="SVGID_4_" gradientUnits="userSpaceOnUse" x1="30.8713" y1="64.2927" x2="47.4214" y2="64.2927">
					<stop  offset="0" style="stop-color:#FF224C"/>
					<stop  offset="1" style="stop-color:#C3224C"/>
				</linearGradient>
				<circle class="st9" cx="39.1" cy="64.3" r="8.3"/>
				<linearGradient id="SVGID_5_" gradientUnits="userSpaceOnUse" x1="63.2778" y1="34.8592" x2="82.9001" y2="34.8592">
					<stop  offset="0" style="stop-color:#FF224C"/>
					<stop  offset="1" style="stop-color:#C3224C"/>
				</linearGradient>
				<circle class="st10" cx="73.1" cy="34.9" r="9.8"/>
				<linearGradient id="SVGID_6_" gradientUnits="userSpaceOnUse" x1="106.2883" y1="14.4937" x2="133.4423" y2="14.4937">
					<stop  offset="0" style="stop-color:#FF224C"/>
					<stop  offset="1" style="stop-color:#C3224C"/>
				</linearGradient>
				<circle class="st11" cx="119.9" cy="14.5" r="13.6"/>
				<linearGradient id="SVGID_7_" gradientUnits="userSpaceOnUse" x1="30.8713" y1="101.6543" x2="52.7729" y2="101.6543">
					<stop  offset="0" style="stop-color:#FF224C"/>
					<stop  offset="1" style="stop-color:#C3224C"/>
				</linearGradient>
				<circle class="st12" cx="41.8" cy="101.7" r="11"/>
				<linearGradient id="SVGID_8_" gradientUnits="userSpaceOnUse" x1="83.6929" y1="79.3562" x2="130.4693" y2="79.3562">
					<stop  offset="0" style="stop-color:#FF224C"/>
					<stop  offset="1" style="stop-color:#C3224C"/>
				</linearGradient>
				<circle class="st13" cx="107.1" cy="79.4" r="23.4"/>
				<linearGradient id="SVGID_9_" gradientUnits="userSpaceOnUse" x1="33.8939" y1="176.328" x2="72.3457" y2="176.328">
					<stop  offset="0" style="stop-color:#FF224C"/>
					<stop  offset="1" style="stop-color:#C3224C"/>
				</linearGradient>
				<circle class="st14" cx="53.1" cy="176.3" r="19.2"/>
				<linearGradient id="SVGID_10_" gradientUnits="userSpaceOnUse" x1="11.1523" y1="203.278" x2="352.2123" y2="203.278">
					<stop  offset="0" style="stop-color:#FF224C"/>
					<stop  offset="1" style="stop-color:#C3224C"/>
				</linearGradient>
				<path class="st15" d="M352.2,220.1c0-7.3-1-67.3-40.7-107.5c-15.3-15.4-35.1-26.9-37-27.9c-7.6-4.4-30.4-17.3-45.2-18.9
					c0,0-13.1-1.4-21.9-6c-0.1,0-0.7-0.3-1.5-0.7c-1.5-0.7-2.9-1.2-3.8-1.5c-0.5-0.3-1.3-0.9-2.3-1.5c-1.9-1.2-2.3-1.3-3.8-2.3
					c-1.6-1-2.7-1.8-3.8-3c-0.9-1-1.3-2-1.5-2.3C189,45,182.9,37,180.3,34.2c-4.5-4.8-12-8.8-20.4-9.1c-13.6-0.4-22.3,9.3-23.4,10.6
					c-0.6,0.6-7.6,9-7.5,20.4c0,4,0.9,7.4,1.2,8.7c1.3,4.8,3.3,8.5,4.8,10.9c0.5,2.7,1,7.8-0.7,13.6c-2.7,8.9-9.9,16.4-18.1,18.9
					c-5.5,1.6-13.8,1.5-19.6,0.7c-1.5-0.2-3.2-0.5-6-0.7c-4.7-0.4-9.3-0.8-12.8,0c-8.7,2-13.2,12.4-14.3,15.1
					c-0.6,1.5-5.8,14,0,23.4c0.4,0.7,0.2,0.3,3,3.8c6,7.5,9,11.3,10.6,14.3c4.5,8.7,3.3,17.5,3,19.6c-0.5,3.5-1.4,9.1-6,13.6
					c-3.6,3.5-7.8,4.6-10.6,5.3c-7,1.8-14.5,0.7-17.3,0c-0.5-0.1-2.2-0.5-4.5-0.7c0,0-2.2-0.2-4.5,0c-2.3,0.2-9.1,0.7-14.3,3.8
					c-7.9,4.7-12.9,15.4-11.3,24.9c1.1,6.7,5.2,11.5,7.5,14.3c0.2,0.3,1,1.1,2.2,2.4c2.3,2.5,2.9,3.4,4.6,5.2
					c1.9,2.1,2.2,2.2,3.8,3.8c1.4,1.5,3.3,3.7,5.3,6.8c1,3.2,2.7,7.9,5,13.4c4.8,11.3,26.3,62.7,81,89.2c6.1,3,33,15.5,70.2,15.5
					c14.2,0,64-0.8,107.1-38.1C351.2,297.3,352.3,231.8,352.2,220.1z"/>
			</g>
			<g class="st16">
				
					<image style="overflow:visible;enable-background:new    ;" width="758" height="791" xlink:href="7F49357D.png"  transform="matrix(0.4955 0 0 0.4955 44.7456 45.0668)">
				</image>
			</g>
			<g class="st17">
				
					<image style="overflow:visible;enable-background:new    ;" width="363" height="249" xlink:href="7F49357A.png"  transform="matrix(0.4955 0 0 0.4955 189.9307 287.3723)">
				</image>
			</g>
			<g>
				<path class="st18" d="M213.1,350.6c1.1-1.4,2.1-2.9,3-4.2c0.5-0.8,1.8-2.9,3.9-6.4l2.4-4c1.8-3,3-4.9,3.6-5.6
					c1-1.4,1.9-2.1,2.9-2.1c0.7,0,1,0.2,1,0.8c0,0.3-0.1,0.8-0.4,1.4c-0.2,0.4-0.7,1.7-1.6,4c-0.9,2.3-1.6,4.9-2,7.8
					c-0.3,2-0.5,3.8-0.5,5.2c0,0.4,0,0.9,0,1.4c0,0.5,0.1,1.1,0.2,1.7c0.7-0.9,1.6-2.3,2.5-4.1c0.9-1.8,2.2-4.7,4.1-8.6
					c1.7-3.8,3.8-7.6,6.1-11.7c1.9-3.3,4.2-6.7,6.9-10.1c1.2-1.6,2.2-2.4,3-2.4c0.3,0,0.6,0.1,0.9,0.5c0.2,0.2,0.3,0.5,0.3,0.8
					c0,0.4-0.6,1.3-1.8,2.8c-2.3,3-4.6,6.2-6.7,9.9c-2.4,4.2-5.5,10.1-9.1,17.8c-1.6,3.5-2.9,5.9-3.7,7.3c-0.9,1.5-1.9,2.2-3.1,2.2
					c-1,0-1.7-0.4-2.2-1.3c-0.5-0.9-0.7-2.2-0.7-3.9c0-2.8,0.4-6.2,1.4-10.3c-0.9,1.1-1.9,2.7-3.2,4.8c-0.9,1.5-1.8,3-2.6,4.4
					c-1.2,2-2,3.4-2.4,4.1c-0.6,1.1-1.2,1.9-1.9,2.6c-0.5,0.4-1,0.7-1.7,0.7c-0.8,0-1.3-0.3-1.7-1c-0.2-0.4-0.4-1-0.4-1.7
					c0-4.6,2.4-12.7,7.2-24.5c2.3-5.7,3.7-9.3,4.1-10.6c0.3-1.3,0.7-2.1,1-2.4c0.4-0.5,1-0.7,1.6-0.7c0.8,0,1.3,0.4,1.3,1.2
					c0,1-0.3,2.5-1.1,4.5c-0.8,2.3-2.1,5.5-4,9.6c-1.2,2.9-2.1,5-2.6,6.4C214.6,343.7,213.3,348.3,213.1,350.6z"/>
				<path class="st18" d="M246.3,333.1c1.6,0,2.4,0.9,2.4,2.9c0,2.5-1.2,5.8-3.5,9.7c-2.6,4.2-5.1,6.3-7.4,6.3
					c-1.1,0-1.9-0.5-2.4-1.5c-0.2-0.5-0.4-1.1-0.4-1.9c0-2.4,0.8-5.1,2.5-8c1.6-2.7,3.4-4.7,5.5-6.2
					C244.2,333.6,245.3,333.1,246.3,333.1z M243.3,344c-0.5-0.4-0.7-0.7-0.7-0.9c0-0.1,0.3-0.6,0.9-1.3c1.7-1.9,2.6-3.5,2.6-4.7
					c0-0.1,0-0.3-0.1-0.4c-0.1-0.3-0.4-0.4-0.7-0.4c-0.6,0-1.5,0.6-2.7,1.8c-1.5,1.5-2.7,3.1-3.5,4.8c-0.9,1.9-1.4,3.4-1.4,4.6
					c0,0.3,0.1,0.6,0.2,0.8c0.2,0.3,0.5,0.5,0.9,0.5c0.9,0,1.9-0.7,3-2.1c0.4-0.6,0.8-1.2,1.1-1.8C243.2,344.3,243.3,344,243.3,344z
					"/>
				<path class="st18" d="M250.2,342.2c1.9-2,4.1-4,6.5-5.9c0.9-0.7,1.8-1.3,2.8-1.9c0.5-0.3,0.8-0.4,0.9-0.4c0.3,0,0.6,0.2,0.8,0.6
					c0.1,0.2,0.2,0.4,0.2,0.6c0,0.3-0.3,0.8-1.1,1.4c-1.9,1.5-2.9,2.7-2.9,3.5c0,0.4,0.2,0.6,0.7,0.6c0.8,0,2.2-0.7,4.3-2
					c0.3-0.2,0.6-0.3,0.8-0.3c0.1,0,0.3,0.1,0.4,0.2c0.1,0.1,0.2,0.3,0.2,0.5c0,0.6-0.8,1.4-2.4,2.6c-1.7,1.3-3.3,1.9-4.8,1.9
					c-0.6,0-1.2-0.1-1.7-0.5c-0.4-0.2-0.6-0.7-0.6-1.4c0-0.5,0.2-1,0.6-1.6c-1.5,1.1-3.3,2.9-5.4,5.5c-1.2,1.6-2.4,3.6-3.5,5.9
					c-0.4,0.9-1,1.3-1.6,1.3c-0.7,0-1-0.3-1-1s0.5-2.4,1.7-5.3c1.6-4.2,3.4-7.5,5.2-9.8c1.1-1.4,2-2.1,2.8-2.1
					c0.2,0,0.5,0.1,0.7,0.2c0.2,0.2,0.4,0.4,0.4,0.7c0,0.3-0.2,0.7-0.6,1.2c-0.1,0.1-0.6,0.7-1.5,1.9
					C251.3,339.9,250.6,341.1,250.2,342.2z"/>
				<path class="st18" d="M270.6,334.8c1.9-4,3.7-7.5,5.5-10.5c1.6-2.9,2.8-4.7,3.4-5.5c0.6-0.8,1.3-1.2,1.8-1.2
					c0.3,0,0.6,0.1,0.8,0.4c0.2,0.2,0.3,0.5,0.3,0.8c0,0.4-0.3,1.2-1,2.2c-2.8,4.5-5.3,9-7.6,13.6c-2.7,5.4-4,9.4-4,12.1
					c0,1.1,0.2,1.9,0.6,2.6c0.1,0.1,0.4,0.4,1,0.9c0.1,0.1,0.1,0.3,0.1,0.6c0,0.4-0.1,0.7-0.4,1c-0.3,0.3-0.6,0.5-1,0.5
					c-0.4,0-0.9-0.2-1.5-0.8c-0.7-0.7-1.2-1.6-1.4-2.6c0-0.4-0.1-1.2-0.2-2.4c-2,3.6-3.9,5.5-5.7,5.5c-1,0-1.9-0.6-2.5-1.8
					c-0.4-0.8-0.6-1.7-0.6-2.7c0-3,1.1-6,3.3-9c2.2-3,4.5-4.5,7-4.5C269.1,334.1,269.8,334.4,270.6,334.8z M269.6,337.2
					c-0.5-0.3-1-0.5-1.3-0.5c-1.6,0-3.1,1-4.6,3c-1.9,2.6-2.8,5.1-2.8,7.4c0,0.3,0,0.5,0.1,0.8c0.2,0.5,0.6,0.7,1,0.7
					c0.7,0,1.5-0.6,2.4-1.9c1.3-1.7,2.5-3.8,3.6-6.1c0.4-0.8,0.7-1.6,1.1-2.4l0.2-0.5L269.6,337.2z"/>
				<path class="st18" d="M284.3,330.4l1.1-0.2c4.2-0.8,7.2-1.2,8.9-1.2c1.2,0,1.8,0.5,1.8,1.5c0,0.6-0.2,1-0.7,1.2
					c-0.3,0.1-0.9,0.2-1.7,0.3c-5,0.3-8.7,0.9-11.3,1.7c-1,1.5-2.5,4.4-4.5,8.5c-1.1,2.4-2,4.7-2.6,6.7c0.4-0.1,0.9-0.3,1.3-0.4
					c2.8-0.9,4.9-1.6,6.2-1.9c1.8-0.3,3.5-0.5,5-0.5c1,0,1.8,0.1,2.3,0.4c0.4,0.2,0.6,0.6,0.6,1.2c0,0.6-0.2,1-0.8,1.2
					c-0.2,0.1-0.8,0.1-1.8,0.1c-5.1,0.2-9.6,1.5-13.6,3.7c-0.5,0.3-0.9,0.4-1.3,0.4c-0.5,0-1-0.3-1.4-0.8c-0.3-0.4-0.5-0.9-0.5-1.4
					c0-0.5,0.6-2.2,1.8-5.3c1.8-4.6,4.3-9.7,7.4-15.2c0.9-1.7,2.7-4.5,5.4-8.4c0.6-0.9,1.2-1.8,1.7-2.7c-0.7-0.2-1.1-0.7-1.1-1.5
					c0-0.6,0.3-1,0.9-1.3c1-0.4,2.9-0.9,5.7-1.3c4.2-0.6,7.8-1,10.8-1c1.7,0,2.5,0.4,2.5,1.3c0,0.6-0.3,1.1-0.8,1.5
					c-0.3,0.2-0.7,0.3-1.4,0.3c0,0-0.2,0-0.6,0c-0.3,0-0.6,0-0.9,0c-1.4,0-3.4,0.1-6,0.4c-2.3,0.2-4.2,0.6-5.8,1.1
					c0.2,0.3,0.3,0.5,0.3,0.7c0,0.3-0.4,1.1-1.3,2.2l-1.4,2.1C286.5,326.7,285.1,328.9,284.3,330.4z"/>
				<path class="st18" d="M295,341.8c0.2-0.2,0.5-0.4,0.7-0.7c4-3.9,6.7-5.8,8-5.8c0.7,0,1.1,0.4,1.1,1.2c0,0.6-0.3,1.2-1,2
					c-3.7,4.3-5.5,8-5.5,11.3c0,1,0.3,2.1,0.8,3c0.2,0.4,0.4,0.8,0.4,1c0,0.2-0.1,0.4-0.3,0.6c-0.2,0.2-0.5,0.4-0.9,0.4
					c-0.8,0-1.4-0.5-2-1.5c-0.5-0.9-0.8-2.1-0.8-3.4c0-2.6,1-5.5,2.9-8.6c-2.6,1.7-5,4.6-7.3,8.9c-0.6,1-1.2,1.5-1.8,1.5
					c-0.3,0-0.6-0.1-0.8-0.3c-0.2-0.2-0.4-0.6-0.4-1c0-1,1.2-3.8,3.5-8.1c1.3-2.4,2.3-4.1,3-5.2c0.7-1,1.3-1.6,1.9-1.6
					c0.2,0,0.5,0.1,0.7,0.3c0.2,0.2,0.4,0.6,0.4,0.9c0,0.4-0.3,1-0.8,1.8C296.1,339.7,295.5,340.8,295,341.8z"/>
				<path class="st18" d="M309.4,349.2c2-1.5,3.6-2.9,4.6-4.1c1.5-1.8,2.5-3.2,3.1-4.4c0.3-0.5,0.6-0.7,0.9-0.7
					c0.4,0,0.7,0.2,0.7,0.6c0,0.5-0.3,1.4-1.1,2.6c-2.3,3.7-5.6,6.9-10.2,9.6c-2.1,4.4-3.7,7.4-4.7,9c-2.6,4.1-5.2,6.2-7.5,6.2
					c-1.2,0-2.1-0.5-2.6-1.4c-0.3-0.5-0.4-1.2-0.4-1.9c0-3,1.9-5.9,5.8-8.7c0.6-0.4,3.1-1.9,7.4-4.3c0.8-1.8,1.5-3.2,1.9-4.2
					c-2,2.1-3.7,3.2-5,3.2c-0.8,0-1.5-0.4-1.9-1.3c-0.3-0.5-0.4-1.1-0.4-1.7c0-1.4,0.5-3.2,1.7-5.3c1.6-3.1,3.6-5.6,5.8-7.4
					c1.9-1.5,3.6-2.3,5-2.3c0.7,0,1.4,0.3,1.9,0.8c0.3,0.3,0.5,0.9,0.5,1.6c0,0.9-0.3,2-0.9,3.3c0.4,0.4,0.6,0.7,0.6,0.9
					c0,0.1-0.1,0.3-0.3,0.6c-0.5,0.7-1.3,2-2.5,4C311.1,345.6,310.2,347.4,309.4,349.2z M303.8,355.1c-2.5,1.1-4.8,2.7-6.7,4.9
					c-0.9,1-1.5,2.1-1.9,3.2c-0.1,0.3-0.1,0.6-0.1,0.8c0,0.2,0,0.4,0.1,0.6c0.2,0.3,0.5,0.5,0.9,0.5c1.2,0,2.6-1.3,4.2-3.8
					C301.6,359.2,302.8,357.1,303.8,355.1z M309.3,342.5c-0.2-0.3-0.4-0.5-0.4-0.6c0-0.1,0.1-0.4,0.4-0.6c0.9-0.9,1.7-1.9,2.3-2.9
					c0.5-0.8,0.7-1.4,0.7-1.8c0-0.5-0.2-0.8-0.7-0.8c-0.8,0-2,0.8-3.5,2.4c-1.8,1.9-3.2,3.9-4.3,6.2c-0.5,1.1-0.7,2-0.7,2.6
					c0,0.3,0.1,0.6,0.2,0.8c0.1,0.1,0.4,0.2,0.6,0.2c0.7,0,1.6-0.7,2.8-2.1c0.7-0.9,1.4-1.7,1.9-2.6
					C309.1,342.8,309.3,342.5,309.3,342.5z"/>
			</g>
			<g>
				<path class="st19" d="M87.8,292.7c5.5-7.2,10.5-14.2,14.8-20.9c2.5-3.9,9-14.6,19.6-32.1l12.2-19.9c9-14.7,15-24.1,17.9-28.2
					c4.9-7,9.7-10.5,14.5-10.5c3.4,0,5.2,1.3,5.2,4c0,1.8-0.7,4.1-2,6.9c-0.9,1.9-3.6,8.6-8,19.9c-4.4,11.5-7.8,24.5-10.2,38.7
					c-1.7,10.1-2.6,18.8-2.6,25.9c0,2.1,0.1,4.4,0.3,6.9s0.6,5.3,1.1,8.4c3.8-4.8,8-11.6,12.6-20.6c4.4-9,11.2-23.2,20.4-42.9
					c8.7-18.7,18.9-38.2,30.5-58.3c9.6-16.6,21-33.4,34.2-50.4c6.2-8,11.2-12,14.9-12c1.6,0,3.1,0.8,4.5,2.4
					c0.9,1.1,1.4,2.4,1.4,3.9c0,1.9-3,6.6-8.9,14.2c-11.6,14.8-22.8,31.2-33.4,49.2c-12.1,20.8-27.3,50.4-45.6,88.8
					c-8.1,17.2-14.3,29.4-18.6,36.7c-4.5,7.4-9.7,11.2-15.5,11.2c-5,0-8.7-2.2-11.2-6.5c-2.5-4.4-3.7-10.8-3.7-19.4
					c0-13.8,2.3-31,6.9-51.4c-4.5,5.6-9.8,13.6-15.8,23.9c-4.5,7.6-8.8,15-13,22.1c-6.1,10.2-10.2,17.1-12.2,20.6
					c-3.1,5.5-6.2,9.8-9.5,12.9c-2.4,2.3-5.2,3.4-8.5,3.4c-3.9,0-6.7-1.7-8.5-5c-1.2-2.3-1.9-5.1-1.9-8.5
					c0-22.7,11.9-63.5,35.8-122.2c11.6-28.7,18.4-46.4,20.4-52.9c1.7-6.3,3.4-10.3,5.2-12c2.3-2.5,5-3.7,8-3.7c4.2,0,6.3,2,6.3,6
					c0,4.9-1.8,12.3-5.5,22.2c-4.1,11.2-10.7,27.2-19.8,47.9c-6.2,14.2-10.6,24.9-13.2,32C95.5,258.3,89,281.5,87.8,292.7z"/>
				<path class="st19" d="M263.2,192.1l5.7-1c21.1-4,35.8-6,44.2-6c6,0,9,2.4,9,7.3c0,3.1-1.2,5.1-3.6,6.1c-1.6,0.7-4.4,1.2-8.3,1.4
					c-24.7,1.5-43.6,4.5-56.4,8.7c-5.1,7.5-12.5,21.7-22.2,42.3c-5.6,12-10,23.2-13.2,33.4c2.2-0.7,4.4-1.5,6.4-2.3
					c14.1-4.8,24.5-7.9,31.2-9.3c8.9-1.7,17.2-2.6,25.1-2.6c5.2,0,9,0.6,11.4,1.9c2.2,1,3.3,3.1,3.3,6c0,3-1.3,4.9-4,5.9
					c-1.2,0.4-4.2,0.6-8.9,0.7c-25.3,1.3-47.9,7.5-67.6,18.6c-2.6,1.4-4.8,2.1-6.6,2.1c-2.7,0-5.1-1.4-7.2-4.2
					c-1.8-2.3-2.7-4.6-2.7-7c0-2.4,3-11.2,9-26.4c9.1-23,21.5-48.2,37.1-75.7c4.7-8.3,13.6-22.3,26.7-42c3-4.6,5.8-9.1,8.6-13.5
					c-3.8-0.9-5.7-3.5-5.7-7.6c0-3.1,1.5-5.3,4.6-6.7c5-2.3,14.5-4.6,28.6-6.7c21.1-3.3,39-4.9,53.7-4.9c8.3,0,12.5,2.2,12.5,6.6
					c0,3.1-1.4,5.6-4.3,7.7c-1.4,1-3.7,1.6-6.9,1.6c-0.2,0-1.3,0-3.3-0.1c-1.4,0-3,0-4.7,0c-6.9,0-16.8,0.7-29.8,2.1
					c-11.3,1.2-21,3.1-29.1,5.5c0.9,1.4,1.4,2.6,1.4,3.4c0,1.6-2.2,5.4-6.7,11.2l-6.9,10.6C273.8,173.9,267,184.8,263.2,192.1z"/>
			</g>
		</g>
	</g>
</g>
<g id="Create_by_1_" class="st20">
	<g id="Create_by" class="st1">
		<g>
			<path class="st21" d="M159.9,651.7c1.1,0,2,0.3,2.8,1c0.8,0.7,1.3,1.5,1.4,2.6h0.7c-0.1-1.2-0.7-2.2-1.6-3
				c-0.9-0.8-2-1.2-3.3-1.2c-1.7,0-3,0.6-4,1.7c-1,1.2-1.5,2.7-1.5,4.7c0,2,0.5,3.6,1.5,4.8c1,1.2,2.3,1.8,4,1.8
				c1.3,0,2.4-0.4,3.4-1.1c0.9-0.7,1.4-1.7,1.6-2.9h-0.7c-0.1,1-0.6,1.8-1.4,2.4c-0.8,0.6-1.7,0.9-2.9,0.9c-1.5,0-2.6-0.5-3.5-1.6
				c-0.9-1.1-1.3-2.5-1.3-4.3c0-1.8,0.4-3.2,1.3-4.2C157.3,652.2,158.4,651.7,159.9,651.7z M167,656.3L167,656.3l0-1.9h-0.6v9.5h0.7
				V658c0-0.9,0.2-1.6,0.6-2.2c0.4-0.6,1-0.9,1.7-0.9c0.4,0,0.7,0.1,1,0.2v-0.7c-0.3-0.1-0.5-0.2-0.9-0.2
				C168.2,654.3,167.4,655,167,656.3z M174.7,654.3c-1.2,0-2.2,0.4-3,1.3c-0.8,0.9-1.1,2.1-1.1,3.5c0,1.5,0.4,2.7,1.1,3.6
				c0.7,0.9,1.8,1.3,3,1.3c1,0,1.9-0.3,2.6-0.8c0.7-0.5,1.1-1.2,1.2-2h-0.7c-0.1,0.6-0.5,1.2-1,1.5c-0.6,0.4-1.3,0.6-2.1,0.6
				c-1.1,0-1.9-0.4-2.5-1.1c-0.6-0.7-1-1.7-1-3v0h7.4v-0.4c0-1.4-0.4-2.5-1.1-3.3C176.8,654.7,175.9,654.3,174.7,654.3z
				 M171.2,658.7c0.1-1.1,0.4-2,1-2.7c0.6-0.7,1.4-1,2.4-1c1,0,1.8,0.3,2.4,1c0.6,0.7,0.9,1.6,0.9,2.7H171.2z M183.9,654.3
				c-1,0-1.8,0.3-2.4,0.8c-0.6,0.5-1,1.2-1.1,2.1h0.7c0.1-0.7,0.4-1.3,0.9-1.7c0.5-0.4,1.2-0.6,1.9-0.6c0.8,0,1.5,0.2,2,0.7
				c0.5,0.5,0.7,1.1,0.7,1.9v0.8l-3.2,0.2c-2.2,0.2-3.3,1.1-3.3,2.7c0,0.8,0.3,1.4,0.9,1.9c0.6,0.5,1.3,0.7,2.2,0.7
				c0.8,0,1.5-0.2,2.1-0.6c0.6-0.4,1.1-0.9,1.3-1.6h0v2h0.7v-6.4c0-1-0.3-1.8-0.9-2.3C185.7,654.6,184.9,654.3,183.9,654.3z
				 M186.5,660.4c0,0.8-0.3,1.6-1,2.1c-0.7,0.6-1.5,0.9-2.4,0.9c-0.7,0-1.3-0.2-1.8-0.6c-0.5-0.4-0.7-0.9-0.7-1.5
				c0-1.3,0.9-2,2.8-2.1l3.1-0.2V660.4z M190.7,662.9c-0.2-0.2-0.3-0.7-0.3-1.2V655h1.9v-0.6h-1.9V652h-0.7v2.4h-1.4v0.6h1.4v6.7
				c0,0.8,0.2,1.3,0.5,1.7c0.3,0.3,0.8,0.5,1.5,0.5c0.5,0,0.7,0,0.8,0v-0.6c0,0-0.3,0-0.7,0C191.3,663.3,191,663.2,190.7,662.9z
				 M197.3,654.3c-1.2,0-2.2,0.4-3,1.3c-0.8,0.9-1.1,2.1-1.1,3.5c0,1.5,0.4,2.7,1.1,3.6c0.7,0.9,1.8,1.3,3,1.3c1,0,1.9-0.3,2.6-0.8
				c0.7-0.5,1.1-1.2,1.2-2h-0.7c-0.1,0.6-0.5,1.2-1,1.5c-0.6,0.4-1.3,0.6-2.1,0.6c-1.1,0-1.9-0.4-2.5-1.1c-0.6-0.7-1-1.7-1-3v0h7.4
				v-0.4c0-1.4-0.4-2.5-1.1-3.3C199.4,654.7,198.5,654.3,197.3,654.3z M193.9,658.7c0.1-1.1,0.4-2,1-2.7c0.6-0.7,1.4-1,2.4-1
				c1,0,1.8,0.3,2.4,1c0.6,0.7,0.9,1.6,0.9,2.7H193.9z M210.7,654.3c-0.8,0-1.6,0.2-2.2,0.7c-0.6,0.5-1.1,1.1-1.3,1.9h0v-6.3h-0.7
				v13.2h0.7v-2.5h0c0.2,0.8,0.7,1.5,1.3,1.9c0.6,0.5,1.4,0.7,2.2,0.7c1.2,0,2.1-0.4,2.8-1.3c0.7-0.9,1.1-2.1,1.1-3.5
				s-0.4-2.6-1.1-3.5C212.8,654.8,211.9,654.3,210.7,654.3z M213,662.2c-0.6,0.8-1.4,1.2-2.4,1.2c-1,0-1.8-0.4-2.5-1.2
				c-0.6-0.8-1-1.8-1-3c0-1.2,0.3-2.3,1-3c0.6-0.8,1.5-1.2,2.5-1.2c1,0,1.8,0.4,2.4,1.2c0.6,0.8,0.9,1.8,0.9,3.1
				C213.9,660.4,213.6,661.4,213,662.2z M222.4,654.4l-3.2,8.8h0l-3.2-8.8h-0.7l3.6,9.6l-0.2,0.6c-0.2,0.6-0.5,1.1-0.7,1.3
				c-0.3,0.3-0.6,0.4-1,0.4c-0.2,0-0.3,0-0.5-0.1v0.6c0.2,0.1,0.3,0.1,0.5,0.1c0.7,0,1.2-0.2,1.5-0.6c0.4-0.4,0.7-1.1,1.2-2.3
				l3.6-9.8H222.4z"/>
		</g>
	</g>
</g>
<g id="Слой_8_xA0_Изображение_1_" class="st22">
	<g class="st1">
		
			<image style="overflow:visible;" width="223" height="69" id="Слой_8_xA0_Изображение_2_" xlink:href="7F493575.png"  transform="matrix(1 0 0 1 -62.5386 549.7265)">
		</image>
	</g>
</g>
<g id="next_1_" class="st20">
	<g id="next" class="st1">
		<g>
			<path class="st23" d="M11.8,593.5h4.1v-7.8h8v-3.3h-8v-5.3h8.8v-3.4H11.8V593.5z M28.9,572.7c-0.6,0-1.1,0.2-1.5,0.6
				c-0.4,0.4-0.6,0.9-0.6,1.5c0,0.6,0.2,1.1,0.6,1.5c0.4,0.4,0.9,0.6,1.5,0.6c0.6,0,1.1-0.2,1.5-0.6c0.4-0.4,0.6-0.9,0.6-1.5
				c0-0.6-0.2-1.1-0.6-1.5C30,572.9,29.5,572.7,28.9,572.7z M26.9,593.5h4v-15h-4V593.5z M42.5,578.3c-2.3,0-4,1-4.8,2.9h-0.1v-2.7
				h-3.9v15h4V585c0-1,0.3-1.8,0.9-2.4c0.6-0.6,1.4-0.9,2.3-0.9c0.9,0,1.7,0.3,2.2,0.8c0.5,0.5,0.8,1.3,0.8,2.3v8.8h4v-9.7
				c0-1.8-0.5-3.1-1.4-4.1C45.5,578.8,44.1,578.3,42.5,578.3z M50.5,593.5h4v-15h-4V593.5z M52.5,572.7c-0.6,0-1.1,0.2-1.5,0.6
				c-0.4,0.4-0.6,0.9-0.6,1.5c0,0.6,0.2,1.1,0.6,1.5c0.4,0.4,0.9,0.6,1.5,0.6c0.6,0,1.1-0.2,1.5-0.6c0.4-0.4,0.6-0.9,0.6-1.5
				c0-0.6-0.2-1.1-0.6-1.5C53.6,572.9,53.1,572.7,52.5,572.7z M65.7,584.9l-2.8-0.6c-1.3-0.3-2-0.8-2-1.6c0-0.5,0.2-0.9,0.7-1.2
				c0.4-0.3,1-0.4,1.7-0.4c0.8,0,1.4,0.2,1.8,0.5c0.5,0.4,0.7,0.8,0.8,1.4h3.7c0-1.4-0.6-2.6-1.8-3.5c-1.1-0.9-2.6-1.3-4.5-1.3
				c-1.9,0-3.4,0.4-4.6,1.3c-1.1,0.9-1.7,2-1.7,3.4c0,2.2,1.4,3.7,4.3,4.3l2.8,0.6c0.7,0.2,1.2,0.4,1.5,0.6c0.3,0.2,0.4,0.5,0.4,0.9
				c0,0.5-0.2,0.9-0.7,1.2c-0.5,0.3-1.1,0.4-1.9,0.4c-1.7,0-2.7-0.7-2.9-2h-3.9c0.1,1.5,0.7,2.6,1.9,3.5c1.2,0.9,2.8,1.3,4.7,1.3
				c2,0,3.6-0.4,4.8-1.3c1.2-0.9,1.8-2.1,1.8-3.5c0-1.1-0.3-2-1-2.6C68.3,585.7,67.3,585.2,65.7,584.9z M85,579.8
				c-1-1-2.3-1.5-4-1.5c-2.4,0-4,1-4.9,2.9h-0.1v-8.3h-3.9v20.7h4V585c0-1,0.3-1.8,0.9-2.5c0.6-0.6,1.4-0.9,2.4-0.9
				c0.9,0,1.7,0.3,2.2,0.8c0.5,0.6,0.8,1.3,0.8,2.3v8.8h4v-9.6C86.5,582.2,86,580.8,85,579.8z"/>
		</g>
	</g>
</g>
<g id="Not_true_x21__1_" class="st20">
	<g id="Not_true_x21_" class="st1">
		<g>
			<path class="st24" d="M85.2,412.7H85l-23.1-32.9h-3.7v39.5h3.7v-33h0.2l23.2,33h3.6v-39.5h-3.7V412.7z M112.6,379.2
				c-5.5,0-9.8,1.8-13.1,5.5c-3.2,3.7-4.8,8.6-4.8,14.9c0,6.3,1.6,11.2,4.8,14.8c3.2,3.7,7.6,5.5,13.1,5.5c5.5,0,9.9-1.8,13.1-5.5
				c3.2-3.6,4.8-8.6,4.8-14.8c0-6.3-1.6-11.2-4.8-14.9C122.5,381,118.1,379.2,112.6,379.2z M122.9,411.8c-2.6,3-6,4.6-10.3,4.6
				c-4.3,0-7.7-1.5-10.3-4.6c-2.5-3-3.8-7.1-3.8-12.3c0-5.2,1.3-9.3,3.8-12.3c2.5-3,6-4.6,10.3-4.6c4.3,0,7.8,1.5,10.3,4.6
				c2.5,3,3.8,7.2,3.8,12.3C126.7,404.7,125.5,408.8,122.9,411.8z M131.1,383.2h13.2v36.1h3.7v-36.1h13.2v-3.4h-30.2V383.2z
				 M175.7,383.2H189v36.1h3.7v-36.1h13.2v-3.4h-30.2V383.2z M235.1,398.5c1.5-2,2.2-4.4,2.2-7.2c0-3.5-1.1-6.3-3.4-8.4
				c-2.3-2.1-5.4-3.1-9.2-3.1h-14.1v39.5h3.7v-16.2H225l9.1,16.2h4.3l-9.5-16.8C231.6,401.8,233.6,400.5,235.1,398.5z M224.4,399.8
				h-10.1v-16.7h10c2.9,0,5.1,0.7,6.8,2.2c1.6,1.5,2.5,3.5,2.5,6.1c0,2.6-0.8,4.7-2.4,6.2C229.5,399.1,227.3,399.8,224.4,399.8z
				 M270.2,405.3c0,3.4-1,6-3.1,8.1c-2.1,2.1-4.9,3.1-8.5,3.1c-3.6,0-6.4-1-8.5-3.1c-2-2-3.1-4.7-3.1-8.1v-25.5h-3.7v25.7
				c0,4.3,1.4,7.8,4.1,10.4c2.8,2.7,6.5,4,11.2,4c4.7,0,8.4-1.3,11.2-4c2.7-2.6,4.1-6.1,4.1-10.4v-25.7h-3.7V405.3z M281.3,419.3
				h23.8v-3.4H285v-15.1h19.1v-3.3H285v-14.2h20.1v-3.4h-23.8V419.3z M316.7,406.8l0.2-27h-3.8l0.2,27H316.7z M316.9,415.1
				c-0.5-0.5-1.1-0.7-1.9-0.7c-0.7,0-1.3,0.2-1.8,0.7c-0.5,0.5-0.8,1.1-0.8,1.9c0,0.7,0.3,1.3,0.8,1.8c0.5,0.5,1.1,0.8,1.8,0.8
				c0.7,0,1.3-0.3,1.9-0.8c0.5-0.5,0.8-1.1,0.8-1.8C317.7,416.2,317.4,415.6,316.9,415.1z"/>
		</g>
	</g>
</g>
<g id="Слой_8_копия_xA0_Изображение_1_" class="st22">
	<g class="st1">
		
			<image style="overflow:visible;" width="223" height="69" id="Слой_8_копия_xA0_Изображение_2_" xlink:href="7F493574.png"  transform="matrix(1 0 0 1 218.4614 549.7265)">
		</image>
	</g>
</g>
<g id="Слой_9_копия_3_xA0_Изображение_1_" class="st0">
	<g class="st1">
		
			<image style="overflow:visible;" width="504" height="59" id="Слой_9_копия_3_xA0_Изображение_2_" xlink:href="7F493573.png"  transform="matrix(1 0 0 1 -62.5386 289.7265)">
		</image>
	</g>
</g>
<g id="Слой_9_копия_4_xA0_Изображение_1_" class="st0">
	<g class="st1">
		
			<image style="overflow:visible;" width="7" height="59" id="Слой_9_копия_4_xA0_Изображение_2_" xlink:href="7F493588.png"  transform="matrix(1 0 0 1 -62.5386 289.7265)">
		</image>
	</g>
</g>
<g id="Слой_9_копия_5_xA0_Изображение_1_" class="st0">
	<g class="st1">
		
			<image style="overflow:visible;" width="3" height="52" id="Слой_9_копия_5_xA0_Изображение_2_" xlink:href="7F49358A.png"  transform="matrix(1 0 0 1 78.4614 293.7265)">
		</image>
	</g>
</g>
<g id="Рыба_1_" class="st20">
	<g id="Рыба" class="st1">
		<g>
			<path class="st25" d="M-31.6,296.9h-14v39.5h3.7v-14.9h10.3c3.8,0,6.8-1.1,9.2-3.4c2.4-2.3,3.5-5.2,3.5-8.9s-1.2-6.6-3.5-8.9
				C-24.8,298-27.9,296.9-31.6,296.9z M-25.3,315.7c-1.7,1.6-4.1,2.4-7.1,2.4h-9.4v-17.9h9.4c3,0,5.4,0.8,7.1,2.4
				c1.7,1.6,2.6,3.8,2.6,6.6C-22.8,312-23.6,314.2-25.3,315.7z M-3.2,316.9h-6.4v-10h-3.6v29.4h10c3.2,0,5.8-0.9,7.8-2.6
				c2-1.8,2.9-4.1,2.9-7.1c0-3-1-5.3-2.9-7.1C2.6,317.8,0,316.9-3.2,316.9z M1.9,331.5c-1.3,1.2-3,1.8-5.2,1.8h-6.4V320h6.4
				c2.2,0,3.9,0.6,5.1,1.8c1.3,1.2,1.9,2.8,1.9,4.9C3.9,328.7,3.2,330.3,1.9,331.5z M11.8,336.3h3.6v-29.4h-3.6V336.3z M35.3,307.3
				c-5.2,0-8.7,2.1-10.7,6.2h-0.2c0.6-5.4,1.8-9.1,3.4-11.2c1.8-2.2,4.8-3.4,9-3.5c1.3,0,2.3,0,3.1-0.1c3.2-0.2,5.2-0.7,6.3-1.5V294
				c-1.4,0.7-3.5,1.1-6.5,1.3c-0.8,0.1-1.8,0.1-3.1,0.1c-5.7,0.1-9.7,2.1-12,5.7c-2.3,3.6-3.4,9.7-3.4,18.3c0,5.7,1.1,10,3.4,12.9
				c2.3,3,5.6,4.5,10,4.5c4.1,0,7.4-1.3,9.8-4c2.4-2.7,3.6-6.4,3.6-11c0-4.4-1.2-8-3.5-10.6C42.4,308.6,39.2,307.3,35.3,307.3z
				 M42,330.5c-1.8,2.1-4.1,3.1-7.2,3.1c-3,0-5.4-1-7.2-3.1c-1.7-2.1-2.6-5-2.6-8.7c0-3.5,0.9-6.3,2.6-8.3c1.7-2,4.1-3,7.2-3
				c3,0,5.4,1,7.2,3c1.7,2,2.6,4.8,2.6,8.3C44.6,325.5,43.7,328.4,42,330.5z M73.2,309.2c-2-1.7-4.7-2.6-8.1-2.6
				c-3.1,0-5.7,0.8-7.8,2.5c-2.1,1.6-3.2,3.8-3.4,6.3h3.5c0.3-1.8,1.2-3.1,2.5-4.1c1.3-1,3.1-1.5,5.1-1.5c2.4,0,4.2,0.6,5.5,1.8
				c1.3,1.2,1.9,2.9,1.9,5v2.5l-9.1,0.6c-7.2,0.5-10.8,3.3-10.8,8.4c0,2.5,0.9,4.6,2.7,6.2c1.8,1.6,4.2,2.4,7.1,2.4
				c2.3,0,4.3-0.5,6.2-1.6c1.8-1.1,3.1-2.5,3.9-4.3h0.1v5.6h3.4v-20.1C76.2,313.3,75.2,310.9,73.2,309.2z M72.5,325.3
				c0,2.3-0.9,4.3-2.7,5.9c-1.8,1.6-4,2.4-6.6,2.4c-2,0-3.7-0.5-5-1.5c-1.3-1-1.9-2.3-1.9-3.9c0-3.4,2.5-5.2,7.6-5.6l8.6-0.6V325.3z
				"/>
		</g>
	</g>
</g>
<g id="Answer:_1_" class="st20">
	<g id="Answer:" class="st1">
		<g>
			<path class="st23" d="M-54.7,255.9l-7.5,19.7h1.2l2.4-6.6h8.9l2.5,6.6h1.2l-7.5-19.7H-54.7z M-58.3,268.1l4-10.8h0.1l4.1,10.8
				H-58.3z M-38.1,260.7c-1.2,0-2.3,0.3-3.2,0.9c-0.9,0.6-1.5,1.4-1.9,2.5h0v-3.2h-1v14.7h1.1v-8.8c0-1.5,0.5-2.8,1.4-3.7
				c0.9-1,2.1-1.4,3.5-1.4c1.4,0,2.5,0.4,3.3,1.2c0.8,0.8,1.3,1.9,1.3,3.3v9.4h1.1v-9.5c0-1.6-0.5-3-1.5-4
				C-35.1,261.2-36.4,260.7-38.1,260.7z M-23.4,267.9l-2.3-0.6c-1.1-0.3-1.8-0.6-2.3-1c-0.5-0.4-0.8-1-0.8-1.7
				c0-0.9,0.4-1.6,1.2-2.2c0.8-0.6,1.7-0.8,2.8-0.8c1.2,0,2.2,0.3,2.9,1c0.7,0.6,1.1,1.5,1.3,2.5h1c-0.1-1.3-0.6-2.4-1.6-3.2
				c-0.9-0.8-2.2-1.2-3.6-1.2c-1.4,0-2.6,0.4-3.6,1.1c-1,0.7-1.5,1.7-1.5,2.9c0,1.8,1.2,3,3.7,3.6l2.4,0.6c1.2,0.3,2.1,0.7,2.6,1.1
				c0.5,0.5,0.8,1.1,0.8,1.8c0,0.9-0.4,1.7-1.3,2.3c-0.8,0.6-1.9,0.8-3.1,0.8c-1.2,0-2.3-0.3-3.1-1c-0.8-0.6-1.3-1.5-1.4-2.4h-1.1
				c0.1,1.2,0.6,2.3,1.7,3.1c1,0.8,2.3,1.3,3.9,1.3c1.6,0,2.9-0.4,3.9-1.1c1-0.8,1.5-1.7,1.5-3c0-1-0.3-1.8-1-2.4
				C-20.9,268.8-21.9,268.3-23.4,267.9z M-3.9,274.5L-3.9,274.5l-4.2-13.5h-1.2l-4.1,13.5h0l-3.8-13.5h-1.1l4.3,14.7h1.2l4.1-13.3h0
				l4.1,13.3h1.2L1,260.9h-1.1L-3.9,274.5z M8.4,260.7c-1.9,0-3.5,0.7-4.7,2.1C2.6,264.2,2,266,2,268.3c0,2.4,0.6,4.2,1.8,5.5
				c1.2,1.3,2.8,2,4.8,2c1.6,0,2.9-0.4,4-1.2c1.1-0.8,1.7-1.8,2-3.1h-1.1c-0.2,1-0.8,1.8-1.6,2.4c-0.9,0.6-2,1-3.3,1
				c-1.7,0-3-0.6-4-1.7c-1-1.1-1.5-2.7-1.5-4.7v-0.1h11.7v-0.6c0-2.1-0.6-3.9-1.7-5.2C11.8,261.4,10.3,260.7,8.4,260.7z M3.1,267.6
				c0.1-1.8,0.6-3.2,1.6-4.3c1-1.1,2.2-1.6,3.8-1.6c1.5,0,2.8,0.5,3.8,1.6c1,1.1,1.4,2.5,1.4,4.2H3.1z M18.3,263.8L18.3,263.8l0-2.9
				h-1v14.7h1.1v-9.1c0-1.4,0.3-2.5,1-3.4c0.7-0.9,1.6-1.3,2.7-1.3c0.6,0,1.1,0.1,1.5,0.3V261c-0.4-0.2-0.9-0.2-1.3-0.2
				C20.2,260.7,18.9,261.8,18.3,263.8z M27.4,273.9c-0.3,0-0.5,0.1-0.7,0.3c-0.2,0.2-0.3,0.4-0.3,0.7c0,0.3,0.1,0.5,0.3,0.7
				c0.2,0.2,0.4,0.3,0.7,0.3c0.3,0,0.5-0.1,0.7-0.3c0.2-0.2,0.3-0.4,0.3-0.7c0-0.3-0.1-0.5-0.3-0.7C27.9,274,27.6,273.9,27.4,273.9z
				 M27.4,265.3c0.3,0,0.5-0.1,0.7-0.3c0.2-0.2,0.3-0.4,0.3-0.7c0-0.3-0.1-0.5-0.3-0.7c-0.2-0.2-0.4-0.3-0.7-0.3
				c-0.3,0-0.5,0.1-0.7,0.3c-0.2,0.2-0.3,0.4-0.3,0.7c0,0.3,0.1,0.5,0.3,0.7C26.9,265.2,27.1,265.3,27.4,265.3z"/>
		</g>
	</g>
</g>
<g id="next_копия_1_" class="st20">
	<g id="next_копия" class="st1">
		<g>
			<path class="st23" d="M313.9,586.7h-0.1l-9.2-12.8h-3.4v19.7h4v-12.9h0.1l9.2,12.9h3.4v-19.7h-4V586.7z M327.5,578.2
				c-2.2,0-4,0.7-5.3,2.1c-1.3,1.4-2,3.3-2,5.7c0,2.4,0.7,4.3,2,5.7c1.3,1.4,3.1,2.1,5.4,2.1c1.8,0,3.4-0.4,4.6-1.3
				c1.2-0.9,2-2.1,2.2-3.5h-3.7c-0.2,0.6-0.6,1-1.1,1.4c-0.5,0.3-1.2,0.5-2,0.5c-1,0-1.9-0.3-2.5-1c-0.6-0.7-1-1.6-1-2.6v-0.2h10.4
				v-1.2c0-2.3-0.6-4.1-1.9-5.5C331.4,578.9,329.7,578.2,327.5,578.2z M324.3,584.5c0.1-1,0.4-1.7,1-2.4c0.6-0.6,1.4-0.9,2.3-0.9
				c0.9,0,1.7,0.3,2.3,0.9c0.6,0.6,0.9,1.4,0.9,2.4H324.3z M345.6,578.5l-2.7,5.1h-0.1l-2.8-5.1h-4.5l4.7,7.5l-4.8,7.5h4.2l2.9-5.3
				h0.1l2.9,5.3h4.4l-4.7-7.6l4.7-7.4H345.6z M359.5,581.5v-3h-2.8v-3.3h-4v3.3h-2v3h2v8c0,1.5,0.4,2.5,1.1,3.2c0.7,0.6,2,1,3.7,1
				c0.7,0,1.4-0.1,1.9-0.2v-3c-0.3,0-0.6,0.1-1,0.1c-1.2,0-1.8-0.6-1.8-1.7v-7.3H359.5z"/>
		</g>
	</g>
</g>
<g id="Hello_1_" class="st20">
	<g id="Hello" class="st1">
		<g>
			<path class="st23" d="M122,126.1c1.6-2.5,2.4-5.3,2.4-8.5c0-4.9-1.5-8.7-4.6-11.5c-3.2-2.8-7.6-4.2-13.2-4.2H86.1v49.3h10.3v-18
				h8.4l9.2,18h11.7l-10.4-19.6C118.2,130.5,120.4,128.6,122,126.1z M111.6,123.5c-1.5,1.4-3.5,2.1-6.1,2.1h-9.1v-15.7h9
				c2.6,0,4.6,0.7,6.1,2.1c1.5,1.4,2.3,3.3,2.3,5.7C113.7,120.2,113,122.1,111.6,123.5z M158.3,116.3c-2.9-2.3-6.8-3.4-11.6-3.4
				c-4.7,0-8.5,1.1-11.5,3.4c-3,2.2-4.5,5.1-4.6,8.7h9.1c0.3-1.4,1-2.5,2.2-3.3c1.2-0.9,2.7-1.3,4.5-1.3c2.1,0,3.7,0.5,4.9,1.4
				c1.2,1,1.7,2.4,1.7,4.2v2.5l-9.4,0.6c-4.8,0.3-8.5,1.4-11,3.3c-2.6,1.9-3.8,4.6-3.8,8c0,3.3,1.2,6,3.6,8.2
				c2.4,2.1,5.4,3.1,9.1,3.1c2.5,0,4.7-0.5,6.8-1.6c2.1-1.1,3.7-2.7,4.7-4.6h0.2v5.8h9.6v-25.8C162.7,121.6,161.3,118.5,158.3,116.3
				z M152.9,137.3c0,2-0.8,3.7-2.4,5c-1.6,1.3-3.5,1.9-5.9,1.9c-1.8,0-3.3-0.4-4.3-1.2c-1.1-0.8-1.6-1.9-1.6-3.3
				c0-2.8,2.1-4.4,6.4-4.7l7.9-0.5V137.3z M191.5,113.1c-5.5,0-9.4,2.3-11.6,6.9h-0.2V99.5h-10v51.7h9.8v-6.4h0.2
				c2.2,4.6,6.2,6.9,11.8,6.9c4.7,0,8.5-1.7,11.2-5.2c2.7-3.4,4.1-8.1,4.1-14.1c0-6-1.4-10.7-4.1-14.1
				C200,114.8,196.3,113.1,191.5,113.1z M194.3,140.5c-1.5,2-3.6,3-6.2,3c-2.6,0-4.6-1-6.2-3.1c-1.5-2-2.3-4.7-2.4-8.1
				c0-3.4,0.8-6.1,2.4-8.1c1.6-2.1,3.6-3.1,6.2-3.1c2.6,0,4.6,1,6.2,3c1.5,2,2.3,4.7,2.3,8.1C196.6,135.7,195.9,138.4,194.3,140.5z
				 M234.3,113.1c-5.5,0-9.4,2.3-11.6,6.9h-0.2V99.5h-10v51.7h9.8v-6.4h0.2c2.2,4.6,6.2,6.9,11.8,6.9c4.7,0,8.5-1.7,11.2-5.2
				c2.7-3.4,4.1-8.1,4.1-14.1c0-6-1.4-10.7-4.1-14.1C242.8,114.8,239,113.1,234.3,113.1z M237.1,140.5c-1.5,2-3.6,3-6.2,3
				c-2.6,0-4.6-1-6.2-3.1c-1.5-2-2.3-4.7-2.4-8.1c0-3.4,0.8-6.1,2.4-8.1c1.6-2.1,3.6-3.1,6.2-3.1c2.6,0,4.6,1,6.2,3
				c1.5,2,2.3,4.7,2.3,8.1C239.4,135.7,238.6,138.4,237.1,140.5z M260.2,99c-1.5,0-2.7,0.5-3.8,1.5c-1,1-1.6,2.2-1.6,3.7
				c0,1.5,0.5,2.7,1.6,3.7c1,1,2.3,1.5,3.8,1.5c1.5,0,2.8-0.5,3.8-1.5c1-1,1.6-2.2,1.6-3.7c0-1.5-0.5-2.7-1.6-3.7
				C262.9,99.5,261.7,99,260.2,99z M255.2,151.1h10v-37.6h-10V151.1z M291.7,121.1v-7.6h-7v-8.4h-10v8.4h-5.1v7.6h5.1V141
				c0,3.7,0.9,6.3,2.8,7.9c1.9,1.6,5,2.4,9.3,2.4c1.8,0,3.5-0.1,4.8-0.4v-7.4c-0.7,0.1-1.5,0.2-2.5,0.2c-3,0-4.5-1.4-4.5-4.3v-18.3
				H291.7z"/>
		</g>
	</g>
</g>
<g id="_x31__x2F_56_words_1_" class="st20">
	<g id="_x31__x2F_56_words" class="st1">
		<g>
			<path class="st26" d="M367.8-32.3c-1.2,0.8-1.9,1.2-2.2,1.4v0.9c1.1-0.7,2.1-1.3,3-1.9c0.8-0.5,1.2-0.8,1.3-0.8h0v14.6h0.8v-15.6
				h-0.8C369.5-33.4,368.8-32.9,367.8-32.3z M373.3-14.5h0.8l4.8-19.1h-0.8L373.3-14.5z M385.5-28.2c-0.8,0-1.6,0.2-2.4,0.5
				c-0.7,0.4-1.3,0.8-1.7,1.5h0l0.7-6.6h7.5v-0.8h-8.2l-0.9,8.5h0.9c0.4-0.7,1-1.3,1.7-1.7c0.7-0.4,1.5-0.6,2.4-0.6
				c1.2,0,2.3,0.4,3.1,1.3c0.8,0.8,1.2,1.9,1.2,3.1c0,1.3-0.4,2.3-1.3,3.1c-0.9,0.8-1.9,1.2-3.2,1.2c-1.1,0-2-0.3-2.8-0.9
				c-0.8-0.6-1.3-1.4-1.4-2.3h-0.8c0.1,1.2,0.7,2.1,1.6,2.9c1,0.8,2.1,1.1,3.4,1.1c1.5,0,2.8-0.5,3.8-1.5c1-1,1.5-2.2,1.5-3.7
				c0-1.5-0.5-2.7-1.5-3.7C388.1-27.7,386.9-28.2,385.5-28.2z M398.1-28.2c-1.2,0-2.2,0.3-3.1,1c-0.9,0.7-1.5,1.5-1.8,2.5h0
				c0-2.6,0.4-4.7,1.2-6.1c0.9-1.5,2.1-2.2,3.6-2.2c1,0,1.9,0.3,2.6,0.9c0.7,0.6,1.2,1.3,1.4,2.2h0.9c-0.2-1.1-0.7-2.1-1.6-2.8
				c-0.9-0.7-1.9-1.1-3.2-1.1c-1.8,0-3.2,0.8-4.2,2.3c-1,1.5-1.5,3.5-1.5,6.1c0,2.3,0.5,4.1,1.4,5.4c1,1.5,2.4,2.2,4.2,2.2
				c1.5,0,2.7-0.5,3.7-1.5c1-1,1.5-2.3,1.5-3.8c0-1.5-0.5-2.7-1.5-3.6C400.8-27.7,399.6-28.2,398.1-28.2z M401.2-19.9
				c-0.8,0.9-1.9,1.3-3.1,1.3c-1.3,0-2.3-0.4-3.2-1.3c-0.9-0.9-1.3-2-1.3-3.3c0-1.1,0.4-2.1,1.3-3c0.9-0.8,1.9-1.2,3.1-1.2
				c1.2,0,2.3,0.4,3.1,1.3c0.8,0.8,1.3,1.9,1.3,3.1C402.4-21.8,402-20.8,401.2-19.9z M419.9-19L419.9-19l-3.3-10.6h-0.9L412.5-19h0
				l-3-10.6h-0.9l3.4,11.6h1l3.2-10.5h0l3.2,10.5h1l3.4-11.6h-0.9L419.9-19z M429.7-29.8c-1.5,0-2.8,0.5-3.7,1.6
				c-0.9,1.1-1.4,2.5-1.4,4.3c0,1.8,0.5,3.2,1.4,4.3c0.9,1.1,2.2,1.6,3.7,1.6c1.5,0,2.8-0.5,3.7-1.6c0.9-1.1,1.4-2.5,1.4-4.3
				c0-1.8-0.5-3.3-1.4-4.3C432.5-29.2,431.2-29.8,429.7-29.8z M432.8-20.1c-0.8,0.9-1.8,1.4-3.1,1.4c-1.3,0-2.3-0.5-3.1-1.4
				c-0.8-0.9-1.2-2.2-1.2-3.8s0.4-2.9,1.2-3.8c0.8-0.9,1.8-1.4,3.1-1.4c1.3,0,2.4,0.5,3.1,1.4c0.8,0.9,1.2,2.2,1.2,3.8
				C434-22.3,433.6-21,432.8-20.1z M437.6-27.3L437.6-27.3l0-2.3h-0.8v11.6h0.8v-7.2c0-1.1,0.3-2,0.8-2.7c0.5-0.7,1.3-1.1,2.2-1.1
				c0.5,0,0.9,0.1,1.2,0.2v-0.8c-0.3-0.1-0.7-0.2-1.1-0.2C439.1-29.8,438.1-29,437.6-27.3z M451.3-26.6L451.3-26.6
				c-0.3-0.9-0.8-1.7-1.6-2.3c-0.8-0.6-1.7-0.9-2.8-0.9c-1.4,0-2.6,0.5-3.5,1.6c-0.9,1.1-1.4,2.5-1.4,4.3c0,1.8,0.5,3.2,1.4,4.3
				c0.9,1.1,2.1,1.6,3.6,1.6c1.1,0,2-0.3,2.8-0.9c0.8-0.6,1.3-1.4,1.6-2.3h0v3.1h0.8v-16.2h-0.8V-26.6z M450.1-20.1
				c-0.8,1-1.8,1.5-3.1,1.5c-1.2,0-2.2-0.5-3-1.4c-0.8-1-1.2-2.2-1.2-3.7c0-1.5,0.4-2.8,1.2-3.7c0.8-1,1.8-1.4,3-1.4
				c1.2,0,2.3,0.5,3.1,1.4c0.8,1,1.2,2.2,1.2,3.7C451.3-22.3,450.9-21.1,450.1-20.1z M462-23c-0.5-0.5-1.3-0.8-2.5-1.1l-1.8-0.4
				c-0.8-0.2-1.4-0.5-1.8-0.8c-0.4-0.3-0.6-0.8-0.6-1.3c0-0.7,0.3-1.3,0.9-1.7c0.6-0.4,1.3-0.7,2.2-0.7c0.9,0,1.7,0.3,2.3,0.8
				c0.6,0.5,0.9,1.2,1,2h0.8c-0.1-1.1-0.5-1.9-1.2-2.5c-0.7-0.6-1.7-0.9-2.9-0.9c-1.1,0-2.1,0.3-2.8,0.9c-0.8,0.6-1.1,1.3-1.1,2.2
				c0,1.4,1,2.4,2.9,2.8l1.9,0.5c0.9,0.2,1.6,0.5,2,0.9c0.4,0.4,0.6,0.8,0.6,1.4c0,0.7-0.3,1.3-1,1.8c-0.6,0.4-1.5,0.7-2.4,0.7
				c-1,0-1.8-0.3-2.5-0.8c-0.6-0.5-1-1.1-1.1-1.9h-0.8c0.1,1,0.5,1.8,1.3,2.4c0.8,0.7,1.8,1,3.1,1c1.2,0,2.3-0.3,3.1-0.9
				c0.8-0.6,1.2-1.4,1.2-2.3C462.7-21.9,462.5-22.5,462-23z"/>
		</g>
	</g>
</g>
<g id="Words:_100_Learn:_56_Fails:_3_1_" class="st20">
	<g id="Words:_100_Learn:_56_Fails:_3" class="st1">
		<g>
			<path class="st26" d="M-75.2-20.8l4.1-13.9h0.1l4.1,13.9h0.8l4.3-15.5h-0.9l-3.8,14h-0.1l-4.1-14h-0.8l-4.1,14h-0.1l-3.8-14h-0.9
				l4.3,15.5H-75.2z M-56.6-20.6c1.5,0,2.8-0.5,3.7-1.6c0.9-1.1,1.4-2.5,1.4-4.3c0-1.8-0.5-3.3-1.4-4.3c-0.9-1.1-2.2-1.6-3.7-1.6
				c-1.5,0-2.8,0.5-3.7,1.6c-0.9,1.1-1.4,2.5-1.4,4.3c0,1.8,0.5,3.2,1.4,4.3C-59.4-21.2-58.2-20.6-56.6-20.6z M-59.8-30.4
				c0.8-0.9,1.8-1.4,3.1-1.4c1.3,0,2.4,0.5,3.1,1.4c0.8,0.9,1.2,2.2,1.2,3.8c0,1.6-0.4,2.8-1.2,3.8c-0.8,0.9-1.8,1.4-3.1,1.4
				c-1.3,0-2.3-0.5-3.1-1.4c-0.8-0.9-1.2-2.2-1.2-3.8C-61-28.2-60.6-29.4-59.8-30.4z M-48.7-28c0-1.1,0.3-2,0.8-2.7
				c0.5-0.7,1.3-1.1,2.2-1.1c0.5,0,0.9,0.1,1.2,0.2v-0.8c-0.3-0.1-0.7-0.2-1.1-0.2c-1.6,0-2.6,0.8-3.1,2.4h0v-2.3h-0.8v11.6h0.8V-28
				z M-39.4-20.6c1.1,0,2-0.3,2.8-0.9c0.8-0.6,1.3-1.4,1.6-2.3h0v3.1h0.8V-37h-0.8v7.7h0c-0.3-0.9-0.8-1.7-1.6-2.3
				c-0.8-0.6-1.7-0.9-2.8-0.9c-1.4,0-2.6,0.5-3.5,1.6c-0.9,1.1-1.4,2.5-1.4,4.3c0,1.8,0.5,3.2,1.4,4.3C-42-21.2-40.9-20.6-39.4-20.6
				z M-42.3-30.3c0.8-1,1.8-1.4,3-1.4c1.2,0,2.3,0.5,3.1,1.4c0.8,1,1.2,2.2,1.2,3.7c0,1.5-0.4,2.8-1.2,3.7c-0.8,1-1.8,1.5-3.1,1.5
				c-1.2,0-2.2-0.5-3-1.4c-0.8-1-1.2-2.2-1.2-3.7C-43.5-28.1-43.1-29.4-42.3-30.3z M-25.4-22c-0.6,0.4-1.5,0.7-2.4,0.7
				c-1,0-1.8-0.3-2.5-0.8c-0.6-0.5-1-1.1-1.1-1.9h-0.8c0.1,1,0.5,1.8,1.3,2.4c0.8,0.7,1.8,1,3.1,1c1.2,0,2.3-0.3,3.1-0.9
				c0.8-0.6,1.2-1.4,1.2-2.3c0-0.8-0.3-1.4-0.8-1.9c-0.5-0.5-1.3-0.8-2.5-1.1l-1.8-0.4c-0.8-0.2-1.4-0.5-1.8-0.8
				c-0.4-0.3-0.6-0.8-0.6-1.3c0-0.7,0.3-1.3,0.9-1.7c0.6-0.4,1.3-0.7,2.2-0.7c0.9,0,1.7,0.3,2.3,0.8c0.6,0.5,0.9,1.2,1,2h0.8
				c-0.1-1.1-0.5-1.9-1.2-2.5c-0.7-0.6-1.7-0.9-2.9-0.9c-1.1,0-2.1,0.3-2.8,0.9c-0.8,0.6-1.1,1.3-1.1,2.2c0,1.4,1,2.4,2.9,2.8
				l1.9,0.5c0.9,0.2,1.6,0.5,2,0.9c0.4,0.4,0.6,0.8,0.6,1.4C-24.4-23.1-24.7-22.5-25.4-22z M-20.3-30.5c-0.2,0-0.4,0.1-0.5,0.2
				c-0.1,0.2-0.2,0.3-0.2,0.5c0,0.2,0.1,0.4,0.2,0.5c0.2,0.1,0.3,0.2,0.5,0.2c0.2,0,0.4-0.1,0.5-0.2c0.1-0.2,0.2-0.3,0.2-0.5
				c0-0.2-0.1-0.4-0.2-0.5C-19.9-30.4-20.1-30.5-20.3-30.5z M-20.3-22.2c-0.2,0-0.4,0.1-0.5,0.2c-0.1,0.2-0.2,0.3-0.2,0.5
				c0,0.2,0.1,0.4,0.2,0.5c0.2,0.1,0.3,0.2,0.5,0.2c0.2,0,0.4-0.1,0.5-0.2c0.1-0.2,0.2-0.3,0.2-0.5c0-0.2-0.1-0.4-0.2-0.5
				C-19.9-22.1-20.1-22.2-20.3-22.2z M-10.1-35c-1.2,0.8-1.9,1.2-2.2,1.4v0.9c1.1-0.7,2.1-1.3,3-1.9c0.8-0.5,1.2-0.8,1.3-0.8h0v14.6
				h0.8v-15.6H-8C-8.4-36.1-9.1-35.7-10.1-35z M1.8-36.5c-1.7,0-3,0.7-4,2.2c-1,1.4-1.5,3.4-1.5,5.8c0,2.5,0.5,4.4,1.5,5.8
				c1,1.4,2.3,2.2,4,2.2c1.7,0,3-0.7,4-2.2c1-1.4,1.5-3.4,1.5-5.8c0-2.4-0.5-4.4-1.5-5.8C4.8-35.8,3.4-36.5,1.8-36.5z M5.1-23.3
				c-0.8,1.3-2,2-3.4,2c-1.4,0-2.6-0.7-3.4-2c-0.8-1.3-1.2-3-1.2-5.3c0-2.2,0.4-4,1.2-5.3c0.8-1.3,2-2,3.4-2c1.4,0,2.6,0.7,3.4,2
				c0.8,1.3,1.2,3,1.2,5.3C6.4-26.3,6-24.6,5.1-23.3z M18.6-34.4c-1-1.4-2.3-2.1-4-2.1c-1.7,0-3,0.7-4,2.2c-1,1.4-1.5,3.4-1.5,5.8
				c0,2.5,0.5,4.4,1.5,5.8c1,1.4,2.3,2.2,4,2.2c1.7,0,3-0.7,4-2.2c1-1.4,1.5-3.4,1.5-5.8C20.1-31,19.6-32.9,18.6-34.4z M18-23.3
				c-0.8,1.3-2,2-3.4,2c-1.4,0-2.6-0.7-3.4-2c-0.8-1.3-1.2-3-1.2-5.3c0-2.2,0.4-4,1.2-5.3c0.8-1.3,2-2,3.4-2c1.4,0,2.6,0.7,3.4,2
				c0.8,1.3,1.2,3,1.2,5.3C19.2-26.3,18.8-24.6,18-23.3z M-78.5-11.3h-0.8V4.2h9V3.4h-8.1V-11.3z M-64.8-7.5c-1.5,0-2.7,0.5-3.7,1.6
				c-0.9,1.1-1.4,2.5-1.4,4.3c0,1.8,0.5,3.3,1.4,4.4c0.9,1,2.2,1.6,3.7,1.6c1.3,0,2.3-0.3,3.2-1C-60.7,2.8-60.2,2-60,1h-0.8
				c-0.2,0.8-0.6,1.4-1.3,1.9c-0.7,0.5-1.6,0.8-2.6,0.8c-1.3,0-2.4-0.4-3.1-1.3c-0.8-0.9-1.2-2.1-1.2-3.7v0h9.2v-0.5
				c0-1.7-0.5-3-1.4-4C-62.1-7-63.3-7.5-64.8-7.5z M-69-2.1c0.1-1.4,0.5-2.5,1.2-3.3c0.8-0.8,1.8-1.3,3-1.3c1.2,0,2.2,0.4,3,1.3
				c0.8,0.9,1.1,2,1.1,3.3H-69z M-50.2,1.7L-50.2,1.7l0,2.5h0.8v-7.8c0-1.2-0.4-2.2-1.1-2.9c-0.7-0.7-1.8-1.1-3-1.1
				c-1.2,0-2.2,0.3-3,1c-0.8,0.6-1.2,1.5-1.3,2.6h0.8c0.1-0.9,0.5-1.6,1.1-2c0.6-0.5,1.4-0.7,2.4-0.7c1,0,1.9,0.3,2.4,0.8
				c0.6,0.6,0.9,1.4,0.9,2.4v1l-4,0.3c-2.8,0.2-4.1,1.3-4.1,3.3c0,1,0.4,1.8,1.1,2.4c0.7,0.6,1.6,0.9,2.8,0.9c1,0,1.9-0.2,2.7-0.7
				C-51,3.1-50.5,2.5-50.2,1.7z M-54.3,3.6c-0.9,0-1.6-0.2-2.2-0.7c-0.6-0.5-0.9-1.1-0.9-1.8c0-1.6,1.1-2.4,3.4-2.6l3.9-0.3v1.7
				c0,1-0.4,1.9-1.2,2.6C-52.2,3.3-53.2,3.6-54.3,3.6z M-46-5.1L-46-5.1l0-2.3h-0.8V4.2h0.8V-3c0-1.1,0.3-2,0.8-2.7
				c0.5-0.7,1.3-1.1,2.2-1.1c0.5,0,0.9,0.1,1.2,0.2v-0.8c-0.3-0.1-0.7-0.2-1.1-0.2C-44.5-7.5-45.6-6.7-46-5.1z M-31.1,4.2v-7.5
				c0-1.3-0.4-2.3-1.2-3.1c-0.8-0.8-1.8-1.1-3.1-1.1c-1,0-1.8,0.2-2.5,0.7c-0.7,0.5-1.2,1.1-1.5,2h0v-2.5h-0.8V4.2h0.8v-6.9
				c0-1.2,0.4-2.2,1.1-2.9c0.7-0.8,1.6-1.1,2.8-1.1c1.1,0,2,0.3,2.6,1c0.7,0.6,1,1.5,1,2.6v7.4H-31.1z M-27.3,2.8
				c-0.2,0-0.4,0.1-0.5,0.2C-27.9,3.2-28,3.4-28,3.6c0,0.2,0.1,0.4,0.2,0.5c0.2,0.1,0.3,0.2,0.5,0.2c0.2,0,0.4-0.1,0.5-0.2
				c0.1-0.2,0.2-0.3,0.2-0.5c0-0.2-0.1-0.4-0.2-0.5C-26.9,2.9-27.1,2.8-27.3,2.8z M-26.7-5.2c-0.2-0.1-0.3-0.2-0.5-0.2
				c-0.2,0-0.4,0.1-0.5,0.2C-27.9-5.1-28-4.9-28-4.7c0,0.2,0.1,0.4,0.2,0.5c0.2,0.1,0.3,0.2,0.5,0.2c0.2,0,0.4-0.1,0.5-0.2
				c0.1-0.2,0.2-0.3,0.2-0.5C-26.5-4.9-26.6-5.1-26.7-5.2z M-13.6-5.9c-0.8,0-1.6,0.2-2.4,0.5c-0.7,0.4-1.3,0.8-1.7,1.5h0l0.7-6.6
				h7.5v-0.8h-8.2l-0.9,8.5h0.9c0.4-0.7,1-1.3,1.7-1.7c0.7-0.4,1.5-0.6,2.4-0.6c1.2,0,2.3,0.4,3.1,1.3C-9.8-3-9.4-2-9.4-0.7
				c0,1.3-0.4,2.3-1.3,3.1c-0.9,0.8-1.9,1.2-3.2,1.2c-1.1,0-2-0.3-2.8-0.9c-0.8-0.6-1.3-1.4-1.4-2.3h-0.8c0.1,1.2,0.7,2.1,1.6,2.9
				c1,0.8,2.1,1.1,3.4,1.1C-12.3,4.4-11,4-10,3c1-1,1.5-2.2,1.5-3.7c0-1.5-0.5-2.7-1.5-3.7C-11-5.4-12.2-5.9-13.6-5.9z M-1-5.9
				c-1.2,0-2.2,0.3-3.1,1C-5-4.3-5.5-3.4-5.8-2.4h0c0-2.6,0.4-4.7,1.2-6.1c0.9-1.5,2.1-2.2,3.6-2.2c1,0,1.9,0.3,2.6,0.9
				C2.4-9.3,2.8-8.6,3-7.7h0.9c-0.2-1.1-0.7-2.1-1.6-2.8c-0.9-0.7-1.9-1.1-3.2-1.1c-1.8,0-3.2,0.8-4.2,2.3c-1,1.5-1.5,3.5-1.5,6.1
				c0,2.3,0.5,4.1,1.4,5.4c1,1.5,2.4,2.2,4.2,2.2c1.5,0,2.7-0.5,3.7-1.5c1-1,1.5-2.3,1.5-3.8c0-1.5-0.5-2.7-1.5-3.6
				C1.7-5.4,0.5-5.9-1-5.9z M2.1,2.4C1.2,3.2,0.2,3.7-1.1,3.7c-1.3,0-2.3-0.4-3.2-1.3c-0.9-0.9-1.3-2-1.3-3.3c0-1.1,0.4-2.1,1.3-3
				c0.9-0.8,1.9-1.2,3.1-1.2c1.2,0,2.3,0.4,3.1,1.3C2.9-3.1,3.3-2,3.3-0.8C3.3,0.5,2.9,1.5,2.1,2.4z M-79.4,29.2h0.8v-7.5h7.4V21
				h-7.4v-6.5h8.1v-0.8h-8.9V29.2z M-64.5,17.5c-1.2,0-2.2,0.3-3,1c-0.8,0.6-1.2,1.5-1.3,2.6h0.8c0.1-0.9,0.5-1.6,1.1-2
				c0.6-0.5,1.4-0.7,2.4-0.7c1,0,1.9,0.3,2.4,0.8c0.6,0.6,0.9,1.4,0.9,2.4v1l-4,0.3c-2.8,0.2-4.1,1.3-4.1,3.3c0,1,0.4,1.8,1.1,2.4
				c0.7,0.6,1.6,0.9,2.8,0.9c1,0,1.9-0.2,2.7-0.7c0.8-0.5,1.3-1.1,1.6-1.9h0v2.5h0.8v-7.8c0-1.2-0.4-2.2-1.1-2.9
				C-62.3,17.8-63.3,17.5-64.5,17.5z M-61.2,24.9c0,1-0.4,1.9-1.2,2.6c-0.8,0.7-1.8,1.1-2.9,1.1c-0.9,0-1.6-0.2-2.2-0.7
				c-0.6-0.5-0.9-1.1-0.9-1.8c0-1.6,1.1-2.4,3.4-2.6l3.9-0.3V24.9z M-57.8,29.2h0.8V17.6h-0.8V29.2z M-57.4,13.5
				c-0.2,0-0.3,0.1-0.5,0.2c-0.1,0.1-0.2,0.3-0.2,0.5c0,0.2,0.1,0.3,0.2,0.5c0.1,0.1,0.3,0.2,0.5,0.2c0.2,0,0.3-0.1,0.5-0.2
				c0.1-0.1,0.2-0.3,0.2-0.5c0-0.2-0.1-0.3-0.2-0.5C-57,13.6-57.2,13.5-57.4,13.5z M-54.2,29.2h0.8V13h-0.8V29.2z M-45.9,23.1
				l-1.8-0.4c-0.8-0.2-1.4-0.5-1.8-0.8c-0.4-0.3-0.6-0.8-0.6-1.3c0-0.7,0.3-1.3,0.9-1.7c0.6-0.4,1.3-0.7,2.2-0.7
				c0.9,0,1.7,0.3,2.3,0.8c0.6,0.5,0.9,1.2,1,2h0.8c-0.1-1.1-0.5-1.9-1.2-2.5c-0.7-0.6-1.7-0.9-2.9-0.9c-1.1,0-2.1,0.3-2.8,0.9
				c-0.8,0.6-1.1,1.3-1.1,2.2c0,1.4,1,2.4,2.9,2.8l1.9,0.5c0.9,0.2,1.6,0.5,2,0.9c0.4,0.4,0.6,0.8,0.6,1.4c0,0.7-0.3,1.3-1,1.8
				c-0.6,0.4-1.5,0.7-2.4,0.7c-1,0-1.8-0.3-2.5-0.8c-0.6-0.5-1-1.1-1.1-1.9h-0.8c0.1,1,0.5,1.8,1.3,2.4c0.8,0.7,1.8,1,3.1,1
				c1.2,0,2.3-0.3,3.1-0.9c0.8-0.6,1.2-1.4,1.2-2.3c0-0.8-0.3-1.4-0.8-1.9C-43.9,23.8-44.8,23.4-45.9,23.1z M-39.4,27.8
				c-0.2,0-0.4,0.1-0.5,0.2c-0.1,0.2-0.2,0.3-0.2,0.5c0,0.2,0.1,0.4,0.2,0.5c0.2,0.1,0.3,0.2,0.5,0.2s0.4-0.1,0.5-0.2
				c0.1-0.2,0.2-0.3,0.2-0.5c0-0.2-0.1-0.4-0.2-0.5C-39,27.9-39.2,27.8-39.4,27.8z M-39.4,19.5c-0.2,0-0.4,0.1-0.5,0.2
				c-0.1,0.2-0.2,0.3-0.2,0.5c0,0.2,0.1,0.4,0.2,0.5c0.2,0.1,0.3,0.2,0.5,0.2s0.4-0.1,0.5-0.2c0.1-0.2,0.2-0.3,0.2-0.5
				c0-0.2-0.1-0.4-0.2-0.5C-39,19.6-39.2,19.5-39.4,19.5z M-25,21.2L-25,21.2c1-0.2,1.8-0.7,2.4-1.3c0.6-0.7,0.9-1.5,0.9-2.4
				c0-1.1-0.4-2.1-1.3-2.8c-0.9-0.7-2-1.1-3.3-1.1c-1.3,0-2.4,0.4-3.3,1.1c-0.9,0.7-1.4,1.7-1.4,2.8h0.8c0.1-0.9,0.5-1.7,1.2-2.3
				c0.7-0.6,1.6-0.9,2.7-0.9c1.1,0,2,0.3,2.8,0.9c0.7,0.6,1.1,1.4,1.1,2.3c0,1-0.4,1.8-1.1,2.4c-0.7,0.6-1.7,0.9-2.9,0.9h-1.7v0.8
				h1.8c1.4,0,2.6,0.3,3.4,0.9c0.8,0.6,1.2,1.5,1.2,2.5c0,1.1-0.4,1.9-1.2,2.6c-0.8,0.7-1.9,1-3.1,1c-1.2,0-2.2-0.3-3.1-1
				c-0.8-0.6-1.3-1.4-1.3-2.4h-0.8c0,1.2,0.5,2.2,1.5,2.9c1,0.8,2.2,1.2,3.7,1.2c1.5,0,2.7-0.4,3.7-1.3c1-0.8,1.5-1.9,1.5-3.2
				c0-1.1-0.4-2-1.1-2.7C-22.8,21.6-23.8,21.2-25,21.2z"/>
		</g>
	</g>
</g>
<g id="шапка_xA0_Изображение_1_" class="st0">
	<g class="st1">
		
			<image style="overflow:visible;" width="564" height="75" id="шапка_xA0_Изображение_2_" xlink:href="7F49358E.png"  transform="matrix(1 0 0 1 -93.5386 -121.2735)">
		</image>
	</g>
</g>
<g id="Слой_25" class="st0">
	<g class="st1">
		<rect x="380.4" y="-106.3" class="st27" width="7.1" height="8"/>
		<path class="st28" d="M391.4-109.3h-9.8v2h-2.1v9.8h10v-1.9h1.9V-109.3z M387.5-98.3h-7.1v-8h7.1V-98.3z M390.4-101.3h-1v-6h-7
			v-1.1h8V-101.3z"/>
	</g>
	<polygon class="st29" points="450.7,-110 449.1,-111.5 442.5,-104.8 435.8,-111.5 434.2,-110 440.9,-103.3 434.2,-96.6 435.8,-95 
		442.5,-101.7 449.1,-95 450.7,-96.6 444,-103.3 	"/>
	<rect x="323.5" y="-103.3" class="st29" width="11.8" height="1"/>
</g>
<g id="Слой_26" class="st0">
	<g class="st1">
		<g>
			
				<linearGradient id="SVGID_11_" gradientUnits="userSpaceOnUse" x1="-87.274" y1="803.8154" x2="-87.6741" y2="802.5839" gradientTransform="matrix(1 0 0 -1 0 697.4529)">
				<stop  offset="0" style="stop-color:#FF224C"/>
				<stop  offset="1" style="stop-color:#C3224C"/>
			</linearGradient>
			<circle class="st30" cx="-87.5" cy="-105.7" r="0.6"/>
			
				<linearGradient id="SVGID_12_" gradientUnits="userSpaceOnUse" x1="-87.3284" y1="808.581" x2="-87.7285" y2="807.3494" gradientTransform="matrix(1 0 0 -1 0 697.4529)">
				<stop  offset="0" style="stop-color:#FF224C"/>
				<stop  offset="1" style="stop-color:#C3224C"/>
			</linearGradient>
			<circle class="st31" cx="-87.5" cy="-110.5" r="0.6"/>
			
				<linearGradient id="SVGID_13_" gradientUnits="userSpaceOnUse" x1="-85.4097" y1="811.2263" x2="-85.7618" y2="810.1425" gradientTransform="matrix(1 0 0 -1 0 697.4529)">
				<stop  offset="0" style="stop-color:#FF224C"/>
				<stop  offset="1" style="stop-color:#C3224C"/>
			</linearGradient>
			<circle class="st32" cx="-85.6" cy="-113.2" r="0.6"/>
			
				<linearGradient id="SVGID_14_" gradientUnits="userSpaceOnUse" x1="-83.0477" y1="813.3452" x2="-83.464" y2="812.0637" gradientTransform="matrix(1 0 0 -1 0 697.4529)">
				<stop  offset="0" style="stop-color:#FF224C"/>
				<stop  offset="1" style="stop-color:#C3224C"/>
			</linearGradient>
			<circle class="st33" cx="-83.3" cy="-115.3" r="0.7"/>
			
				<linearGradient id="SVGID_15_" gradientUnits="userSpaceOnUse" x1="-79.7567" y1="814.9891" x2="-80.3329" y2="813.2158" gradientTransform="matrix(1 0 0 -1 0 697.4529)">
				<stop  offset="0" style="stop-color:#FF224C"/>
				<stop  offset="1" style="stop-color:#C3224C"/>
			</linearGradient>
			<circle class="st34" cx="-80" cy="-116.6" r="0.9"/>
			
				<linearGradient id="SVGID_16_" gradientUnits="userSpaceOnUse" x1="-85.1698" y1="808.8344" x2="-85.634" y2="807.4057" gradientTransform="matrix(1 0 0 -1 0 697.4529)">
				<stop  offset="0" style="stop-color:#FF224C"/>
				<stop  offset="1" style="stop-color:#C3224C"/>
			</linearGradient>
			<circle class="st35" cx="-85.4" cy="-110.7" r="0.8"/>
			
				<linearGradient id="SVGID_17_" gradientUnits="userSpaceOnUse" x1="-80.4262" y1="811.1772" x2="-81.4187" y2="808.1226" gradientTransform="matrix(1 0 0 -1 0 697.4529)">
				<stop  offset="0" style="stop-color:#FF224C"/>
				<stop  offset="1" style="stop-color:#C3224C"/>
			</linearGradient>
			<circle class="st36" cx="-80.9" cy="-112.2" r="1.6"/>
			
				<linearGradient id="SVGID_18_" gradientUnits="userSpaceOnUse" x1="-84.2187" y1="804.2487" x2="-85.0346" y2="801.7376" gradientTransform="matrix(1 0 0 -1 0 697.4529)">
				<stop  offset="0" style="stop-color:#FF224C"/>
				<stop  offset="1" style="stop-color:#C3224C"/>
			</linearGradient>
			<circle class="st37" cx="-84.6" cy="-105.5" r="1.3"/>
			
				<linearGradient id="SVGID_19_" gradientUnits="userSpaceOnUse" x1="-71.6774" y1="811.6325" x2="-78.8627" y2="789.5184" gradientTransform="matrix(1 0 0 -1 0 697.4529)">
				<stop  offset="0" style="stop-color:#FF224C"/>
				<stop  offset="1" style="stop-color:#C3224C"/>
			</linearGradient>
			<path class="st38" d="M-64.1-102.5c0-0.5-0.1-4.6-2.8-7.4c-1-1.1-2.4-1.8-2.5-1.9c-0.5-0.3-2.1-1.2-3.1-1.3c0,0-0.9-0.1-1.5-0.4
				c0,0,0,0-0.1-0.1c-0.1-0.1-0.2-0.1-0.3-0.1c0,0-0.1-0.1-0.2-0.1c-0.1-0.1-0.2-0.1-0.3-0.2c-0.1-0.1-0.2-0.1-0.3-0.2
				c-0.1-0.1-0.1-0.1-0.1-0.2c-0.1-0.2-0.5-0.8-0.7-1c-0.3-0.3-0.8-0.6-1.4-0.6c-0.9,0-1.5,0.6-1.6,0.7c0,0-0.5,0.6-0.5,1.4
				c0,0.3,0.1,0.5,0.1,0.6c0.1,0.3,0.2,0.6,0.3,0.7c0,0.2,0.1,0.5-0.1,0.9c-0.2,0.6-0.7,1.1-1.2,1.3c-0.4,0.1-0.9,0.1-1.3,0.1
				c-0.1,0-0.2,0-0.4-0.1c-0.3,0-0.6-0.1-0.9,0c-0.6,0.1-0.9,0.9-1,1c0,0.1-0.4,1,0,1.6c0,0,0,0,0.2,0.3c0.4,0.5,0.6,0.8,0.7,1
				c0.3,0.6,0.2,1.2,0.2,1.3c0,0.2-0.1,0.6-0.4,0.9c-0.2,0.2-0.5,0.3-0.7,0.4c-0.5,0.1-1,0-1.2,0c0,0-0.2,0-0.3-0.1c0,0-0.1,0-0.3,0
				c-0.2,0-0.6,0-1,0.3c-0.5,0.3-0.9,1.1-0.8,1.7c0.1,0.5,0.4,0.8,0.5,1c0,0,0.1,0.1,0.2,0.2c0.2,0.2,0.2,0.2,0.3,0.4
				c0.1,0.1,0.2,0.1,0.3,0.3c0.1,0.1,0.2,0.3,0.4,0.5c0.1,0.2,0.2,0.5,0.3,0.9c0.3,0.8,1.8,4.3,5.6,6.1c0.4,0.2,2.3,1.1,4.8,1.1
				c1,0,4.4-0.1,7.4-2.6C-64.2-97.2-64.1-101.7-64.1-102.5z"/>
		</g>
		<g>
			<path class="st18" d="M-82.2-97.6c0.4-0.5,0.7-1,1-1.4c0.2-0.3,0.6-1,1.3-2.2l0.8-1.4c0.6-1,1-1.7,1.2-1.9c0.3-0.5,0.7-0.7,1-0.7
				c0.2,0,0.4,0.1,0.4,0.3c0,0.1,0,0.3-0.1,0.5c-0.1,0.1-0.2,0.6-0.6,1.4c-0.3,0.8-0.5,1.7-0.7,2.7c-0.1,0.7-0.2,1.3-0.2,1.8
				c0,0.1,0,0.3,0,0.5c0,0.2,0,0.4,0.1,0.6c0.3-0.3,0.6-0.8,0.9-1.4c0.3-0.6,0.8-1.6,1.4-2.9c0.6-1.3,1.3-2.6,2.1-4
				c0.7-1.1,1.4-2.3,2.4-3.5c0.4-0.6,0.8-0.8,1-0.8c0.1,0,0.2,0.1,0.3,0.2c0.1,0.1,0.1,0.2,0.1,0.3c0,0.1-0.2,0.5-0.6,1
				c-0.8,1-1.6,2.1-2.3,3.4c-0.8,1.4-1.9,3.5-3.1,6.1c-0.6,1.2-1,2-1.3,2.5c-0.3,0.5-0.7,0.8-1.1,0.8c-0.3,0-0.6-0.1-0.8-0.4
				c-0.2-0.3-0.3-0.7-0.3-1.3c0-0.9,0.2-2.1,0.5-3.5c-0.3,0.4-0.7,0.9-1.1,1.6c-0.3,0.5-0.6,1-0.9,1.5c-0.4,0.7-0.7,1.2-0.8,1.4
				c-0.2,0.4-0.4,0.7-0.6,0.9c-0.2,0.2-0.4,0.2-0.6,0.2c-0.3,0-0.5-0.1-0.6-0.3c-0.1-0.2-0.1-0.4-0.1-0.6c0-1.6,0.8-4.4,2.5-8.4
				c0.8-2,1.3-3.2,1.4-3.6c0.1-0.4,0.2-0.7,0.4-0.8c0.2-0.2,0.3-0.3,0.6-0.3c0.3,0,0.4,0.1,0.4,0.4c0,0.3-0.1,0.8-0.4,1.5
				c-0.3,0.8-0.7,1.9-1.4,3.3c-0.4,1-0.7,1.7-0.9,2.2C-81.7-99.9-82.2-98.3-82.2-97.6z"/>
			<path class="st18" d="M-70.2-104.5l0.4-0.1c1.4-0.3,2.5-0.4,3-0.4c0.4,0,0.6,0.2,0.6,0.5c0,0.2-0.1,0.4-0.2,0.4
				c-0.1,0.1-0.3,0.1-0.6,0.1c-1.7,0.1-3,0.3-3.9,0.6c-0.3,0.5-0.9,1.5-1.5,2.9c-0.4,0.8-0.7,1.6-0.9,2.3c0.1-0.1,0.3-0.1,0.4-0.2
				c1-0.3,1.7-0.5,2.1-0.6c0.6-0.1,1.2-0.2,1.7-0.2c0.4,0,0.6,0,0.8,0.1c0.1,0.1,0.2,0.2,0.2,0.4c0,0.2-0.1,0.3-0.3,0.4
				c-0.1,0-0.3,0-0.6,0c-1.7,0.1-3.3,0.5-4.6,1.3c-0.2,0.1-0.3,0.1-0.5,0.1c-0.2,0-0.3-0.1-0.5-0.3c-0.1-0.2-0.2-0.3-0.2-0.5
				c0-0.2,0.2-0.8,0.6-1.8c0.6-1.6,1.5-3.3,2.5-5.2c0.3-0.6,0.9-1.5,1.8-2.9c0.2-0.3,0.4-0.6,0.6-0.9c-0.3-0.1-0.4-0.2-0.4-0.5
				c0-0.2,0.1-0.4,0.3-0.5c0.3-0.2,1-0.3,2-0.5c1.4-0.2,2.7-0.3,3.7-0.3c0.6,0,0.9,0.1,0.9,0.5c0,0.2-0.1,0.4-0.3,0.5
				c-0.1,0.1-0.3,0.1-0.5,0.1c0,0-0.1,0-0.2,0c-0.1,0-0.2,0-0.3,0c-0.5,0-1.2,0-2,0.1c-0.8,0.1-1.4,0.2-2,0.4
				c0.1,0.1,0.1,0.2,0.1,0.2c0,0.1-0.2,0.4-0.5,0.8l-0.5,0.7C-69.5-105.7-69.9-105-70.2-104.5z"/>
		</g>
	</g>
</g>
<g id="WordEng_1_" class="st20">
	<g id="WordEng" class="st1">
		<g>
			<path class="st39" d="M166.4-99.2L166.4-99.2l-3.3-11.5h-0.6l-3.3,11.5h0l-3.1-11.5h-0.7l3.5,12.7h0.6l3.3-11.4h0L166-98h0.6
				l3.5-12.7h-0.7L166.4-99.2z M174.4-107.6c-1.3,0-2.3,0.4-3,1.3c-0.8,0.9-1.1,2.1-1.1,3.6c0,1.5,0.4,2.7,1.1,3.5
				c0.8,0.9,1.8,1.3,3,1.3s2.3-0.4,3-1.3c0.8-0.9,1.1-2.1,1.1-3.5c0-1.5-0.4-2.7-1.1-3.6C176.6-107.2,175.6-107.6,174.4-107.6z
				 M176.9-99.7c-0.6,0.8-1.5,1.1-2.5,1.1c-1.1,0-1.9-0.4-2.5-1.1c-0.6-0.8-1-1.8-1-3.1s0.3-2.3,1-3.1c0.6-0.8,1.5-1.1,2.5-1.1
				s1.9,0.4,2.5,1.1c0.6,0.8,1,1.8,1,3.1C177.8-101.5,177.5-100.4,176.9-99.7z M180.8-105.6L180.8-105.6l0-1.9h-0.6v9.5h0.7v-5.9
				c0-0.9,0.2-1.6,0.6-2.2c0.4-0.6,1-0.9,1.7-0.9c0.4,0,0.7,0.1,1,0.2v-0.7c-0.3-0.1-0.5-0.2-0.9-0.2
				C182-107.6,181.2-107,180.8-105.6z M191.8-105L191.8-105c-0.2-0.8-0.7-1.4-1.3-1.9c-0.6-0.5-1.4-0.8-2.2-0.8
				c-1.2,0-2.1,0.4-2.9,1.3c-0.7,0.9-1.1,2.1-1.1,3.5c0,1.4,0.4,2.6,1.1,3.5c0.7,0.9,1.7,1.3,2.9,1.3c0.9,0,1.6-0.3,2.3-0.8
				c0.6-0.5,1.1-1.1,1.3-1.9h0v2.5h0.6v-13.2h-0.7V-105z M190.9-99.7c-0.6,0.8-1.5,1.2-2.5,1.2c-1,0-1.8-0.4-2.4-1.2
				c-0.6-0.8-0.9-1.8-0.9-3.1c0-1.3,0.3-2.3,0.9-3.1c0.6-0.8,1.4-1.2,2.4-1.2c1,0,1.8,0.4,2.5,1.2c0.6,0.8,1,1.8,1,3.1
				C191.8-101.5,191.5-100.5,190.9-99.7z M194.8-98h7.3v-0.6h-6.6v-5.5h6.3v-0.6h-6.3v-5.2h6.6v-0.6h-7.3V-98z M207.9-107.6
				c-0.8,0-1.5,0.2-2.1,0.6c-0.6,0.4-1,0.9-1.2,1.6h0v-2.1H204v9.5h0.7v-5.6c0-1,0.3-1.8,0.9-2.4c0.6-0.6,1.3-0.9,2.2-0.9
				c0.9,0,1.6,0.3,2.1,0.8c0.5,0.5,0.8,1.2,0.8,2.2v6h0.7v-6.1c0-1.1-0.3-1.9-1-2.5C209.8-107.3,208.9-107.6,207.9-107.6z
				 M220.4-107.5v2.5h0c-0.2-0.8-0.6-1.4-1.3-1.9c-0.6-0.5-1.4-0.8-2.2-0.8c-1.2,0-2.1,0.4-2.9,1.3c-0.7,0.9-1.1,2.1-1.1,3.5
				c0,1.4,0.4,2.6,1.1,3.5c0.7,0.9,1.7,1.3,2.9,1.3c0.8,0,1.6-0.3,2.2-0.8c0.6-0.5,1-1.1,1.3-1.9h0v2.5c0,0.8-0.3,1.4-0.9,1.9
				c-0.6,0.5-1.4,0.7-2.3,0.7c-0.8,0-1.5-0.1-2-0.4c-0.5-0.3-0.9-0.7-1-1.1h-0.7c0.1,0.7,0.5,1.2,1.2,1.6c0.7,0.4,1.5,0.6,2.5,0.6
				c1.2,0,2.1-0.3,2.9-0.9c0.7-0.6,1.1-1.4,1.1-2.4v-9.4H220.4z M219.4-99.7c-0.6,0.8-1.5,1.2-2.5,1.2c-1,0-1.8-0.4-2.4-1.2
				c-0.6-0.8-0.9-1.8-0.9-3c0-1.3,0.3-2.3,0.9-3.1c0.6-0.8,1.4-1.2,2.4-1.2c1,0,1.8,0.4,2.5,1.2c0.6,0.8,0.9,1.8,0.9,3
				C220.4-101.5,220-100.5,219.4-99.7z"/>
		</g>
	</g>
</g>
<g id="Learn_new_1_" class="st20">
	<g id="Learn_new" class="st1">
		<g>
			<path class="st39" d="M-82.4-72.2h-0.7v12.7h7.3v-0.6h-6.7V-72.2z M-71.2-69.1c-1.2,0-2.3,0.4-3,1.3c-0.8,0.9-1.1,2.1-1.1,3.5
				c0,1.5,0.4,2.7,1.2,3.6c0.8,0.9,1.8,1.3,3.1,1.3c1,0,1.9-0.3,2.6-0.8c0.7-0.5,1.1-1.2,1.3-2H-68c-0.1,0.6-0.5,1.2-1,1.5
				c-0.6,0.4-1.3,0.6-2.1,0.6c-1.1,0-1.9-0.4-2.6-1.1c-0.6-0.7-1-1.7-1-3v0h7.5v-0.4c0-1.4-0.4-2.5-1.1-3.3
				C-69-68.7-70-69.1-71.2-69.1z M-74.6-64.7c0.1-1.1,0.4-2,1-2.7c0.6-0.7,1.4-1,2.4-1c1,0,1.8,0.3,2.4,1c0.6,0.7,0.9,1.6,0.9,2.7
				H-74.6z M-61.9-69.1c-1,0-1.8,0.3-2.5,0.8c-0.7,0.5-1,1.2-1.1,2.1h0.7c0.1-0.7,0.4-1.3,0.9-1.7c0.5-0.4,1.2-0.6,2-0.6
				c0.8,0,1.5,0.2,2,0.7c0.5,0.5,0.7,1.1,0.7,1.9v0.8l-3.2,0.2c-2.3,0.2-3.4,1.1-3.4,2.7c0,0.8,0.3,1.4,0.9,1.9
				c0.6,0.5,1.3,0.7,2.3,0.7c0.8,0,1.5-0.2,2.2-0.6s1.1-0.9,1.3-1.6h0v2h0.7v-6.4c0-1-0.3-1.8-0.9-2.3C-60-68.8-60.9-69.1-61.9-69.1
				z M-59.2-63c0,0.8-0.3,1.6-1,2.1c-0.7,0.6-1.5,0.9-2.4,0.9c-0.7,0-1.3-0.2-1.8-0.6c-0.5-0.4-0.7-0.9-0.7-1.5c0-1.3,0.9-2,2.8-2.1
				l3.2-0.2V-63z M-55.8-67.1L-55.8-67.1l0-1.9h-0.6v9.5h0.7v-5.9c0-0.9,0.2-1.6,0.7-2.2c0.4-0.6,1-0.9,1.8-0.9c0.4,0,0.7,0.1,1,0.2
				V-69c-0.3-0.1-0.6-0.2-0.9-0.2C-54.6-69.1-55.4-68.5-55.8-67.1z M-47.1-69.1c-0.8,0-1.5,0.2-2.1,0.6c-0.6,0.4-1,0.9-1.2,1.6h0
				V-69h-0.6v9.5h0.7v-5.6c0-1,0.3-1.8,0.9-2.4c0.6-0.6,1.3-0.9,2.3-0.9c0.9,0,1.6,0.3,2.1,0.8c0.5,0.5,0.8,1.2,0.8,2.2v6h0.7v-6.1
				c0-1.1-0.3-1.9-1-2.5C-45.2-68.8-46.1-69.1-47.1-69.1z M-34.1-69.1c-0.8,0-1.5,0.2-2.1,0.6c-0.6,0.4-1,0.9-1.2,1.6h0V-69H-38v9.5
				h0.7v-5.6c0-1,0.3-1.8,0.9-2.4c0.6-0.6,1.3-0.9,2.3-0.9c0.9,0,1.6,0.3,2.1,0.8c0.5,0.5,0.8,1.2,0.8,2.2v6h0.7v-6.1
				c0-1.1-0.3-1.9-1-2.5C-32.2-68.8-33-69.1-34.1-69.1z M-24.9-69.1c-1.2,0-2.3,0.4-3,1.3c-0.8,0.9-1.1,2.1-1.1,3.5
				c0,1.5,0.4,2.7,1.2,3.6c0.7,0.9,1.8,1.3,3.1,1.3c1,0,1.9-0.3,2.6-0.8c0.7-0.5,1.1-1.2,1.3-2h-0.7c-0.1,0.6-0.5,1.2-1,1.5
				c-0.6,0.4-1.3,0.6-2.1,0.6c-1.1,0-1.9-0.4-2.6-1.1c-0.6-0.7-1-1.7-1-3v0h7.5v-0.4c0-1.4-0.4-2.5-1.1-3.3
				C-22.7-68.7-23.6-69.1-24.9-69.1z M-28.3-64.7c0.1-1.1,0.4-2,1-2.7c0.6-0.7,1.4-1,2.4-1c1,0,1.8,0.3,2.4,1
				c0.6,0.7,0.9,1.6,0.9,2.7H-28.3z M-8.7-69l-2.4,8.7h0l-2.6-8.7h-0.8l-2.6,8.7h0l-2.4-8.7h-0.7l2.8,9.5h0.8l2.6-8.6h0l2.6,8.6h0.8
				l2.8-9.5H-8.7z"/>
		</g>
	</g>
</g>
<g id="Reiteration_1_" class="st20">
	<g id="Reiteration" class="st1">
		<g>
			<path class="st39" d="M17.7-64.6c0.5-0.6,0.8-1.4,0.8-2.3c0-1.1-0.4-2-1.1-2.6c-0.7-0.7-1.7-1-3-1h-4.1v12.7H11v-5.4h3.4
				c0.2,0,0.3,0,0.4,0l3.2,5.4h0.8l-3.3-5.5C16.5-63.6,17.2-64,17.7-64.6z M14.4-63.9H11v-6h3.4c1.1,0,1.9,0.3,2.5,0.8
				c0.6,0.5,0.9,1.3,0.9,2.2c0,0.9-0.3,1.7-0.9,2.2C16.3-64.2,15.4-63.9,14.4-63.9z M23.9-67.5c-1.2,0-2.3,0.4-3,1.3
				c-0.8,0.9-1.1,2.1-1.1,3.5c0,1.5,0.4,2.7,1.2,3.6c0.7,0.9,1.8,1.3,3.1,1.3c1,0,1.9-0.3,2.6-0.8c0.7-0.5,1.1-1.2,1.3-2h-0.7
				c-0.1,0.6-0.5,1.2-1,1.5c-0.6,0.4-1.3,0.6-2.1,0.6c-1.1,0-1.9-0.4-2.6-1.1c-0.6-0.7-1-1.7-1-3v0h7.5v-0.4c0-1.4-0.4-2.5-1.1-3.3
				C26-67.1,25.1-67.5,23.9-67.5z M20.4-63.1c0.1-1.1,0.4-2,1-2.7c0.6-0.7,1.4-1,2.4-1c1,0,1.8,0.3,2.4,1c0.6,0.7,0.9,1.6,0.9,2.7
				H20.4z M29.9-70.7c-0.2,0-0.3,0.1-0.4,0.2c-0.1,0.1-0.2,0.2-0.2,0.4c0,0.1,0.1,0.3,0.2,0.4c0.1,0.1,0.2,0.2,0.4,0.2
				c0.2,0,0.3-0.1,0.4-0.2c0.1-0.1,0.2-0.2,0.2-0.4c0-0.2-0.1-0.3-0.2-0.4C30.2-70.7,30.1-70.7,29.9-70.7z M29.6-57.9h0.7v-9.5h-0.7
				V-57.9z M34-58.8c-0.2-0.2-0.3-0.7-0.3-1.2v-6.7h2v-0.6h-2v-2.4H33v2.4h-1.4v0.6H33v6.7c0,0.8,0.2,1.3,0.5,1.7
				c0.3,0.3,0.8,0.5,1.5,0.5c0.5,0,0.7,0,0.8,0v-0.6c0,0-0.3,0-0.7,0C34.6-58.5,34.2-58.6,34-58.8z M40.6-67.5c-1.2,0-2.3,0.4-3,1.3
				c-0.8,0.9-1.1,2.1-1.1,3.5c0,1.5,0.4,2.7,1.2,3.6c0.8,0.9,1.8,1.3,3.1,1.3c1,0,1.9-0.3,2.6-0.8c0.7-0.5,1.1-1.2,1.3-2h-0.7
				c-0.1,0.6-0.5,1.2-1,1.5c-0.6,0.4-1.3,0.6-2.1,0.6c-1.1,0-1.9-0.4-2.6-1.1c-0.6-0.7-1-1.7-1-3v0h7.5v-0.4c0-1.4-0.4-2.5-1.1-3.3
				C42.8-67.1,41.8-67.5,40.6-67.5z M37.1-63.1c0.1-1.1,0.4-2,1-2.7c0.6-0.7,1.4-1,2.4-1c1,0,1.8,0.3,2.4,1c0.6,0.7,0.9,1.6,0.9,2.7
				H37.1z M46.9-65.5L46.9-65.5l0-1.9h-0.6v9.5h0.7v-5.9c0-0.9,0.2-1.6,0.7-2.2c0.4-0.6,1-0.9,1.8-0.9c0.4,0,0.7,0.1,1,0.2v-0.7
				c-0.3-0.1-0.6-0.2-0.9-0.2C48.2-67.5,47.3-66.8,46.9-65.5z M54.8-67.5c-1,0-1.8,0.3-2.5,0.8c-0.7,0.5-1,1.2-1.1,2.1h0.7
				c0.1-0.7,0.4-1.3,0.9-1.7c0.5-0.4,1.2-0.6,2-0.6c0.8,0,1.5,0.2,2,0.7c0.5,0.5,0.7,1.1,0.7,1.9v0.8l-3.2,0.2
				c-2.3,0.2-3.4,1.1-3.4,2.7c0,0.8,0.3,1.4,0.9,1.9c0.6,0.5,1.3,0.7,2.3,0.7c0.8,0,1.5-0.2,2.2-0.6c0.6-0.4,1.1-0.9,1.3-1.6h0v2
				h0.7v-6.4c0-1-0.3-1.8-0.9-2.3C56.6-67.2,55.8-67.5,54.8-67.5z M57.5-61.4c0,0.8-0.3,1.6-1,2.1c-0.7,0.6-1.5,0.9-2.4,0.9
				c-0.7,0-1.3-0.2-1.8-0.6c-0.5-0.4-0.7-0.9-0.7-1.5c0-1.3,0.9-2,2.8-2.1l3.2-0.2V-61.4z M61.7-58.8c-0.2-0.2-0.3-0.7-0.3-1.2v-6.7
				h2v-0.6h-2v-2.4h-0.7v2.4h-1.4v0.6h1.4v6.7c0,0.8,0.2,1.3,0.5,1.7c0.3,0.3,0.8,0.5,1.5,0.5c0.5,0,0.7,0,0.8,0v-0.6
				c0,0-0.3,0-0.7,0C62.3-58.5,61.9-58.6,61.7-58.8z M65.1-57.9h0.7v-9.5h-0.7V-57.9z M65.5-70.7c-0.2,0-0.3,0.1-0.4,0.2
				c-0.1,0.1-0.2,0.2-0.2,0.4c0,0.1,0.1,0.3,0.2,0.4c0.1,0.1,0.2,0.2,0.4,0.2c0.2,0,0.3-0.1,0.4-0.2c0.1-0.1,0.2-0.2,0.2-0.4
				c0-0.2-0.1-0.3-0.2-0.4C65.8-70.7,65.6-70.7,65.5-70.7z M71.7-67.5c-1.3,0-2.3,0.4-3,1.3c-0.8,0.9-1.2,2.1-1.2,3.6
				c0,1.5,0.4,2.7,1.2,3.5c0.8,0.9,1.8,1.3,3,1.3c1.3,0,2.3-0.4,3.1-1.3c0.8-0.9,1.2-2.1,1.2-3.5c0-1.5-0.4-2.7-1.2-3.6
				C74-67,73-67.5,71.7-67.5z M74.3-59.5c-0.6,0.8-1.5,1.1-2.6,1.1c-1.1,0-1.9-0.4-2.6-1.1c-0.6-0.8-1-1.8-1-3.1
				c0-1.3,0.3-2.3,1-3.1c0.6-0.8,1.5-1.1,2.6-1.1c1.1,0,1.9,0.4,2.6,1.1c0.6,0.8,1,1.8,1,3.1C75.2-61.3,74.9-60.3,74.3-59.5z
				 M84-66.5c-0.6-0.6-1.5-0.9-2.5-0.9c-0.8,0-1.5,0.2-2.1,0.6c-0.6,0.4-1,0.9-1.2,1.6h0v-2.1h-0.6v9.5h0.7v-5.6
				c0-1,0.3-1.8,0.9-2.4c0.6-0.6,1.3-0.9,2.3-0.9c0.9,0,1.6,0.3,2.1,0.8c0.5,0.5,0.8,1.2,0.8,2.2v6H85V-64
				C85-65.1,84.7-65.9,84-66.5z"/>
		</g>
	</g>
</g>
<g id="Слой_7_xA0_Изображение_1_" class="st40">
	<g class="st1">
		<g>
			<path class="st18" d="M145.2-51.3c-16.4,0-32.5,0-48.7,0c0-8,0-15.9,0-23.9c16.2,0,32.5,0,48.7,0
				C145.2-67.3,145.2-59.3,145.2-51.3z"/>
		</g>
	</g>
</g>
<g id="help_1_" class="st20">
	<g id="help" class="st1">
		<g>
			<path class="st39" d="M112.9-65.4h-8v-5.9h-0.7v12.7h0.7v-6.2h8v6.2h0.7v-12.7h-0.7V-65.4z M119.4-68.1c-1.2,0-2.3,0.4-3,1.3
				c-0.8,0.9-1.1,2.1-1.1,3.5c0,1.5,0.4,2.7,1.2,3.6c0.7,0.9,1.8,1.3,3.1,1.3c1,0,1.9-0.3,2.6-0.8c0.7-0.5,1.1-1.2,1.3-2h-0.7
				c-0.1,0.6-0.5,1.2-1,1.5c-0.6,0.4-1.3,0.6-2.1,0.6c-1.1,0-1.9-0.4-2.6-1.1c-0.6-0.7-1-1.7-1-3v0h7.5v-0.4c0-1.4-0.4-2.5-1.1-3.3
				C121.6-67.7,120.7-68.1,119.4-68.1z M116-63.7c0.1-1.1,0.4-2,1-2.7c0.6-0.7,1.4-1,2.4-1c1,0,1.8,0.3,2.4,1
				c0.6,0.7,0.9,1.6,0.9,2.7H116z M125.2-58.5h0.7v-13.2h-0.7V-58.5z M135.2-66.8c-0.7-0.9-1.7-1.3-2.9-1.3c-0.8,0-1.6,0.3-2.3,0.8
				c-0.6,0.5-1.1,1.1-1.3,1.9h0V-68h-0.6v12.5h0.7V-61h0c0.2,0.8,0.6,1.4,1.3,1.9c0.6,0.5,1.4,0.8,2.3,0.8c1.2,0,2.2-0.4,2.9-1.3
				c0.7-0.9,1.1-2.1,1.1-3.5C136.3-64.7,135.9-65.9,135.2-66.8z M134.6-60.2c-0.6,0.8-1.4,1.2-2.5,1.2c-1,0-1.8-0.4-2.5-1.2
				c-0.6-0.8-1-1.8-1-3c0-1.3,0.3-2.3,1-3.1c0.6-0.8,1.5-1.2,2.5-1.2c1,0,1.8,0.4,2.5,1.2c0.6,0.8,0.9,1.8,0.9,3.1
				C135.6-62,135.3-61,134.6-60.2z"/>
		</g>
	</g>
</g>
</svg>
